<svg width="24" height="24" viewBox="0 0 24 24" fill="none" xmlns="http://www.w3.org/2000/svg">
<g clip-path="url(#clip0_346_9342)">
<path d="M20.9942 13.9824C21.0197 14.0775 21.0262 14.1768 21.0133 14.2744C21.0005 14.3721 20.9685 14.4662 20.9193 14.5515C20.87 14.6368 20.8044 14.7116 20.7263 14.7715C20.6482 14.8315 20.559 14.8755 20.4638 14.9009L18.1147 15.5304L18.7442 17.8794C18.7698 17.9746 18.7764 18.0739 18.7636 18.1716C18.7508 18.2693 18.7189 18.3636 18.6696 18.4489C18.6204 18.5343 18.5548 18.6091 18.4766 18.6692C18.3985 18.7292 18.3092 18.7732 18.214 18.7987C18.1188 18.8242 18.0195 18.8307 17.9218 18.8178C17.8241 18.8049 17.7299 18.7729 17.6446 18.7236C17.5593 18.6742 17.4845 18.6086 17.4246 18.5303C17.3646 18.4521 17.3207 18.3628 17.2953 18.2676L16.5521 15.4941L12.75 13.299V17.6893L14.7803 19.7196C14.921 19.8603 15 20.051 15 20.25C15 20.4489 14.921 20.6397 14.7804 20.7803C14.6397 20.921 14.449 21 14.25 21C14.0511 21 13.8603 20.921 13.7197 20.7804L12 19.0606L10.2803 20.7804C10.1397 20.921 9.94889 21 9.74997 21C9.55105 21 9.36029 20.921 9.21964 20.7803C9.07899 20.6397 8.99998 20.4489 8.99999 20.25C9 20.0511 9.07902 19.8603 9.21968 19.7196L11.25 17.6893V13.299L7.44789 15.4941L6.70473 18.2676C6.65325 18.4597 6.52756 18.6236 6.3553 18.723C6.18304 18.8225 5.97832 18.8495 5.78618 18.798C5.59404 18.7465 5.43022 18.6208 5.33076 18.4485C5.2313 18.2763 5.20434 18.0716 5.25582 17.8794L5.88529 15.5304L3.53618 14.9009C3.44096 14.8755 3.35168 14.8316 3.27344 14.7717C3.19521 14.7117 3.12955 14.637 3.08023 14.5516C3.03091 14.4663 2.99889 14.3721 2.986 14.2744C2.97311 14.1767 2.9796 14.0774 3.0051 13.9822C3.03061 13.887 3.07462 13.7978 3.13464 13.7196C3.19465 13.6414 3.26948 13.5758 3.35485 13.5266C3.44023 13.4774 3.53447 13.4454 3.63219 13.4326C3.72991 13.4198 3.82919 13.4264 3.92436 13.452L6.69793 14.1952L10.5001 12L6.69793 9.80485L3.92437 10.548C3.82919 10.5736 3.72991 10.5802 3.63219 10.5674C3.53447 10.5546 3.44023 10.5226 3.35486 10.4734C3.26948 10.4242 3.19465 10.3586 3.13464 10.2804C3.07462 10.2022 3.03061 10.113 3.0051 10.0178C2.9796 9.92261 2.97311 9.82332 2.986 9.72561C2.99889 9.6279 3.03091 9.53369 3.08023 9.44837C3.12956 9.36304 3.19521 9.28828 3.27345 9.22834C3.35168 9.16841 3.44096 9.12448 3.53618 9.09907L5.88529 8.46964L5.25582 6.12058C5.23022 6.02541 5.22363 5.92612 5.23642 5.8284C5.24922 5.73068 5.28115 5.63644 5.33039 5.55107C5.37962 5.46569 5.4452 5.39086 5.52338 5.33085C5.60156 5.27084 5.69079 5.22682 5.78599 5.20131C5.88119 5.17581 5.98048 5.16932 6.07819 5.18221C6.17589 5.1951 6.2701 5.22712 6.35543 5.27644C6.44075 5.32577 6.51552 5.39142 6.57545 5.46966C6.63539 5.54789 6.67932 5.63717 6.70473 5.73239L7.44789 8.50587L11.25 10.701V6.31069L9.21968 4.28037C9.07902 4.13972 9 3.94895 8.99999 3.75003C8.99998 3.55112 9.07899 3.36034 9.21964 3.21968C9.36029 3.07902 9.55105 2.99999 9.74997 2.99998C9.94889 2.99998 10.1397 3.07899 10.2803 3.21964L12 4.93936L13.7197 3.21964C13.7893 3.14999 13.872 3.09475 13.963 3.05706C14.054 3.01938 14.1515 2.99998 14.25 2.99998C14.3485 2.99999 14.4461 3.01939 14.5371 3.05709C14.628 3.09478 14.7107 3.15003 14.7804 3.21968C14.85 3.28933 14.9053 3.37201 14.9429 3.46301C14.9806 3.55401 15 3.65154 15 3.75003C15 3.84853 14.9806 3.94606 14.9429 4.03705C14.9052 4.12805 14.85 4.21072 14.7803 4.28037L12.75 6.31069V10.701L16.5521 8.50587L17.2953 5.73239C17.3208 5.63725 17.3647 5.54807 17.4247 5.46993C17.4847 5.39179 17.5594 5.32622 17.6447 5.27697C17.73 5.22772 17.8242 5.19575 17.9218 5.1829C18.0195 5.17004 18.1187 5.17654 18.2138 5.20203C18.309 5.22751 18.3982 5.27149 18.4763 5.33145C18.5544 5.3914 18.62 5.46616 18.6692 5.55146C18.7185 5.63675 18.7505 5.73092 18.7633 5.82856C18.7762 5.92621 18.7697 6.02544 18.7442 6.12058L18.1147 8.46964L20.4638 9.09906C20.559 9.12447 20.6483 9.1684 20.7266 9.22834C20.8048 9.28827 20.8705 9.36304 20.9198 9.44837C20.9691 9.53369 21.0011 9.6279 21.014 9.72561C21.0269 9.82331 21.0204 9.9226 20.9949 10.0178C20.9694 10.113 20.9254 10.2022 20.8654 10.2804C20.8054 10.3586 20.7305 10.4242 20.6452 10.4734C20.5598 10.5226 20.4655 10.5546 20.3678 10.5674C20.2701 10.5802 20.1708 10.5736 20.0756 10.548L17.3021 9.80485L13.4999 12L17.3021 14.1952L20.0756 13.452C20.2678 13.4006 20.4725 13.4275 20.6447 13.527C20.817 13.6264 20.9427 13.7903 20.9942 13.9824Z" fill="#7D7F88"/>
</g>
<defs>
<clipPath id="clip0_346_9342">
<rect width="24" height="24" fill="white"/>
</clipPath>
</defs>
</svg>
