<svg width="32" height="32" viewBox="0 0 32 32" fill="none" xmlns="http://www.w3.org/2000/svg">
<path d="M16 0C12.8355 0 9.74207 0.938384 7.11088 2.69649C4.4797 4.45459 2.42894 6.95345 1.21793 9.87706C0.00693253 12.8007 -0.309921 16.0177 0.307443 19.1214C0.924806 22.2251 2.44866 25.0761 4.6863 27.3137C6.92394 29.5513 9.77487 31.0752 12.8786 31.6926C15.9823 32.3099 19.1993 31.9931 22.1229 30.7821C25.0466 29.5711 27.5454 27.5203 29.3035 24.8891C31.0616 22.2579 32 19.1645 32 16C32 11.7565 30.3143 7.68687 27.3137 4.68629C24.3131 1.68571 20.2435 0 16 0ZM9.14286 27.8743C9.31266 26.1827 10.1048 24.6145 11.3655 23.474C12.6262 22.3335 14.2657 21.702 15.9657 21.702C17.6658 21.702 19.3052 22.3335 20.5659 23.474C21.8267 24.6145 22.6188 26.1827 22.7886 27.8743C20.7168 29.0798 18.3627 29.7149 15.9657 29.7149C13.5688 29.7149 11.2146 29.0798 9.14286 27.8743ZM24.8457 26.4343C24.3586 24.4469 23.2189 22.6804 21.6089 21.4174C19.999 20.1544 18.0119 19.468 15.9657 19.468C13.9195 19.468 11.9324 20.1544 10.3225 21.4174C8.71257 22.6804 7.57285 24.4469 7.08572 26.4343C4.94643 24.6166 3.41647 22.1862 2.70246 19.4713C1.98845 16.7564 2.12478 13.8878 3.09303 11.2528C4.06129 8.61786 5.81484 6.34351 8.11686 4.7369C10.4189 3.13029 13.1585 2.26882 15.9657 2.26882C18.7729 2.26882 21.5126 3.13029 23.8146 4.7369C26.1166 6.34351 27.8701 8.61786 28.8384 11.2528C29.8067 13.8878 29.943 16.7564 29.229 19.4713C28.515 22.1862 26.985 24.6166 24.8457 26.4343ZM16 6.85714C14.8698 6.85714 13.765 7.19228 12.8253 7.82017C11.8856 8.44807 11.1532 9.34052 10.7207 10.3847C10.2882 11.4288 10.175 12.5778 10.3955 13.6862C10.616 14.7947 11.1602 15.8129 11.9594 16.612C12.7586 17.4112 13.7767 17.9554 14.8852 18.1759C15.9937 18.3964 17.1426 18.2832 18.1868 17.8507C19.2309 17.4182 20.1234 16.6858 20.7513 15.7461C21.3792 14.8064 21.7143 13.7016 21.7143 12.5714C21.7143 11.0559 21.1122 9.60245 20.0406 8.53082C18.969 7.45918 17.5155 6.85714 16 6.85714ZM16 16C15.3219 16 14.659 15.7989 14.0952 15.4222C13.5314 15.0454 13.0919 14.51 12.8324 13.8835C12.5729 13.257 12.505 12.5676 12.6373 11.9025C12.7696 11.2375 13.0961 10.6266 13.5756 10.1471C14.0551 9.66757 14.666 9.34103 15.3311 9.20873C15.9962 9.07644 16.6856 9.14434 17.3121 9.40384C17.9386 9.66334 18.474 10.1028 18.8508 10.6666C19.2275 11.2304 19.4286 11.8933 19.4286 12.5714C19.4286 13.4807 19.0674 14.3528 18.4244 14.9958C17.7814 15.6388 16.9093 16 16 16Z" fill="black"/>
</svg>
