<svg width="17" height="21" viewBox="0 0 17 21" fill="none" xmlns="http://www.w3.org/2000/svg">
<path d="M9.51318 2.5498C9.87974 2.04308 10.3536 1.6235 10.901 1.321C11.4484 1.0185 12.0558 0.840539 12.6799 0.799805C12.7343 1.36773 12.6737 1.9408 12.5019 2.48485C12.3301 3.0289 12.0506 3.53278 11.6799 3.96647C11.3413 4.438 10.8882 4.81551 10.3633 5.06337C9.83845 5.31124 9.25907 5.42129 8.67985 5.38314C8.61974 4.87905 8.66261 4.36801 8.80585 3.88098C8.94909 3.39395 9.18973 2.94108 9.51318 2.5498ZM5.34652 5.63314C3.01318 5.63314 0.513184 7.71647 0.513184 11.7165C0.513184 15.7998 3.42985 20.7998 5.76318 20.7998C6.59652 20.7998 7.84652 19.9665 9.09652 19.9665C10.3465 19.9665 11.2632 20.7165 12.4299 20.7165C15.0132 20.7165 16.8465 15.3831 16.8465 15.3831C16.0502 15.0395 15.3727 14.4691 14.8985 13.7429C14.4243 13.0168 14.1743 12.1671 14.1799 11.2998C14.1803 10.5396 14.3808 9.79293 14.7611 9.13471C15.1414 8.47649 15.6882 7.9299 16.3465 7.5498C15.9193 6.9092 15.3349 6.38893 14.6491 6.03876C13.9634 5.68859 13.1993 5.52024 12.4299 5.5498C10.7632 5.5498 9.51318 6.46647 8.84652 6.46647C8.09652 6.46647 6.84652 5.63314 5.34652 5.63314Z" fill="#222222"/>
</svg>
