<svg width="64" height="27" viewBox="0 0 64 27" fill="none" xmlns="http://www.w3.org/2000/svg">
<path fill-rule="evenodd" clip-rule="evenodd" d="M11.5759 23.5348L0.975015 13.0579C0.528348 12.6169 0.528348 11.9044 0.975015 11.4622L11.5759 0.985255C12.2207 0.3472 13.2698 0.3472 13.9158 0.985255C14.5606 1.62331 14.5606 2.65886 13.9158 3.29692L4.84728 12.2606L13.9158 21.222C14.5606 21.8612 14.5606 22.8968 13.9158 23.5348C13.2698 24.1729 12.2207 24.1729 11.5759 23.5348Z" fill="#007AFF"/>
<path d="M23.1932 7.59106H27.1242C28.9708 7.59106 30.3065 7.86709 31.1314 8.41915C31.9563 8.9712 32.3688 9.84371 32.3688 11.0367C32.3688 11.8616 32.1372 12.5437 31.6739 13.0831C31.2171 13.6161 30.5476 13.9619 29.6656 14.1206V14.2157C31.7786 14.5774 32.8352 15.6879 32.8352 17.5471C32.8352 18.7908 32.4132 19.7617 31.5692 20.4597C30.7316 21.1577 29.5577 21.5067 28.0475 21.5067H23.1932V7.59106ZM24.8113 13.5495H27.4764C28.6186 13.5495 29.4403 13.3718 29.9416 13.0165C30.4429 12.6548 30.6936 12.0488 30.6936 11.1985C30.6936 10.418 30.4144 9.8564 29.856 9.51374C29.2976 9.16474 28.4092 8.99024 27.1909 8.99024H24.8113V13.5495ZM24.8113 14.9201V20.1266H27.7144C28.8375 20.1266 29.6815 19.9108 30.2462 19.4793C30.8173 19.0415 31.1028 18.3594 31.1028 17.4329C31.1028 16.5699 30.811 15.9354 30.2272 15.5293C29.6497 15.1232 28.7677 14.9201 27.5811 14.9201H24.8113ZM41.5406 21.5067L41.2265 20.0219H41.1504C40.63 20.6755 40.1097 21.1196 39.5894 21.3544C39.0754 21.5829 38.4313 21.6971 37.6572 21.6971C36.6228 21.6971 35.8106 21.4306 35.2205 20.8975C34.6367 20.3645 34.3448 19.6062 34.3448 18.6227C34.3448 16.516 36.0295 15.4119 39.399 15.3103L41.1694 15.2532V14.606C41.1694 13.7874 40.9917 13.1846 40.6364 12.7975C40.2874 12.4041 39.7258 12.2074 38.9516 12.2074C38.0823 12.2074 37.0988 12.4739 36.001 13.0069L35.5156 11.7981C36.0295 11.5189 36.5911 11.3 37.2003 11.1414C37.8158 10.9827 38.4313 10.9034 39.0468 10.9034C40.2905 10.9034 41.2106 11.1794 41.8071 11.7315C42.4099 12.2835 42.7113 13.1687 42.7113 14.3871V21.5067H41.5406ZM37.9713 20.3931C38.9548 20.3931 39.7258 20.1234 40.2842 19.584C40.8489 19.0447 41.1313 18.2896 41.1313 17.3187V16.3764L39.5513 16.443C38.2949 16.4874 37.3875 16.6841 36.8291 17.0331C36.277 17.3758 36.001 17.912 36.001 18.6417C36.001 19.2128 36.1723 19.6475 36.515 19.9457C36.864 20.244 37.3494 20.3931 37.9713 20.3931ZM49.6749 21.6971C48.1647 21.6971 46.994 21.2339 46.1627 20.3074C45.3378 19.3746 44.9254 18.0579 44.9254 16.3574C44.9254 14.6123 45.3442 13.2639 46.1818 12.3121C47.0257 11.3603 48.225 10.8844 49.7796 10.8844C50.2809 10.8844 50.7822 10.9383 51.2835 11.0462C51.7848 11.1541 52.1782 11.281 52.4638 11.4269L51.9784 12.769C51.6294 12.6294 51.2486 12.5152 50.8362 12.4263C50.4237 12.3311 50.0589 12.2835 49.7416 12.2835C47.6222 12.2835 46.5625 13.6351 46.5625 16.3383C46.5625 17.6201 46.8195 18.6037 47.3335 19.289C47.8538 19.9743 48.6216 20.3169 49.6369 20.3169C50.5062 20.3169 51.3977 20.1297 52.3115 19.7554V21.1545C51.6135 21.5162 50.7346 21.6971 49.6749 21.6971ZM55.8866 16.167C56.1595 15.7799 56.5751 15.2723 57.1335 14.6441L60.503 11.0747H62.378L58.152 15.5197L62.6731 21.5067H60.7599L57.0764 16.5763L55.8866 17.6042V21.5067H54.3256V6.69635H55.8866V14.5489C55.8866 14.8979 55.8612 15.4373 55.8105 16.167H55.8866Z" fill="#007AFF"/>
</svg>
