<svg width="318" height="129" viewBox="0 0 318 129" fill="none" xmlns="http://www.w3.org/2000/svg">
<rect y="0.807129" width="318" height="127.389" rx="21.7033" fill="white"/>
<rect x="22.647" y="93.2819" width="100.024" height="22.6469" rx="3.11647" fill="#8C684D"/>
<path d="M48.1195 106.887V100.286H49.1284V106.887H48.1195ZM50.4604 103.616L53.0266 106.887H51.7533L49.2557 103.626L51.6554 100.286H52.8797L50.4604 103.616ZM55.0309 101.921V102.774C55.3248 102.16 55.8406 101.853 56.5785 101.853C57.0682 101.853 57.4567 102.003 57.744 102.303C58.0313 102.604 58.175 103.012 58.175 103.528V106.887H57.2151V103.753C57.2151 103.407 57.127 103.142 56.9507 102.96C56.7809 102.777 56.5523 102.685 56.265 102.685C55.9255 102.685 55.6349 102.819 55.3933 103.087C55.1517 103.348 55.0309 103.717 55.0309 104.194V106.887H54.071V101.921H55.0309ZM61.6695 106.975C60.9382 106.975 60.3636 106.737 59.9457 106.26C59.5278 105.784 59.3188 105.18 59.3188 104.448C59.3188 103.704 59.5343 103.087 59.9653 102.597C60.3962 102.101 60.9643 101.853 61.6695 101.853C62.427 101.853 63.0114 102.094 63.4228 102.578C63.8341 103.054 64.0398 103.665 64.0398 104.409C64.0398 105.154 63.8276 105.767 63.4032 106.251C62.9853 106.734 62.4074 106.975 61.6695 106.975ZM61.6597 102.666C61.2353 102.666 60.9055 102.836 60.6705 103.175C60.4354 103.508 60.3179 103.923 60.3179 104.419C60.3179 104.909 60.4387 105.323 60.6803 105.663C60.9219 105.996 61.2516 106.162 61.6695 106.162C62.1135 106.162 62.4498 105.999 62.6784 105.673C62.9134 105.346 63.031 104.932 63.031 104.429C63.031 103.913 62.92 103.492 62.6979 103.165C62.4759 102.832 62.1299 102.666 61.6597 102.666ZM66.3166 106.887L64.7593 101.921H65.7779L66.2382 103.567C66.3884 104.089 66.5158 104.55 66.6202 104.948C66.7247 105.346 66.79 105.614 66.8161 105.751L66.8553 105.957C66.9402 105.545 67.1557 104.745 67.5017 103.557L67.9817 101.921H68.9122L69.4019 103.557C69.5586 104.099 69.6925 104.572 69.8035 104.977C69.9145 105.376 69.9863 105.64 70.019 105.771L70.0581 105.967C70.1365 105.581 70.3585 104.778 70.7242 103.557L71.2139 101.921H72.1836L70.6066 106.887H69.5096L69.0493 105.261C68.9122 104.765 68.7914 104.328 68.6869 103.949C68.5889 103.564 68.5237 103.302 68.491 103.165L68.4518 102.969C68.3604 103.394 68.1612 104.158 67.8544 105.261L67.4038 106.887H66.3166ZM75.6606 106.887L76.1699 100.286H77.3648L78.2464 102.695C78.4031 103.107 78.5598 103.544 78.7165 104.008C78.8732 104.465 78.9907 104.821 79.0691 105.075L79.1964 105.457C79.4968 104.569 79.8266 103.648 80.1857 102.695L81.1064 100.286H82.3013L82.9086 106.887H81.9095L81.6745 104.301L81.4688 101.657C81.1749 102.486 80.855 103.368 80.5089 104.301L79.5882 106.76H78.7949L77.9035 104.301L77.0122 101.696C77.0122 101.983 76.96 102.852 76.8555 104.301L76.6596 106.887H75.6606ZM86.4167 106.975C85.6853 106.975 85.1107 106.737 84.6928 106.26C84.2749 105.784 84.066 105.18 84.066 104.448C84.066 103.704 84.2814 103.087 84.7124 102.597C85.1434 102.101 85.7115 101.853 86.4167 101.853C87.1741 101.853 87.7585 102.094 88.1699 102.578C88.5813 103.054 88.787 103.665 88.787 104.409C88.787 105.154 88.5747 105.767 88.1503 106.251C87.7324 106.734 87.1545 106.975 86.4167 106.975ZM86.4069 102.666C85.9824 102.666 85.6527 102.836 85.4176 103.175C85.1825 103.508 85.065 103.923 85.065 104.419C85.065 104.909 85.1858 105.323 85.4274 105.663C85.669 105.996 85.9988 106.162 86.4167 106.162C86.8607 106.162 87.197 105.999 87.4255 105.673C87.6606 105.346 87.7781 104.932 87.7781 104.429C87.7781 103.913 87.6671 103.492 87.4451 103.165C87.2231 102.832 86.877 102.666 86.4069 102.666ZM90.956 101.921V102.793C91.1976 102.179 91.6318 101.872 92.2587 101.872C92.3501 101.872 92.4513 101.882 92.5623 101.902V102.842C92.4252 102.783 92.2717 102.754 92.102 102.754C91.769 102.754 91.4947 102.901 91.2792 103.195C91.0637 103.489 90.956 103.838 90.956 104.243V106.887H89.9961V101.921H90.956ZM96.5278 104.047V103.87C96.5148 103.498 96.4136 103.204 96.2242 102.989C96.0348 102.767 95.7639 102.656 95.4113 102.656C95.0848 102.656 94.804 102.777 94.5689 103.018C94.3338 103.253 94.1869 103.596 94.1282 104.047H96.5278ZM97.1449 105.761V106.623C96.7792 106.832 96.296 106.936 95.6953 106.936C94.9248 106.936 94.311 106.704 93.8539 106.241C93.3968 105.777 93.1683 105.17 93.1683 104.419C93.1683 103.622 93.3772 102.999 93.7951 102.548C94.213 102.091 94.7452 101.863 95.3917 101.863C96.025 101.863 96.5278 102.062 96.9 102.46C97.2722 102.852 97.4583 103.42 97.4583 104.164C97.4583 104.367 97.4387 104.579 97.3996 104.801H94.138C94.2033 105.232 94.3861 105.562 94.6865 105.79C94.9868 106.019 95.3655 106.133 95.8226 106.133C96.3515 106.133 96.7923 106.009 97.1449 105.761Z" fill="white"/>
<g clip-path="url(#clip0_347_12105)">
<path d="M194.156 89.2961C193.778 90.2172 193.391 91.1351 193.082 92.078C188.699 105.394 201.1 117.243 212.846 120.802C219.428 122.798 226.328 122.52 232.844 120.456C239.126 118.467 245.545 116.079 252.248 116.484C262.058 117.078 268.056 124.996 276.948 127.496C280.008 128.358 283.336 128.508 286.34 127.465C293.096 125.117 297.958 116.884 299.591 110.256C301.735 101.538 298.644 92.7743 294.87 84.9812C289.318 73.5226 287.392 61.7331 295.947 51.102C304.954 39.9088 309.894 24.8004 297.929 13.4761C289.072 5.08981 275.131 2.88552 263.491 5.12728C260.953 5.61747 258.455 6.33558 256.07 7.33469C249.744 9.98545 244.583 14.7874 241.03 20.6104C236.968 27.2669 235.963 35.2505 231.882 41.8633C225.169 52.7411 212 49.4534 202.905 56.3567C198.534 59.6725 195.617 64.796 194.846 70.2162C193.931 76.6355 196.726 83.0236 194.159 89.3023L194.156 89.2961Z" fill="#C8EEFB"/>
<path d="M208.494 5.76734C198.812 10.3945 192.539 21.8218 196.542 32.6809C200.976 44.7108 214.123 42.4597 221.526 34.7696C225.238 30.9137 228.863 26.093 230.724 21.0319C232.017 17.5163 232.257 13.4355 230.502 10.126C228.089 5.57689 222.491 3.54432 217.342 3.64111C214.226 3.70043 211.226 4.46226 208.497 5.76734H208.494Z" fill="#C8EEFB"/>
<path d="M308.055 75.3647C312.595 70.5503 313.659 62.5792 308.945 57.2246C303.718 51.2893 296.656 55.5105 294.108 61.5801C292.831 64.6243 291.816 68.2024 291.873 71.5275C291.91 73.838 292.681 76.239 294.427 77.7532C296.828 79.8326 300.499 79.7577 303.44 78.5556C305.22 77.8282 306.775 76.7229 308.055 75.3647Z" fill="#C8EEFB"/>
<path d="M191.636 98.9874H303.952V92.8648C303.952 85.0311 297.601 78.6774 289.765 78.6774C288.316 78.6774 286.92 78.8959 285.603 79.2987C281.444 71.8023 273.451 66.7255 264.269 66.7255C262.133 66.7255 260.06 67.0034 258.083 67.5186C256.847 59.3352 249.785 53.0627 241.255 53.0627C232.082 53.0627 224.604 60.3219 224.251 69.4106C221.363 68.1212 218.169 67.3999 214.803 67.3999C201.99 67.3999 191.602 77.7876 191.602 90.6012C191.602 91.0008 191.611 91.4004 191.633 91.7938V98.9874H191.636Z" fill="#FFC7CA"/>
<path d="M306.612 98.9875H188.942V100.105H306.612V98.9875Z" fill="#FFDFEE"/>
<path d="M204.117 72.7733C204.117 72.7733 197.8 81.8402 186.064 77.5846C186.064 77.5846 193.061 67.9526 204.117 72.7733Z" fill="#7DBF8D"/>
<path d="M186.398 61.1399L184.356 62.9508C186.217 65.689 188.846 68.4834 192.508 70.4722L194.759 68.4084L194.662 71.4932C195.749 71.9365 196.91 72.3112 198.156 72.6016L199.833 71.4245L199.521 72.8795C201.15 73.1605 202.914 73.301 204.819 73.2635C204.819 73.2635 203.327 67.7309 199.19 62.5512L196.76 63.2037L198.056 61.218C196.882 59.9222 195.53 58.6858 193.979 57.6024L192.533 58.8201L192.833 56.8531C189.511 54.8237 185.361 53.5123 180.231 53.7278C180.231 53.7278 180.993 57.4307 183.5 61.6114L186.398 61.1368V61.1399Z" fill="#A0DAB0"/>
<path d="M180.231 53.7279C182.445 55.1329 184.59 56.644 186.707 58.1895C187.768 58.9545 188.808 59.7537 189.857 60.5405C190.897 61.3367 191.927 62.1454 192.958 62.954C193.979 63.772 194.996 64.5963 196.011 65.4268C197.013 66.2698 198.028 67.1003 199.012 67.9652C200.997 69.673 202.942 71.4309 204.822 73.2605C202.711 71.7025 200.651 70.0914 198.587 68.4835L195.502 66.0606L192.427 63.6253L189.361 61.1775L186.304 58.7172C184.268 57.0749 182.239 55.4201 180.235 53.7279H180.231Z" fill="#7DBF8D"/>
<path d="M205.428 71.6587C205.428 71.6587 195.968 65.9419 199.455 53.9557C199.455 53.9557 209.521 60.3125 205.428 71.6587Z" fill="#7DBF8D"/>
<path d="M205.89 72.28C205.89 72.28 206.686 83.3046 194.884 87.3791C194.884 87.3791 194.263 75.4896 205.89 72.28Z" fill="#A0DAB0"/>
<path d="M291.442 72.7733C291.442 72.7733 297.758 81.8402 309.495 77.5846C309.495 77.5846 302.498 67.9526 291.442 72.7733Z" fill="#7DBF8D"/>
<path d="M309.161 61.1399L311.203 62.9508C309.342 65.689 306.713 68.4834 303.051 70.4722L300.8 68.4084L300.896 71.4932C299.81 71.9365 298.648 72.3112 297.403 72.6016L295.726 71.4245L296.038 72.8795C294.408 73.1605 292.644 73.301 290.74 73.2635C290.74 73.2635 292.232 67.7309 296.369 62.5512L298.798 63.2037L297.502 61.218C298.676 59.9222 300.028 58.6858 301.58 57.6024L303.026 58.8201L302.726 56.8531C306.048 54.8237 310.197 53.5123 315.327 53.7278C315.327 53.7278 314.565 57.4307 312.058 61.6114L309.161 61.1368V61.1399Z" fill="#A0DAB0"/>
<path d="M315.327 53.7279C313.113 55.1329 310.968 56.644 308.851 58.1895C307.79 58.9545 306.75 59.7537 305.701 60.5405C304.661 61.3367 303.631 62.1454 302.601 62.954C301.58 63.772 300.562 64.5963 299.547 65.4268C298.545 66.2698 297.53 67.1003 296.547 67.9652C294.561 69.673 292.616 71.4309 290.736 73.2605C292.847 71.7025 294.908 70.0914 296.971 68.4835L300.056 66.0606L303.132 63.6253L306.198 61.1775L309.254 58.7172C311.29 57.0749 313.319 55.4201 315.324 53.7279H315.327Z" fill="#7DBF8D"/>
<path d="M290.131 71.6587C290.131 71.6587 299.591 65.9419 296.103 53.9557C296.103 53.9557 286.037 60.3125 290.131 71.6587Z" fill="#7DBF8D"/>
<path d="M289.666 72.28C289.666 72.28 288.869 83.3046 300.671 87.3791C300.671 87.3791 301.293 75.4896 289.666 72.28Z" fill="#A0DAB0"/>
<path d="M285.553 12.0024H210.005C205.951 12.0024 202.665 15.2888 202.665 19.3428V74.0284C202.665 78.0824 205.951 81.3688 210.005 81.3688H285.553C289.607 81.3688 292.894 78.0824 292.894 74.0284V19.3428C292.894 15.2888 289.607 12.0024 285.553 12.0024Z" fill="#2B7AF0"/>
<path d="M291.173 74.0253V19.3459C291.173 16.2403 288.656 13.7228 285.55 13.7228L210.008 13.7228C206.903 13.7228 204.385 16.2403 204.385 19.3459V74.0253C204.385 77.1309 206.903 79.6485 210.008 79.6485H285.55C288.656 79.6485 291.173 77.1309 291.173 74.0253Z" fill="#F7F7F7"/>
<path d="M291.173 27.8102V19.3428C291.173 16.2424 288.651 13.7228 285.55 13.7228H210.008C206.908 13.7228 204.385 16.2455 204.385 19.3428V27.8102H291.173Z" fill="#0B57C7"/>
<path d="M218.029 16.4173C218.029 15.3963 217.202 14.5658 216.178 14.5658C215.154 14.5658 214.326 15.3932 214.326 16.4173C214.326 17.4413 215.154 18.2687 216.178 18.2687C217.202 18.2687 218.029 17.4413 218.029 16.4173Z" fill="#02214F"/>
<path d="M225.928 16.4173C225.928 15.3963 225.101 14.5658 224.077 14.5658C223.053 14.5658 222.225 15.3932 222.225 16.4173C222.225 17.4413 223.053 18.2687 224.077 18.2687C225.101 18.2687 225.928 17.4413 225.928 16.4173Z" fill="#02214F"/>
<path d="M233.828 16.4173C233.828 15.3963 233 14.5658 231.976 14.5658C230.952 14.5658 230.125 15.3932 230.125 16.4173C230.125 17.4413 230.952 18.2687 231.976 18.2687C233 18.2687 233.828 17.4413 233.828 16.4173Z" fill="#02214F"/>
<path d="M241.73 16.4173C241.73 15.3963 240.903 14.5658 239.879 14.5658C238.854 14.5658 238.027 15.3932 238.027 16.4173C238.027 17.4413 238.854 18.2687 239.879 18.2687C240.903 18.2687 241.73 17.4413 241.73 16.4173Z" fill="#02214F"/>
<path d="M249.629 16.4173C249.629 15.3963 248.802 14.5658 247.777 14.5658C246.753 14.5658 245.926 15.3932 245.926 16.4173C245.926 17.4413 246.753 18.2687 247.777 18.2687C248.802 18.2687 249.629 17.4413 249.629 16.4173Z" fill="#02214F"/>
<path d="M257.532 16.4173C257.532 15.3963 256.704 14.5658 255.68 14.5658C254.656 14.5658 253.829 15.3932 253.829 16.4173C253.829 17.4413 254.656 18.2687 255.68 18.2687C256.704 18.2687 257.532 17.4413 257.532 16.4173Z" fill="#02214F"/>
<path d="M265.431 16.4173C265.431 15.3963 264.603 14.5658 263.579 14.5658C262.555 14.5658 261.728 15.3932 261.728 16.4173C261.728 17.4413 262.555 18.2687 263.579 18.2687C264.603 18.2687 265.431 17.4413 265.431 16.4173Z" fill="#02214F"/>
<path d="M273.333 16.4173C273.333 15.3963 272.505 14.5658 271.481 14.5658C270.457 14.5658 269.63 15.3932 269.63 16.4173C269.63 17.4413 270.457 18.2687 271.481 18.2687C272.505 18.2687 273.333 17.4413 273.333 16.4173Z" fill="#02214F"/>
<path d="M281.232 16.4173C281.232 15.3963 280.405 14.5658 279.381 14.5658C278.357 14.5658 277.529 15.3932 277.529 16.4173C277.529 17.4413 278.357 18.2687 279.381 18.2687C280.405 18.2687 281.232 17.4413 281.232 16.4173Z" fill="#02214F"/>
<path d="M217.342 11.6902C217.342 11.047 216.821 10.5256 216.178 10.5256C215.535 10.5256 215.013 11.047 215.013 11.6902V15.2527C215.013 15.8958 215.535 16.4172 216.178 16.4172C216.821 16.4172 217.342 15.8958 217.342 15.2527V11.6902Z" fill="#539EF9"/>
<path d="M224.077 16.4172C223.434 16.4172 222.912 15.8958 222.912 15.2526V11.6933C222.912 11.0501 223.434 10.5287 224.077 10.5287C224.72 10.5287 225.241 11.0501 225.241 11.6933V15.2526C225.241 15.8958 224.72 16.4172 224.077 16.4172Z" fill="#539EF9"/>
<path d="M231.979 16.4172C231.336 16.4172 230.815 15.8958 230.815 15.2526V11.6933C230.815 11.0501 231.336 10.5287 231.979 10.5287C232.622 10.5287 233.144 11.0501 233.144 11.6933V15.2526C233.144 15.8958 232.622 16.4172 231.979 16.4172Z" fill="#539EF9"/>
<path d="M239.879 16.4172C239.236 16.4172 238.714 15.8958 238.714 15.2526V11.6933C238.714 11.0501 239.236 10.5287 239.879 10.5287C240.522 10.5287 241.043 11.0501 241.043 11.6933V15.2526C241.043 15.8958 240.522 16.4172 239.879 16.4172Z" fill="#539EF9"/>
<path d="M247.778 16.4172C247.134 16.4172 246.613 15.8958 246.613 15.2526V11.6933C246.613 11.0501 247.134 10.5287 247.778 10.5287C248.421 10.5287 248.942 11.0501 248.942 11.6933V15.2526C248.942 15.8958 248.421 16.4172 247.778 16.4172Z" fill="#539EF9"/>
<path d="M256.845 11.6902C256.845 11.047 256.323 10.5256 255.68 10.5256C255.037 10.5256 254.516 11.047 254.516 11.6902V15.2527C254.516 15.8958 255.037 16.4172 255.68 16.4172C256.323 16.4172 256.845 15.8958 256.845 15.2527V11.6902Z" fill="#539EF9"/>
<path d="M263.579 16.4172C262.936 16.4172 262.415 15.8958 262.415 15.2526V11.6933C262.415 11.0501 262.936 10.5287 263.579 10.5287C264.223 10.5287 264.744 11.0501 264.744 11.6933V15.2526C264.744 15.8958 264.223 16.4172 263.579 16.4172Z" fill="#539EF9"/>
<path d="M271.481 16.4172C270.838 16.4172 270.317 15.8958 270.317 15.2526V11.6933C270.317 11.0501 270.838 10.5287 271.481 10.5287C272.125 10.5287 272.646 11.0501 272.646 11.6933V15.2526C272.646 15.8958 272.125 16.4172 271.481 16.4172Z" fill="#539EF9"/>
<path d="M279.381 16.4172C278.737 16.4172 278.216 15.8958 278.216 15.2526V11.6933C278.216 11.0501 278.737 10.5287 279.381 10.5287C280.024 10.5287 280.545 11.0501 280.545 11.6933V15.2526C280.545 15.8958 280.024 16.4172 279.381 16.4172Z" fill="#539EF9"/>
<path d="M217.07 44.127H209.015V52.1823H217.07V44.127Z" fill="#B9DDFF"/>
<path d="M217.07 54.6551H209.015V62.7104H217.07V54.6551Z" fill="#B9DDFF"/>
<path d="M217.07 65.1832H209.015V73.2385H217.07V65.1832Z" fill="#B9DDFF"/>
<path d="M228.648 44.127H220.593V52.1823H228.648V44.127Z" fill="#B9DDFF"/>
<path d="M228.648 54.6551H220.593V62.7104H228.648V54.6551Z" fill="#B9DDFF"/>
<path d="M228.648 65.1832H220.593V73.2385H228.648V65.1832Z" fill="#B9DDFF"/>
<path d="M240.228 33.5988H232.173V41.6541H240.228V33.5988Z" fill="#FE769C"/>
<path d="M240.228 44.127H232.173V52.1823H240.228V44.127Z" fill="#B9DDFF"/>
<path d="M240.228 54.6551H232.173V62.7104H240.228V54.6551Z" fill="#B9DDFF"/>
<path d="M240.228 65.1832H232.173V73.2385H240.228V65.1832Z" fill="#FCBA06"/>
<path d="M251.806 33.5988H243.75V41.6541H251.806V33.5988Z" fill="#B9DDFF"/>
<path d="M251.806 44.127H243.75V52.1823H251.806V44.127Z" fill="#B9DDFF"/>
<path d="M251.806 54.6551H243.75V62.7104H251.806V54.6551Z" fill="#B9DDFF"/>
<path d="M251.806 65.1832H243.75V73.2385H251.806V65.1832Z" fill="#B9DDFF"/>
<path d="M263.386 33.5988H255.331V41.6541H263.386V33.5988Z" fill="#B9DDFF"/>
<path d="M263.386 44.127H255.331V52.1823H263.386V44.127Z" fill="#FCBA06"/>
<path d="M263.386 54.6551H255.331V62.7104H263.386V54.6551Z" fill="#B9DDFF"/>
<path d="M263.386 65.1832H255.331V73.2385H263.386V65.1832Z" fill="#01BEEE"/>
<path d="M274.966 33.5988H266.911V41.6541H274.966V33.5988Z" fill="#B9DDFF"/>
<path d="M274.966 44.127H266.911V52.1823H274.966V44.127Z" fill="#B9DDFF"/>
<path d="M274.966 54.6551H266.911V62.7104H274.966V54.6551Z" fill="#B9DDFF"/>
<path d="M274.966 65.1832H266.911V73.2385H274.966V65.1832Z" fill="#B9DDFF"/>
<path d="M286.543 33.5988H278.488V41.6541H286.543V33.5988Z" fill="#0B57C7"/>
<path d="M286.543 44.127H278.488V52.1823H286.543V44.127Z" fill="#0B57C7"/>
<path d="M286.543 54.6551H278.488V62.7104H286.543V54.6551Z" fill="#0B57C7"/>
<path d="M286.543 65.1832H278.488V73.2385H286.543V65.1832Z" fill="#0B57C7"/>
<path d="M237.599 22.2306V24.8876H236.863L235.851 23.6793V24.8876H234.977V22.2306H235.714L236.725 23.4389V22.2306H237.599Z" fill="white"/>
<path d="M238.801 23.5578C238.801 22.7522 239.435 22.1684 240.3 22.1684C241.165 22.1684 241.799 22.7522 241.799 23.5578C241.799 24.3633 241.165 24.9472 240.3 24.9472C239.435 24.9472 238.801 24.3633 238.801 23.5578ZM240.896 23.5578C240.896 23.1425 240.631 22.8927 240.3 22.8927C239.969 22.8927 239.704 23.1425 239.704 23.5578C239.704 23.973 239.969 24.2228 240.3 24.2228C240.631 24.2228 240.896 23.973 240.896 23.5578Z" fill="white"/>
<path d="M245.748 22.2308L244.624 24.8878H243.744L242.62 22.2308H243.585L244.218 23.7826L244.868 22.2308H245.748Z" fill="white"/>
<path d="M248.923 24.2134V24.8878H246.713V22.2308H248.873V22.9052H247.593V23.2174H248.717V23.8637H247.593V24.2134H248.923Z" fill="white"/>
<path d="M252.517 24.8878L252.511 23.6764L251.933 24.6474H251.54L250.962 23.717V24.8878H250.147V22.2308H250.884L251.749 23.6483L252.592 22.2308H253.329L253.335 24.8878H252.52H252.517Z" fill="white"/>
<path d="M257.263 24.1541C257.263 24.6162 256.873 24.8878 256.139 24.8878H254.643V22.2308H256.064C256.798 22.2308 257.138 22.5243 257.138 22.9271C257.138 23.1737 257.013 23.3798 256.77 23.5016C257.082 23.614 257.263 23.8419 257.263 24.1572V24.1541ZM255.524 22.8553V23.2487H255.942C256.142 23.2487 256.236 23.18 256.236 23.052C256.236 22.924 256.145 22.8553 255.942 22.8553H255.524ZM256.361 24.0511C256.361 23.9137 256.261 23.8419 256.064 23.8419H255.524V24.2603H256.064C256.261 24.2603 256.361 24.1885 256.361 24.0511Z" fill="white"/>
<path d="M260.663 24.2134V24.8878H258.453V22.2308H260.613V22.9052H259.333V23.2174H260.457V23.8637H259.333V24.2134H260.663Z" fill="white"/>
<path d="M263.024 24.2197H262.78V24.8878H261.884V22.2308H263.164C263.904 22.2308 264.376 22.618 264.376 23.2331C264.376 23.6171 264.194 23.9043 263.873 24.0698L264.432 24.891H263.476L263.024 24.2228V24.2197ZM263.108 22.9208H262.78V23.5422H263.108C263.355 23.5422 263.473 23.4235 263.473 23.2299C263.473 23.0364 263.355 22.9177 263.108 22.9177V22.9208Z" fill="white"/>
<path d="M236.99 42.8094C233.45 42.8094 230.565 39.9275 230.565 36.3838C230.565 32.8401 233.447 29.9583 236.99 29.9583C240.534 29.9583 243.416 32.8401 243.416 36.3838C243.416 39.9275 240.534 42.8094 236.99 42.8094ZM236.99 30.3298C233.649 30.3298 230.933 33.0462 230.933 36.3869C230.933 39.7277 233.649 42.4441 236.99 42.4441C240.331 42.4441 243.047 39.7277 243.047 36.3869C243.047 33.0462 240.331 30.3298 236.99 30.3298Z" fill="#1F75FE"/>
<path d="M236.99 41.011C234.44 41.011 232.363 38.9347 232.363 36.3838C232.363 33.833 234.44 31.7567 236.99 31.7567C239.541 31.7567 241.618 33.833 241.618 36.3838C241.618 38.9347 239.541 41.011 236.99 41.011ZM236.99 32.122C234.642 32.122 232.732 34.0328 232.732 36.3807C232.732 38.7286 234.642 40.6394 236.99 40.6394C239.338 40.6394 241.252 38.7286 241.252 36.3807C241.252 34.0328 239.341 32.122 236.99 32.122Z" fill="#1F75FE"/>
<path d="M236.991 39.5061C235.27 39.5061 233.868 38.1042 233.868 36.3838C233.868 34.6635 235.27 33.2616 236.991 33.2616C238.711 33.2616 240.113 34.6635 240.113 36.3838C240.113 38.1042 238.711 39.5061 236.991 39.5061ZM236.991 33.63C235.473 33.63 234.237 34.8664 234.237 36.3838C234.237 37.9012 235.473 39.1376 236.991 39.1376C238.508 39.1376 239.744 37.9012 239.744 36.3838C239.744 34.8664 238.508 33.63 236.991 33.63Z" fill="#1F75FE"/>
<path d="M217.895 121.674C228.908 121.674 237.836 120.097 237.836 118.152C237.836 116.207 228.908 114.63 217.895 114.63C206.881 114.63 197.953 116.207 197.953 118.152C197.953 120.097 206.881 121.674 217.895 121.674Z" fill="#9AD8E8"/>
<path d="M237.327 40.2179C237.327 40.3366 237.281 40.4552 237.19 40.5457C236.762 40.961 235.932 41.573 234.848 41.4325C234.848 41.4325 234.183 42.1787 233.634 42.7438C233.515 42.8656 233.403 42.9967 233.297 43.1309L229.356 48.1921L226.406 51.9856L226.344 51.9918C226.322 51.7889 226.272 51.5859 226.2 51.3955C226.081 51.0739 225.947 50.7741 226.047 50.4276C226.075 50.3308 226.112 50.2402 226.15 50.1497L226.312 50.1809C226.74 49.9343 227.09 49.6002 227.358 49.2848C227.711 48.8727 227.914 48.3575 227.942 47.8236C227.948 47.68 227.945 47.5426 227.93 47.399C227.839 46.6216 227.661 45.8254 227.486 45.1635L233.712 39.3C233.799 39.2157 233.887 39.1283 233.968 39.0377L236.456 36.2183C236.625 36.0279 236.909 36.006 237.106 36.1653C237.218 36.2589 237.278 36.3932 237.278 36.5306C237.278 36.6242 237.249 36.7179 237.19 36.8022L236.016 38.4445L235.576 39.0596L235.495 39.1751C235.317 39.428 235.351 39.7714 235.582 39.9775C235.698 40.0805 235.841 40.1336 235.985 40.1336C236.11 40.1336 236.235 40.0961 236.341 40.015L236.584 39.837C236.706 39.7465 236.859 39.7246 236.997 39.7652C237.065 39.787 237.134 39.8276 237.19 39.8807C237.287 39.9744 237.334 40.0993 237.334 40.221L237.327 40.2179Z" fill="#D9844B"/>
<path d="M236.99 39.7621C236.853 39.7215 236.7 39.7433 236.578 39.8339L236.335 40.0119C236.253 39.1158 235.57 39.0565 235.57 39.0565L236.01 38.4414C236.01 38.4414 236.99 38.5194 236.99 39.759V39.7621Z" fill="#C56F3E"/>
<path d="M236.335 40.015C236.229 40.093 236.104 40.1336 235.979 40.1336C235.835 40.1336 235.692 40.0805 235.576 39.9775C235.345 39.7714 235.311 39.428 235.489 39.1751L235.57 39.0596C235.57 39.0596 236.257 39.1189 236.335 40.015Z" fill="#C56F3E"/>
<path d="M227.309 67.8527C227.199 67.3906 227.099 66.9129 227.006 66.4321C226.793 65.3424 226.619 64.234 226.481 63.2256C226.453 63.0289 226.428 62.8384 226.403 62.6511C226.403 62.6511 227.867 61.2586 230.765 61.524L231.321 66.5195C231.321 66.5195 231.77 68.3523 232.117 69.2858C232.117 69.2858 232.704 71.7742 232.807 73.7755C232.807 73.7755 233.153 79.5798 234.705 82.7925C234.705 82.7925 235.095 83.623 234.358 84.6565L232.804 86.7484C232.679 86.917 232.441 86.942 232.282 86.8077C232.201 86.7359 232.154 86.636 232.154 86.5329C232.154 86.4611 232.176 86.3893 232.217 86.33L232.769 85.5338L232.357 85.921C232.304 85.9709 232.235 85.9959 232.17 85.9959C232.098 85.9959 232.029 85.9678 231.976 85.9147C231.87 85.8117 231.87 85.6431 231.97 85.5338L232.835 84.5972C232.978 84.4442 233.072 84.2475 233.097 84.0383C233.135 83.7573 233.097 83.4669 232.994 83.2015L232.766 82.6239L232.382 84.0539C232.32 84.2881 232.107 84.4442 231.876 84.4442C231.833 84.4442 231.795 84.4379 231.751 84.4286C231.48 84.3599 231.305 84.0976 231.355 83.8229C231.567 82.6583 231.592 81.0597 231.592 81.0597C231.592 79.7702 231.374 78.7243 231.267 78.2965C231.236 78.1716 231.196 78.0499 231.149 77.9281L230.937 77.4067L230.39 76.0673L228.885 72.3706L227.883 69.9071C227.846 69.8135 227.811 69.7198 227.78 69.623C227.605 69.0735 227.446 68.474 227.299 67.8496L227.309 67.8527Z" fill="#D9844B"/>
<path d="M220.546 82.2243L221.486 86.0958C221.573 86.4518 221.604 86.8202 221.579 87.1855L221.226 92.384C219.434 95.8871 217.065 99.4777 217.065 99.4777C214.542 103.914 212.412 110.071 211.679 112.291C210.38 111.904 207.292 110.502 207.292 110.502C208.444 107.108 213.462 96.2118 214.536 93.8826C214.673 93.5923 214.763 93.2801 214.813 92.9616L215.909 85.8023C215.972 85.384 215.95 84.9562 215.859 84.541C214.885 80.0699 217.346 76.8572 217.439 76.7385C217.995 76.5325 219.138 76.1609 220.758 75.9236C221.776 75.7738 222.981 75.677 224.346 75.7051C224.745 75.7144 225.145 75.7519 225.541 75.8175C226.169 75.9205 227.327 76.0891 228.579 76.1328C229.163 76.1516 229.769 76.1453 230.35 76.0954L230.393 76.0766L230.94 77.4161C231.096 83.5013 228.817 94.4009 228.817 94.4009C227.596 101.776 227.412 109.281 227.387 112.035C225.067 112.588 222.944 112.372 222.944 112.372C222.622 107.945 222.944 96.0401 222.944 96.0401C223.156 92.871 223.109 90.3233 222.962 88.3657C222.706 84.9281 222.148 83.3014 222.148 83.3014C221.486 83.036 220.961 82.6614 220.546 82.2274V82.2243Z" fill="#018389"/>
<path d="M230.677 60.7184L230.765 61.5239C227.867 61.2586 226.403 62.6511 226.403 62.6511C226.359 62.3139 226.322 61.9892 226.284 61.6863C226.284 61.6863 227.792 60.5436 230.677 60.7215V60.7184Z" fill="white"/>
<path d="M222.129 57.3277C222.594 57.1716 223.025 56.9031 223.299 56.5003C223.43 56.3036 223.527 56.0601 223.711 55.9071C223.996 55.6729 224.398 55.676 224.667 55.395C224.823 55.2296 224.92 55.0141 224.979 54.7924C225.026 54.6207 225.057 54.4365 225.035 54.2617C225.017 54.118 224.967 53.9744 224.988 53.8308C225.01 53.6841 225.12 53.6091 225.251 53.5623L225.257 53.6965C225.469 53.6872 226.297 53.6684 227.227 53.9526C226.749 54.1337 226.281 54.4552 225.978 54.7862C225.273 55.5574 225.176 57.309 226.309 57.7742C226.793 57.9709 227.349 57.7929 227.814 58.077C228.239 58.3424 228.254 58.8014 228.542 59.1417C229.082 59.7974 229.906 59.6194 230.499 59.1292L230.677 60.7122C227.792 60.5342 226.284 61.6769 226.284 61.6769C226.322 61.9798 226.362 62.3045 226.403 62.6417C226.428 62.829 226.453 63.0195 226.481 63.2162C225.672 63.8812 224.611 64.387 224.248 65.3362C223.952 66.1167 224.32 67.0815 225.241 67.1502C225.903 67.2001 226.45 66.8036 227.005 66.4196C227.099 66.9004 227.199 67.3781 227.308 67.8402C226.984 67.9869 226.668 68.1836 226.465 68.5958C225.725 70.1101 226.431 71.6774 226.009 73.2104C225.669 74.4562 224.302 74.3126 223.274 74.5748C222.772 74.7028 222.1 74.7434 221.641 74.987C221.217 75.2118 220.939 75.5271 220.764 75.8987C219.144 76.1359 218.001 76.5075 217.445 76.7136C217.199 76.8072 217.067 76.8665 217.067 76.8665C217.954 75.6208 218.538 74.4499 218.916 73.3853C219.009 73.123 219.094 72.8545 219.162 72.586C219.718 72.5423 220.311 72.6578 220.814 72.8108C221.735 73.0918 222.281 72.9887 222.915 72.2207C223.424 71.5994 223.384 70.5409 223.171 69.7916C222.912 68.8643 222.141 68.1462 222.069 67.172C221.963 65.7358 223.043 64.1248 221.823 62.8665C221.126 62.1515 219.843 62.1484 218.984 62.4637C218.563 62.6167 218.138 62.8228 217.761 63.0695C217.364 61.3148 217.195 59.8067 217.12 58.7358C217.542 58.5766 217.96 58.5703 218.41 58.6952C218.463 58.7077 218.516 58.7233 218.572 58.7421C219.662 59.1074 220.405 60.2813 221.204 61.0587C221.785 61.6207 222.843 62.3295 223.686 61.8924C224.498 61.474 224.264 60.0222 223.655 59.5132C223.321 59.2354 222.831 59.1511 222.447 58.9544C221.773 58.614 221.485 58.0864 221.467 57.4526C221.573 57.4401 221.682 57.4214 221.788 57.3964C221.901 57.3714 222.013 57.3402 222.125 57.3027L222.129 57.3277Z" fill="#FE769C"/>
<path d="M230.621 116.744C230.649 116.918 230.606 117.196 230.134 117.34C230.134 117.34 229.063 117.889 226.587 117.768C226.387 117.758 226.191 117.789 226 117.855C225.654 117.977 225.036 118.158 224.427 118.158H222.766C222.766 118.158 222.647 117.168 222.85 116.153C222.919 115.816 222.944 115.476 222.944 115.132V114.945C222.944 114.711 223.131 114.524 223.365 114.524H224.146C224.321 114.524 224.486 114.592 224.617 114.717C224.829 114.92 225.276 115.173 226.028 114.839C226.028 114.839 226.244 114.677 226.569 114.608C226.825 114.555 227.156 114.564 227.499 114.764L228.152 115.423C228.301 115.576 228.479 115.698 228.679 115.782L230.462 116.547C230.546 116.584 230.609 116.659 230.621 116.753V116.744Z" fill="white"/>
<path d="M230.353 57.8116L230.499 59.1354C229.906 59.6256 229.082 59.8005 228.542 59.1479C228.258 58.8076 228.239 58.3455 227.814 58.0833C227.352 57.796 226.793 57.9771 226.309 57.7804C225.176 57.3152 225.273 55.5636 225.978 54.7924C226.281 54.4615 226.753 54.1399 227.227 53.9588C228.542 54.3553 230.062 55.3544 230.349 57.8147L230.353 57.8116Z" fill="#EF4E8C"/>
<path d="M228.891 72.3737L230.396 76.0704L230.352 76.0891C229.772 76.1391 229.166 76.1453 228.582 76.1266L228.891 72.3768V72.3737Z" fill="#B72963"/>
<path d="M228.891 72.3705L228.582 76.1234C227.33 76.0797 226.169 75.9111 225.544 75.8081C225.148 75.7425 224.748 75.7051 224.348 75.6957C222.984 75.6676 221.779 75.7644 220.761 75.9143C220.939 75.5427 221.214 75.2274 221.638 75.0026C222.1 74.759 222.772 74.7184 223.271 74.5904C224.295 74.3282 225.663 74.4718 226.006 73.226C226.428 71.693 225.719 70.1288 226.462 68.6114C226.665 68.1993 226.98 68.0025 227.305 67.8558C227.452 68.4802 227.611 69.0797 227.786 69.6292C227.814 69.726 227.848 69.8197 227.889 69.9134L228.891 72.3768V72.3705Z" fill="#EF4E8C"/>
<path d="M227.927 47.4021C228.005 48.0828 227.802 48.7697 227.355 49.288C227.087 49.6033 226.734 49.9374 226.309 50.184L226.147 50.1528C226.238 49.9311 226.328 49.722 226.303 49.4566C226.272 49.1537 226.225 49.0944 226.45 48.854C226.7 48.5855 226.956 48.3419 227.037 47.9704C227.077 47.7768 227.099 47.527 227.043 47.3335C226.993 47.1649 226.856 47.0556 226.803 46.8963C226.709 46.631 226.937 46.4592 227.021 46.1845C227.209 45.5788 226.665 45.1229 226.828 44.5391C226.906 44.2581 227.021 43.9115 226.99 43.6118H227.012C227.012 43.6118 227.246 44.2612 227.483 45.1666C227.658 45.8285 227.836 46.6247 227.927 47.4021Z" fill="#D9844B"/>
<path d="M227.39 112.029C227.387 112.735 227.39 113.125 227.39 113.125L226.55 113.219L223.734 113.531L223.087 113.603C223.031 113.322 222.981 112.897 222.944 112.366C222.944 112.366 225.067 112.582 227.387 112.029H227.39Z" fill="#06B7B7"/>
<path d="M226.55 114.517L226.568 114.599C226.241 114.667 226.028 114.83 226.028 114.83C225.276 115.167 224.829 114.911 224.617 114.708C224.489 114.586 224.32 114.514 224.146 114.514H223.733V113.528L226.55 113.215V114.514V114.517Z" fill="#D9844B"/>
<path d="M226.481 63.2256C226.618 64.234 226.793 65.3424 227.006 66.4321C226.45 66.8161 225.903 67.2126 225.242 67.1627C224.321 67.0909 223.952 66.1261 224.249 65.3487C224.611 64.3995 225.672 63.8937 226.481 63.2287V63.2256Z" fill="#EF4E8C"/>
<path d="M223.662 59.5382C224.27 60.044 224.505 61.4959 223.693 61.9174C222.85 62.3545 221.791 61.6457 221.211 61.0837C220.408 60.3063 219.665 59.1323 218.579 58.767C218.522 58.7483 218.469 58.7327 218.416 58.7202C218.176 58.2113 217.898 57.7086 217.708 57.1903C217.885 57.2028 218.06 57.1966 218.235 57.1747C218.491 57.1466 218.785 56.9936 219.041 57.0311C219.312 57.0748 219.603 57.284 219.877 57.3589C220.396 57.5057 220.942 57.5494 221.476 57.4776C221.495 58.1114 221.782 58.639 222.456 58.9793C222.84 59.176 223.331 59.2603 223.665 59.5382H223.662Z" fill="#EF4E8C"/>
<path d="M223.171 69.8103C223.384 70.5565 223.424 71.6181 222.915 72.2394C222.282 73.0075 221.735 73.1105 220.814 72.8295C220.311 72.6765 219.718 72.561 219.162 72.6047C219.3 72.0771 219.387 71.5432 219.428 71.003C219.671 71.1435 221.885 70.441 221.885 70.441C220.73 69.7729 218.694 66.3509 218.694 66.3509C218.291 65.2051 217.988 64.106 217.764 63.0913C218.141 62.8447 218.566 62.6386 218.988 62.4856C219.849 62.1703 221.129 62.1734 221.826 62.8884C223.046 64.1435 221.966 65.7577 222.072 67.1939C222.144 68.168 222.915 68.8861 223.174 69.8134L223.171 69.8103Z" fill="#EF4E8C"/>
<path d="M222.962 88.3625H222.944C222.606 89.5209 221.963 90.9446 221.226 92.3809L221.579 87.1823C221.604 86.817 221.573 86.4518 221.485 86.0927L220.546 82.2211C220.961 82.6551 221.485 83.0298 222.147 83.2952C222.147 83.2952 222.706 84.9219 222.962 88.3594V88.3625Z" fill="#004E4A"/>
<path d="M218.691 66.3509C218.691 66.3509 220.727 69.7728 221.882 70.441C221.882 70.441 219.668 71.1435 219.425 71.003C219.54 69.5699 219.331 68.1149 218.828 66.7474C218.781 66.6163 218.731 66.4851 218.688 66.354L218.691 66.3509Z" fill="#B72963"/>
<path d="M218.41 58.7171C217.96 58.5922 217.542 58.5984 217.12 58.7577C217.052 57.7679 217.067 57.1528 217.07 57.0529C217.273 57.1341 217.486 57.1747 217.701 57.1903C217.892 57.7086 218.169 58.2113 218.41 58.7202V58.7171Z" fill="#EF4E8C"/>
<path d="M211.794 116.653C212.14 116.815 213.118 117.359 212.999 118.267C212.999 118.267 212.765 118.43 212.287 118.489C211.819 118.551 211.116 118.511 210.173 118.124C210.173 118.124 209.396 117.558 208.956 116.628C208.956 116.628 208.294 115.404 206.358 116.016C206.358 116.016 205.943 115.51 206.52 114.677C206.561 114.617 206.598 114.558 206.633 114.496C206.736 114.299 206.973 113.837 207.17 113.309C207.288 112.984 207.619 112.785 207.963 112.831C207.994 112.835 208.032 112.841 208.066 112.847C208.706 112.944 209.636 113.19 210.258 113.812C210.258 113.812 210.698 114.202 210.698 115.282C210.698 115.282 210.785 116.388 211.572 116.587C211.65 116.606 211.725 116.625 211.797 116.659L211.794 116.653Z" fill="white"/>
<path d="M212.284 118.489V118.511C211.276 119.095 209.608 118.904 209.608 118.904C207.57 118.807 207.432 117.508 207.432 117.508C207.164 116.697 206.355 116.013 206.355 116.013C208.291 115.401 208.953 116.625 208.953 116.625C209.393 117.555 210.17 118.12 210.17 118.12C211.113 118.508 211.816 118.548 212.284 118.486V118.489Z" fill="#939393"/>
<path d="M211.678 112.285C211.5 112.819 211.407 113.125 211.407 113.125L210.692 112.819L208.512 111.888L207.067 111.273C207.098 111.102 207.173 110.836 207.289 110.496C207.289 110.496 210.376 111.898 211.675 112.285H211.678Z" fill="#06B7B7"/>
<path d="M210.695 112.819L210.255 113.806C209.633 113.184 208.706 112.938 208.063 112.841L208.516 111.888L210.695 112.819Z" fill="#D9844B"/>
<path d="M236.99 39.7652C237.168 39.7933 237.324 39.9494 237.368 40.143C237.39 40.2398 237.38 40.3428 237.343 40.4365C237.309 40.5332 237.227 40.6113 237.168 40.6706C236.912 40.9266 236.609 41.1421 236.275 41.2982C235.941 41.4512 235.573 41.5386 235.204 41.5261C235.02 41.523 234.839 41.4949 234.664 41.4512C234.489 41.4012 234.321 41.3357 234.165 41.2482C234.508 41.3513 234.861 41.3919 235.204 41.3762C235.548 41.3575 235.885 41.267 236.197 41.1233C236.509 40.9797 236.8 40.7861 237.068 40.5582C237.14 40.4989 237.193 40.4521 237.231 40.3834C237.268 40.3147 237.284 40.2366 237.277 40.1555C237.271 39.9931 237.159 39.837 236.993 39.7652H236.99Z" fill="#964712"/>
<path d="M218.975 77.8563C218.994 78.2684 219.044 78.6806 219.128 79.0833C219.206 79.4861 219.318 79.8826 219.462 80.2635C219.746 81.0285 220.171 81.7466 220.761 82.3023C221.341 82.8706 222.088 83.2484 222.875 83.4513C223.268 83.5575 223.677 83.6168 224.086 83.6449C224.495 83.6824 224.91 83.673 225.322 83.6574C224.913 83.7167 224.498 83.7448 224.083 83.7386C223.668 83.7292 223.249 83.6855 222.84 83.5949C222.022 83.417 221.242 83.0236 220.627 82.4428C220.474 82.2992 220.342 82.1306 220.202 81.9745C220.136 81.8933 220.077 81.8028 220.018 81.7185L219.927 81.5905L219.846 81.4562C219.624 81.1003 219.453 80.7131 219.321 80.3166C219.056 79.5236 218.934 78.6868 218.972 77.8594L218.975 77.8563Z" fill="#003834"/>
<path d="M235.566 39.0596C235.801 39.0127 236.05 39.1439 236.194 39.3375C236.263 39.4374 236.316 39.5498 236.338 39.6653C236.35 39.7215 236.35 39.7839 236.356 39.8401C236.353 39.8995 236.347 39.9557 236.334 40.0119C236.306 39.9588 236.288 39.9057 236.266 39.8557C236.241 39.8058 236.222 39.7558 236.197 39.709C236.15 39.6153 236.1 39.5279 236.044 39.4467C235.925 39.2875 235.776 39.1626 235.57 39.0533L235.566 39.0596Z" fill="#964712"/>
<path d="M232.404 81.6904C232.538 81.9776 232.663 82.268 232.794 82.5583L232.981 82.9955C233.04 83.1391 233.112 83.2889 233.15 83.4513C233.19 83.6105 233.206 83.7791 233.197 83.9446C233.19 84.107 233.15 84.2849 233.069 84.4348C233.028 84.5129 232.978 84.5815 232.922 84.6471L232.759 84.822L232.438 85.1716L232.113 85.5182L232.035 85.6025C232.016 85.6212 232.004 85.6462 231.998 85.6712C231.982 85.7211 231.991 85.7774 232.019 85.8211C232.076 85.9179 232.219 85.9397 232.3 85.8617L232.653 85.5463L233.009 85.231C233.131 85.1248 233.24 85.0249 233.337 84.9C233.434 84.7814 233.518 84.6471 233.587 84.5066C233.656 84.3661 233.699 84.2131 233.755 84.0664C233.699 84.3755 233.599 84.6877 233.412 84.9562C233.321 85.0905 233.206 85.2091 233.094 85.3184L232.756 85.6525C232.644 85.7649 232.535 85.8741 232.416 85.9865C232.341 86.0584 232.232 86.0927 232.129 86.0802C232.023 86.0677 231.929 86.0084 231.87 85.921C231.81 85.8336 231.792 85.718 231.823 85.6181C231.838 85.5682 231.863 85.5182 231.898 85.4807L231.979 85.3902L232.3 85.0405L232.625 84.6939L232.784 84.5222C232.834 84.4691 232.875 84.4098 232.909 84.3474C233.053 84.0976 233.053 83.776 233.006 83.4794C232.981 83.3295 232.922 83.189 232.869 83.036L232.71 82.5896C232.61 82.2898 232.503 81.9901 232.407 81.6904H232.404Z" fill="#964712"/>
<path d="M227.043 47.3335C226.993 47.1649 226.856 47.0556 226.799 46.8964C226.706 46.631 226.934 46.4592 227.018 46.1845C227.205 45.5788 226.662 45.1229 226.824 44.5391C226.902 44.2581 227.018 43.9115 226.987 43.6118C226.987 43.6055 226.987 43.5993 226.987 43.593C226.955 43.3401 226.784 43.2652 226.649 43.0654C226.49 42.825 226.528 42.519 226.443 42.2224C226.343 41.8602 226.141 41.5511 225.835 41.3326C225.522 41.1078 225.148 40.9922 224.773 40.9485C224.42 40.9079 224.027 41.1171 223.708 41.0609C223.53 41.0297 223.352 40.9548 223.168 40.883C222.996 40.8143 222.819 40.7456 222.637 40.7144C222.253 40.6519 221.851 40.6144 221.467 40.6738C221.323 40.6956 221.179 40.73 221.039 40.783C220.274 41.0703 219.818 41.6229 219.343 42.2567C219.072 42.6189 218.585 42.8 218.179 42.9624C217.707 43.1559 217.333 43.3682 217.033 43.7991C216.83 44.0895 216.69 44.4173 216.587 44.7545C216.477 45.1167 216.43 45.2822 216.265 45.4039C216.015 45.5913 215.681 45.6475 215.419 45.8192C215.119 46.019 214.863 46.2782 214.651 46.5654C214.323 47.0088 214.02 47.577 213.895 48.114C213.783 48.6042 213.873 49.0757 213.851 49.5659C213.82 50.1809 213.524 50.8085 213.561 51.408C213.608 52.176 213.767 52.9878 214.292 53.581C214.304 53.5966 214.314 53.6091 214.329 53.6247C214.635 53.9526 215.072 54.1461 215.353 54.5021C215.697 54.9361 215.69 55.6261 215.993 56.1131C216.246 56.519 216.615 56.8656 217.058 57.0436C217.061 57.0436 217.064 57.0467 217.071 57.0467C217.273 57.1279 217.486 57.1685 217.701 57.1841C217.879 57.1966 218.054 57.1903 218.229 57.1685C218.485 57.1404 218.778 56.9874 219.034 57.0248C219.306 57.0685 219.596 57.2777 219.871 57.3527C220.389 57.4994 220.936 57.5431 221.47 57.4713C221.576 57.4588 221.685 57.4401 221.791 57.4151C221.904 57.3901 222.016 57.3589 222.129 57.3214C222.594 57.1653 223.025 56.8968 223.299 56.4941C223.43 56.2974 223.527 56.0538 223.711 55.9008C223.996 55.6667 224.398 55.6698 224.667 55.3888C224.823 55.2233 224.92 55.0079 224.979 54.7862C225.026 54.6145 225.057 54.4303 225.035 54.2554C225.017 54.1118 224.967 53.9682 224.988 53.8246C225.01 53.6778 225.12 53.6029 225.251 53.556C225.385 53.5061 225.541 53.4842 225.653 53.4312C226.006 53.2688 226.244 52.9097 226.319 52.5288C226.356 52.3509 226.362 52.1667 226.34 51.9856C226.319 51.7826 226.269 51.5797 226.197 51.3892C226.078 51.0676 225.944 50.7679 226.044 50.4213C226.072 50.3245 226.109 50.234 226.147 50.1435C226.237 49.9218 226.328 49.7126 226.303 49.4472C226.272 49.1444 226.225 49.085 226.45 48.8446C226.699 48.5761 226.955 48.3326 227.037 47.961C227.077 47.7675 227.099 47.5177 227.043 47.3241V47.3335Z" fill="#1E3135"/>
<path d="M222.157 57.3183C222.157 57.3183 222.147 57.3121 222.147 57.309C221.666 56.7907 221.357 55.9633 221.273 54.9798C221.201 54.1118 221.31 53.1689 221.57 52.4508C221.866 51.6171 222.447 51.1332 223.006 50.668C223.749 50.0467 224.451 49.4628 224.373 48.1515C224.348 47.6707 224.28 47.2211 224.211 46.784C224.064 45.8036 223.921 44.8763 224.264 43.7804C224.645 42.5565 225.151 41.7853 225.85 41.3575L225.86 41.3513L225.816 41.3201C225.11 41.7572 224.601 42.5346 224.22 43.7648C223.871 44.8732 224.014 45.8036 224.164 46.7902C224.233 47.2242 224.302 47.6769 224.326 48.1546C224.405 49.441 223.708 50.0186 222.978 50.6305C222.409 51.102 221.829 51.5922 221.523 52.4352C221.26 53.1564 221.151 54.1087 221.226 54.9829C221.31 55.9758 221.623 56.8094 222.103 57.3371L222.157 57.3183ZM217.726 57.1872C217.726 57.1872 217.726 57.1809 217.726 57.1778C217.445 56.4222 217.423 55.8072 217.651 55.1858C217.735 54.9548 217.876 54.7487 218.01 54.5489C218.12 54.3866 218.238 54.218 218.319 54.0337C218.625 53.3593 218.544 52.6287 218.466 51.92C218.413 51.4298 218.357 50.9209 218.429 50.4307C218.538 49.6595 218.825 49.0663 219.272 48.6635C219.487 48.47 219.771 48.3482 220.043 48.2264C220.355 48.0859 220.68 47.9454 220.898 47.7019C221.485 47.0556 221.485 46.0003 221.485 44.9762C221.485 44.3986 221.485 43.8553 221.591 43.4088C221.885 42.1599 222.347 41.4356 223.19 40.9017C223.196 40.9017 223.199 40.8954 223.203 40.8923L223.146 40.8705C222.303 41.4075 221.835 42.1412 221.541 43.3963C221.435 43.8459 221.435 44.3923 221.435 44.9731C221.435 45.9847 221.435 47.0337 220.864 47.6675C220.652 47.9017 220.33 48.0422 220.024 48.1796C219.746 48.3045 219.462 48.4294 219.24 48.6261C218.781 49.0382 218.491 49.6408 218.382 50.4213C218.31 50.9209 218.366 51.4329 218.419 51.9262C218.497 52.66 218.575 53.35 218.276 54.015C218.198 54.193 218.082 54.3616 217.973 54.5208C217.835 54.7206 217.692 54.9298 217.607 55.1702C217.376 55.7978 217.398 56.4191 217.679 57.1841H217.732L217.726 57.1872ZM214.307 53.606L214.314 53.5966C214.398 53.3718 214.516 53.1564 214.669 52.9566C214.729 52.8754 214.797 52.7942 214.86 52.7162C215.054 52.4758 215.253 52.2322 215.363 51.9294C215.55 51.4142 215.525 50.8491 215.5 50.3027C215.469 49.6408 215.438 48.957 215.784 48.3669C216.09 47.8455 216.605 47.5832 217.102 47.3303C217.548 47.1024 218.01 46.8714 218.313 46.453C218.594 46.0627 218.644 45.5694 218.688 45.0886C218.71 44.87 218.731 44.639 218.778 44.4329C218.938 43.7023 219.269 43.0404 219.796 42.4066C220.38 41.7072 220.93 41.1483 221.485 40.6987C221.495 40.6894 221.504 40.6831 221.513 40.6738L221.42 40.6863C220.876 41.1327 220.333 41.6822 219.759 42.3723C219.225 43.0123 218.891 43.6805 218.731 44.4204C218.688 44.6327 218.663 44.8607 218.641 45.0823C218.597 45.5538 218.547 46.044 218.276 46.4249C217.979 46.8308 217.545 47.0525 217.083 47.2866C216.58 47.5427 216.056 47.8049 215.744 48.3419C215.391 48.9445 215.422 49.6377 215.453 50.3058C215.478 50.8491 215.503 51.408 215.319 51.9138C215.21 52.2072 215.013 52.4508 214.822 52.6881C214.757 52.7661 214.691 52.8504 214.629 52.9316C214.476 53.1314 214.357 53.35 214.273 53.5717L214.307 53.6122V53.606Z" fill="#295154"/>
<path d="M229.354 48.1952L226.403 51.9887L226.341 51.9949C226.319 51.792 226.269 51.589 226.197 51.3986C226.078 51.077 225.944 50.7773 226.044 50.4307C226.072 50.3339 226.11 50.2434 226.147 50.1528L226.309 50.184C226.737 49.9374 227.087 49.6033 227.355 49.288C227.708 48.8758 227.911 48.3607 227.939 47.8268L229.354 48.1921V48.1952Z" fill="#C56F3E"/>
<path d="M227.009 43.6118C227.246 44.1738 227.436 44.7576 227.602 45.3446C227.77 45.9347 227.898 46.5342 227.986 47.143C228.033 47.4427 228.055 47.7706 227.998 48.0797C227.945 48.3919 227.839 48.6947 227.671 48.9601C227.505 49.2318 227.286 49.4534 227.062 49.6626C226.831 49.8656 226.578 50.0467 226.303 50.1809C226.556 50.0092 226.79 49.8156 226.996 49.5939C227.205 49.3754 227.405 49.1475 227.543 48.8852C227.83 48.3607 227.905 47.7581 227.792 47.168C227.711 46.5685 227.586 45.9722 227.455 45.3789C227.39 45.0823 227.315 44.7857 227.24 44.4922C227.168 44.1956 227.084 43.9021 227.005 43.6086L227.009 43.6118Z" fill="#964712"/>
<path d="M226.556 63.9687C226.328 62.9914 226.185 62.0079 226.066 61.0182C225.954 60.0284 225.863 59.0356 225.86 58.0333C226.088 59.0106 226.231 59.9941 226.35 60.9838C226.462 61.9736 226.553 62.9664 226.556 63.9687Z" fill="#B22860"/>
<path d="M265.2 40.2928V67.8683C265.2 68.8299 264.416 69.6074 263.458 69.6074H238.761C237.799 69.6074 237.022 68.8268 237.022 67.8683V40.2928C237.022 39.3312 237.802 38.5538 238.761 38.5538H263.458C264.419 38.5538 265.2 39.3343 265.2 40.2928Z" fill="#0B57C7"/>
<path d="M242.86 47.143L243.069 46.6747C243.266 46.8058 243.55 46.8963 243.809 46.8963C244.068 46.8963 244.175 46.8214 244.175 46.7152C244.175 46.3593 242.901 46.6185 242.901 45.7879C242.901 45.3883 243.229 45.0605 243.894 45.0605C244.184 45.0605 244.487 45.1292 244.705 45.2572L244.512 45.7286C244.296 45.6131 244.087 45.5569 243.89 45.5569C243.625 45.5569 243.528 45.6474 243.528 45.7598C243.528 46.1033 244.799 45.8473 244.799 46.6715C244.799 47.0618 244.474 47.3959 243.806 47.3959C243.438 47.3959 243.072 47.296 242.86 47.1492V47.143Z" fill="white"/>
<path d="M245.445 46.3437V45.1011H246.079V46.325C246.079 46.709 246.238 46.862 246.504 46.862C246.769 46.862 246.925 46.709 246.925 46.325V45.1011H247.55V46.3437C247.55 47.0119 247.159 47.3865 246.498 47.3865C245.836 47.3865 245.445 47.0119 245.445 46.3437Z" fill="white"/>
<path d="M250.491 45.1011V47.3428H249.969L248.98 46.1501V47.3428H248.358V45.1011H248.88L249.87 46.2938V45.1011H250.491Z" fill="white"/>
<path d="M251.315 45.1011H252.374C253.117 45.1011 253.626 45.5319 253.626 46.222C253.626 46.912 253.117 47.3428 252.374 47.3428H251.315V45.1011ZM252.349 46.837C252.73 46.837 252.986 46.6091 252.986 46.222C252.986 45.8348 252.73 45.6069 252.349 45.6069H251.949V46.837H252.349Z" fill="white"/>
<path d="M255.808 46.9088H254.859L254.684 47.3428H254.038L255.028 45.1011H255.652L256.645 47.3428H255.986L255.811 46.9088H255.808ZM255.621 46.4405L255.334 45.7224L255.046 46.4405H255.624H255.621Z" fill="white"/>
<path d="M258.259 46.5404V47.3428H257.625V46.531L256.77 45.1042H257.438L257.969 45.994L258.499 45.1042H259.115L258.256 46.5404H258.259Z" fill="white"/>
<path d="M245.058 47.9017V50.0092H244.843V48.0953H244.346V47.9017H245.061H245.058Z" fill="white"/>
<path d="M247.35 49.4566H246.928V50.0092H246.713V49.4566H245.523V49.3005L246.641 47.9048H246.882L245.804 49.2661H246.719V48.7791H246.932V49.2661H247.353V49.4597L247.35 49.4566Z" fill="white"/>
<path d="M247.569 48.5761C247.569 48.4824 247.64 48.4138 247.728 48.4138C247.815 48.4138 247.89 48.4824 247.89 48.5761C247.89 48.6698 247.815 48.7416 247.728 48.7416C247.64 48.7416 247.569 48.6698 247.569 48.5761ZM247.569 49.8593C247.569 49.7657 247.64 49.697 247.728 49.697C247.815 49.697 247.89 49.7657 247.89 49.8593C247.89 49.953 247.815 50.0248 247.728 50.0248C247.64 50.0248 247.569 49.953 247.569 49.8593Z" fill="white"/>
<path d="M249.598 49.4066C249.598 49.7594 249.342 50.0311 248.833 50.0311C248.531 50.0311 248.237 49.9249 248.075 49.7594L248.181 49.5877C248.315 49.7282 248.562 49.8312 248.833 49.8312C249.183 49.8312 249.377 49.6689 249.377 49.4066C249.377 49.1444 249.199 48.9882 248.808 48.9882H248.659V48.829L249.242 48.0984H248.165V47.9048H249.52V48.0578L248.924 48.8072C249.377 48.8321 249.601 49.0694 249.601 49.4066H249.598Z" fill="white"/>
<path d="M249.901 48.957C249.901 48.2858 250.254 47.8861 250.741 47.8861C251.228 47.8861 251.584 48.2858 251.584 48.957C251.584 49.6283 251.228 50.028 250.741 50.028C250.254 50.028 249.901 49.6283 249.901 48.957ZM251.362 48.957C251.362 48.395 251.109 48.0828 250.741 48.0828C250.372 48.0828 250.119 48.3919 250.119 48.957C250.119 49.5221 250.372 49.8313 250.741 49.8313C251.109 49.8313 251.362 49.5221 251.362 48.957Z" fill="white"/>
<path d="M254.519 48.6261C254.519 49.0757 254.194 49.3442 253.657 49.3442H253.092V50.0092H252.87V47.9017H253.66C254.197 47.9017 254.522 48.1734 254.522 48.623L254.519 48.6261ZM254.297 48.6261C254.297 48.2889 254.076 48.0953 253.654 48.0953H253.095V49.1506H253.654C254.076 49.1506 254.297 48.957 254.297 48.6261Z" fill="white"/>
<path d="M257.185 47.9017V50.0092H256.973V48.3232L256.145 49.7407H256.039L255.212 48.3326V50.0092H255V47.9017H255.184L256.099 49.4628L257.004 47.9017H257.188H257.185Z" fill="white"/>
<path d="M258.359 65.9794H243.863C242.576 65.9794 241.533 64.9365 241.533 63.6502C241.533 62.3638 242.576 61.321 243.863 61.321H258.359C259.645 61.321 260.688 62.3638 260.688 63.6502C260.688 64.9365 259.645 65.9794 258.359 65.9794Z" fill="#FF654B"/>
<path d="M245.661 63.8564C245.661 64.0843 245.492 64.2154 245.158 64.2154H244.54V62.876H245.117C245.417 62.876 245.589 63.0009 245.589 63.2195C245.589 63.3724 245.508 63.4755 245.383 63.5223C245.555 63.5598 245.658 63.6753 245.658 63.8564H245.661ZM244.683 62.9915V63.4786H245.111C245.327 63.4786 245.448 63.3974 245.448 63.2351C245.448 63.0727 245.323 62.9915 245.111 62.9915H244.683ZM245.52 63.847C245.52 63.6722 245.392 63.5972 245.155 63.5972H244.683V64.0999H245.155C245.389 64.0999 245.52 64.0219 245.52 63.847Z" fill="white"/>
<path d="M246.092 63.544C246.092 63.1538 246.392 62.8634 246.797 62.8634C247.203 62.8634 247.5 63.1538 247.5 63.544C247.5 63.9343 247.2 64.2247 246.797 64.2247C246.395 64.2247 246.092 63.9343 246.092 63.544ZM247.356 63.544C247.356 63.2256 247.116 62.9883 246.794 62.9883C246.473 62.9883 246.229 63.2224 246.229 63.544C246.229 63.8656 246.47 64.0998 246.794 64.0998C247.119 64.0998 247.356 63.8656 247.356 63.544Z" fill="white"/>
<path d="M247.924 63.544C247.924 63.1538 248.224 62.8634 248.63 62.8634C249.036 62.8634 249.332 63.1538 249.332 63.544C249.332 63.9343 249.033 64.2247 248.63 64.2247C248.227 64.2247 247.924 63.9343 247.924 63.544ZM249.189 63.544C249.189 63.2256 248.948 62.9883 248.627 62.9883C248.305 62.9883 248.062 63.2224 248.062 63.544C248.062 63.8656 248.302 64.0998 248.627 64.0998C248.952 64.0998 249.189 63.8656 249.189 63.544Z" fill="white"/>
<path d="M250.291 63.5815L250.016 63.8594V64.2122H249.876V62.8727H250.016V63.6814L250.803 62.8727H250.965L250.385 63.4785L251.006 64.2122H250.837L250.291 63.5815Z" fill="white"/>
<path d="M253.31 62.8727V64.2122H253.195L252.333 63.1256V64.2122H252.192V62.8727H252.308L253.173 63.9593V62.8727H253.313H253.31Z" fill="white"/>
<path d="M253.854 63.544C253.854 63.1538 254.153 62.8634 254.559 62.8634C254.965 62.8634 255.262 63.1538 255.262 63.544C255.262 63.9343 254.962 64.2247 254.559 64.2247C254.156 64.2247 253.854 63.9343 253.854 63.544ZM255.118 63.544C255.118 63.2256 254.878 62.9883 254.556 62.9883C254.234 62.9883 253.991 63.2224 253.991 63.544C253.991 63.8656 254.231 64.0998 254.556 64.0998C254.881 64.0998 255.118 63.8656 255.118 63.544Z" fill="white"/>
<path d="M257.603 62.8727L257.151 64.2122H257.001L256.607 63.0694L256.214 64.2122H256.067L255.615 62.8727H255.761L256.148 64.0248L256.548 62.8727H256.679L257.073 64.0311L257.466 62.8727H257.603Z" fill="white"/>
<path d="M241.405 51.4985H245.82C246.597 51.4985 247.228 52.1292 247.228 52.9066V57.3214C247.228 58.0989 246.597 58.7296 245.82 58.7296H241.405C240.628 58.7296 239.997 58.0989 239.997 57.3214V52.9066C239.997 52.1292 240.628 51.4985 241.405 51.4985Z" fill="#1F75FE"/>
<path d="M243.681 52.3259C242.798 52.2946 242.011 52.9409 241.845 53.8058C241.792 54.0868 241.814 54.3522 241.88 54.5988C242.145 55.3794 242.657 56.3754 243.613 57.8959C244.484 56.3598 245.208 55.3856 245.345 54.5988C245.386 54.4459 245.411 54.2866 245.411 54.1243C245.411 53.1533 244.643 52.3602 243.678 52.3259H243.681ZM243.616 54.9954C243.135 54.9954 242.745 54.6051 242.745 54.1243C242.745 53.6434 243.135 53.2532 243.616 53.2532C244.097 53.2532 244.487 53.6434 244.487 54.1243C244.487 54.6051 244.097 54.9954 243.616 54.9954Z" fill="#FF654B"/>
<path d="M261.809 53.887H250.478C250.251 53.887 250.063 53.7028 250.063 53.4717C250.063 53.2438 250.247 53.0565 250.478 53.0565H261.809C262.037 53.0565 262.224 53.2407 262.224 53.4717C262.224 53.6997 262.04 53.887 261.809 53.887Z" fill="white"/>
<path d="M261.809 55.5262H250.478C250.251 55.5262 250.063 55.342 250.063 55.1109C250.063 54.883 250.247 54.6957 250.478 54.6957H261.809C262.037 54.6957 262.224 54.8799 262.224 55.1109C262.224 55.3388 262.04 55.5262 261.809 55.5262Z" fill="white"/>
<path d="M258.59 57.1622H250.478C250.251 57.1622 250.063 56.978 250.063 56.747C250.063 56.519 250.247 56.3317 250.478 56.3317H258.59C258.818 56.3317 259.005 56.5159 259.005 56.747C259.005 56.9749 258.821 57.1622 258.59 57.1622Z" fill="white"/>
<path d="M265.2 40.2928V42.3691H237.022V40.2928C237.022 39.3312 237.802 38.5538 238.761 38.5538H263.458C264.419 38.5538 265.2 39.3343 265.2 40.2928Z" fill="#FE769C"/>
<path d="M244.069 41.217H239.448C239.06 41.217 238.745 40.9017 238.745 40.5145C238.745 40.1274 239.06 39.812 239.448 39.812H244.069C244.456 39.812 244.771 40.1274 244.771 40.5145C244.771 40.9017 244.456 41.217 244.069 41.217Z" fill="white"/>
<path d="M279.827 118.039C290.841 118.039 299.769 116.462 299.769 114.517C299.769 112.572 290.841 110.996 279.827 110.996C268.814 110.996 259.886 112.572 259.886 114.517C259.886 116.462 268.814 118.039 279.827 118.039Z" fill="#9AD8E8"/>
<path d="M286.012 73.2448C286.265 74.3063 286.4 75.4865 286.209 76.5699C283.761 77.7095 283.877 73.2448 283.877 73.2448C284.773 73.5882 286.012 73.2448 286.012 73.2448Z" fill="#0041A0"/>
<path d="M279.337 73.7505C279.337 73.7505 280.024 78.1123 276.799 78.3027C276.799 78.3027 273.651 78.4963 274.26 73.916C274.26 73.916 276.593 74.5811 279.334 73.7505H279.337Z" fill="#0041A0"/>
<path d="M281.238 77.4972L280.705 85.6743L279.549 81.8496C279.606 81.2626 279.662 80.788 279.702 80.4883C279.73 80.2666 279.821 80.0574 279.955 79.8763C280.52 79.1208 280.936 78.2996 281.242 77.4941L281.238 77.4972Z" fill="#0041A0"/>
<path d="M285.797 68.1337C286.818 66.7443 287.202 63.9218 287.202 63.9218C287.324 62.9571 287.789 62.0079 288.251 61.2679C288.407 61.0213 288.563 60.7965 288.704 60.606L287.477 56.6408L288.014 55.9789L289.003 54.7643L292.023 59.2135C292.538 59.9753 292.628 60.9463 292.26 61.7893C291.589 63.313 290.465 65.7827 289.512 67.4374C289.128 68.1056 288.635 68.7019 288.057 69.214C287.929 69.3295 287.826 69.47 287.751 69.6261C287.614 69.9071 287.339 70.4067 286.918 70.8407L284.82 69.9477L283.718 70.0632C283.674 70.0632 283.633 70.0601 283.589 70.057C283.424 70.0289 283.287 69.904 283.243 69.7385C283.177 69.5012 283.318 69.2577 283.555 69.1952L284.32 68.9861L284.701 68.883C284.966 68.858 285.21 68.7363 285.428 68.5489C285.56 68.4334 285.685 68.296 285.8 68.1368L285.797 68.1337Z" fill="#FFB380"/>
<path d="M280.911 70.0913C281.879 70.0414 282.8 70.0226 283.587 70.0539C283.612 70.0601 283.64 70.0601 283.665 70.0601C283.683 70.0601 283.696 70.0601 283.711 70.0601L284.814 69.9415C284.835 69.9852 285.173 70.644 285.519 71.6119C285.691 72.0927 285.869 72.6484 286.006 73.2417C286.006 73.2417 284.767 73.5851 283.871 73.2417C283.871 73.2417 283.758 77.7064 286.203 76.5668C286.169 76.7635 286.125 76.9571 286.066 77.1476C286.013 77.3193 286.009 77.5004 286.037 77.6752C286.315 79.4018 287.745 88.1877 288.67 92.3684C288.751 92.7337 288.804 93.1052 288.832 93.4799L290.037 109.416C290.037 109.416 289.934 109.444 289.762 109.488C289.025 109.669 286.99 110.078 285.844 109.416L281.744 89.2836C281.685 88.9901 281.61 88.6966 281.523 88.4094L280.698 85.6712L281.232 77.4941C280.926 78.2997 280.511 79.1208 279.946 79.8764C279.812 80.0575 279.721 80.2635 279.693 80.4883C279.656 80.7849 279.599 81.2626 279.54 81.8465C279.428 82.9861 279.306 84.5378 279.306 85.9772L278.519 101.785L278.735 110.046C278.735 110.046 278.653 110.071 278.507 110.109C277.757 110.306 275.341 110.877 274.17 110.284C274.042 110.221 273.926 110.14 273.833 110.046L273.077 90.8291C273.058 90.3514 273.002 89.8831 272.909 89.4148C272.465 87.223 271.116 80.1012 271.035 74.1627C271.02 73.1449 271.045 72.1614 271.116 71.2434L271.123 71.181L271.301 71.1997C271.572 71.2278 271.844 71.1779 272.081 71.0499C272.081 71.0499 272.081 71.0499 272.084 71.0499C272.153 71.0405 272.955 70.9187 274.148 70.7595C275.921 70.5253 278.554 70.2162 280.898 70.0945L280.911 70.0913ZM276.799 78.2997C280.024 78.1092 279.337 73.7475 279.337 73.7475C276.596 74.578 274.264 73.9129 274.264 73.9129C273.652 78.4932 276.802 78.2997 276.802 78.2997H276.799Z" fill="#1F75FE"/>
<path d="M289.768 109.491C289.768 109.491 289.931 110.802 289.903 112.126C289.89 112.591 289.587 112.997 289.138 113.125C288.751 113.237 288.248 113.322 287.72 113.25C287.508 113.222 287.308 113.141 287.136 113.012C286.784 112.747 286.031 112.238 285.441 112.238C285.441 112.238 283.658 112.298 282.884 110.949C282.812 110.818 282.759 110.674 282.728 110.527C282.709 110.424 282.687 110.296 282.684 110.174C282.678 109.959 282.806 109.762 283.006 109.684C283.461 109.497 284.57 109.147 285.85 109.422C286.996 110.084 289.032 109.675 289.768 109.494V109.491Z" fill="#0F3772"/>
<path d="M287.474 56.6408L288.701 60.606C288.56 60.7996 288.404 61.0213 288.248 61.2679L288.204 61.2492L286.19 58.2113L287.471 56.6408H287.474Z" fill="#ED8945"/>
<path d="M284.817 69.9477L286.915 70.8407C286.559 71.206 286.1 71.5182 285.525 71.6181C285.179 70.6502 284.839 69.9914 284.82 69.9477H284.817Z" fill="#ED8945"/>
<path d="M278.847 44.5016C279.159 44.4735 279.431 44.3736 279.646 44.2581C279.693 44.23 279.743 44.2019 279.787 44.1707C279.787 44.1707 280.211 45.3665 280.377 45.8004V45.8254C280.271 45.8317 280.161 45.8473 280.055 45.8691L277.07 46.5154L275.356 46.887L275.338 46.7996C275.322 46.6903 275.306 46.5841 275.285 46.4873L275.762 43.5962L275.719 43.7148C275.581 44.0926 275.275 44.383 274.891 44.5047L273.948 44.8013L273.52 44.9325C272.115 45.2103 272.1 44.1113 272.1 44.1113L272.281 41.8384L272.456 39.6403L272.478 39.3531C272.528 38.7193 272.649 38.0917 272.834 37.4829L273.068 36.7148V36.7085C273.165 36.7304 273.28 36.7366 273.414 36.7148C273.414 36.7148 274.351 36.3245 274.351 36.8272L273.795 38.2634C273.727 38.4383 273.745 38.635 273.842 38.7942L274.067 39.1626C274.148 39.2937 274.195 39.4436 274.198 39.5997L274.22 40.1805C274.223 40.3116 274.276 40.4334 274.363 40.5239C274.451 40.6176 274.566 40.6769 274.698 40.6894C274.96 40.7175 275.2 40.5458 275.266 40.2929L275.288 40.1992C275.331 40.0306 275.494 39.9213 275.669 39.9463C275.993 39.9994 276.462 40.1836 276.471 40.8392C276.546 40.9579 276.724 41.4418 276.811 41.6854C276.846 41.779 276.861 41.8789 276.864 41.9789C276.883 42.5939 277.017 43.1029 277.158 43.4744C277.233 43.6711 277.342 43.8491 277.486 43.9989C277.732 44.2706 278.073 44.4517 278.45 44.4922C278.585 44.5079 278.713 44.5079 278.838 44.4954L278.847 44.5016Z" fill="#FFB380"/>
<path d="M278.519 110.112C279.459 111.726 279.043 114.108 278.897 114.792C278.869 114.923 278.794 115.045 278.684 115.126C278.019 115.613 276.911 115.607 276.262 115.551C275.971 115.526 275.696 115.445 275.428 115.335C274.257 114.848 272.637 115.054 272.637 115.054C269.527 115.476 267.919 114.558 267.388 114.168C267.245 114.062 267.167 113.884 267.198 113.709C267.338 112.978 268.309 112.828 268.309 112.828C271.481 112.413 274.185 110.29 274.185 110.29C275.356 110.883 277.773 110.312 278.522 110.115L278.519 110.112Z" fill="#0F3772"/>
<path d="M275.762 43.593L275.284 46.4842C274.963 44.9574 273.948 44.7951 273.948 44.7951L274.891 44.4985C275.275 44.3767 275.581 44.0863 275.718 43.7085L275.762 43.5899V43.593Z" fill="#ED8945"/>
<path d="M274.644 69.4356C274.763 69.5231 274.841 69.6573 274.854 69.8134C274.854 69.829 274.854 69.8446 274.854 69.8603C274.854 70.1256 274.651 70.3536 274.382 70.3817L273.954 70.4254C273.773 70.0975 273.639 69.7572 273.558 69.395L274.288 69.3388C274.42 69.3264 274.544 69.3669 274.644 69.4419V69.4356Z" fill="#FFB380"/>
<path d="M271.135 71.181L271.129 71.2434L269.93 73.582C269.53 73.1761 269.205 72.6297 268.993 72.2144C268.806 71.8522 268.712 71.4526 268.712 71.0467V70.2162C268.712 70.0601 268.697 69.904 268.668 69.751L267.26 63.6502C266.873 61.9704 267.067 60.2126 267.813 58.6609L268.409 57.4151C268.846 57.5462 269.446 57.693 270.23 57.8023C270.408 57.8304 270.592 57.8522 270.788 57.8741L271.497 61.8861L271.179 63.0663C271.085 63.4066 271.035 63.7532 271.032 64.106C271.026 64.59 271.023 65.3362 271.063 66.1105C271.126 67.3594 271.3 68.6894 271.731 69.1203C271.731 69.1203 271.925 69.4575 272.702 69.4575L273.561 69.3888C273.642 69.751 273.776 70.0913 273.957 70.4191L273.374 70.4753C273.208 70.4941 273.046 70.5409 272.899 70.619L272.1 71.0467H272.097C271.859 71.1747 271.585 71.2247 271.316 71.1966L271.138 71.1778L271.135 71.181Z" fill="#FFB380"/>
<path d="M272.546 57.9896V57.9958L271.494 61.8893L270.785 57.8772C271.301 57.9334 271.888 57.974 272.546 57.9896Z" fill="#ED8945"/>
<path d="M272.459 39.6372L272.284 41.8352L271.45 41.626L272.459 39.6372Z" fill="#ED8945"/>
<path d="M269.927 73.5851L271.125 71.2466C271.054 72.1645 271.029 73.148 271.044 74.1658H271.041C270.632 74.1658 270.254 73.9223 269.927 73.5851Z" fill="#ED8945"/>
<path d="M283.24 69.7385C283.174 69.5012 283.315 69.2577 283.552 69.1952L284.317 68.986C282.631 68.8736 281.161 68.8487 279.909 68.8799C276.499 68.9579 274.723 69.4169 274.648 69.4388C274.766 69.5262 274.844 69.6604 274.857 69.8166C274.857 69.8322 274.857 69.8478 274.857 69.8634C274.857 70.1288 274.654 70.3567 274.385 70.3848L273.958 70.4285L273.374 70.4847C273.208 70.5034 273.046 70.5503 272.899 70.6283L272.1 71.0561C272.169 71.0467 272.971 70.9249 274.164 70.7657C275.937 70.5315 278.569 70.2224 280.914 70.1007C281.882 70.0507 282.803 70.032 283.59 70.0632C283.424 70.0351 283.287 69.9102 283.243 69.7447L283.24 69.7385Z" fill="#BC1B1B"/>
<path d="M289.06 54.1524L288.813 53.6903C288.779 53.734 288.242 54.4209 287.617 55.2046C286.924 56.0757 286.115 57.0623 285.763 57.412C285.735 57.6867 285.694 57.9584 285.644 58.2269L285.494 59.0636L286.19 58.2081L287.471 56.6377L288.008 55.9758L288.997 54.7612C289.138 54.5895 289.16 54.346 289.053 54.1493L289.06 54.1524Z" fill="#BC1B1B"/>
<path d="M275.318 55.5137C274.956 55.3607 274.575 55.2639 274.185 55.189C273.405 55.0391 272.59 54.9798 271.834 54.7362C270.897 54.4334 269.814 53.7746 269.183 52.8879L267.819 56.1256C267.819 56.1256 269.424 56.7376 271.434 57.131C271.981 56.8968 272.568 56.7095 273.064 56.6252C273.292 56.5877 273.514 56.5784 273.729 56.5971C274.944 56.7032 275.909 57.693 275.865 58.9606C275.812 60.5124 275.022 61.2773 273.854 62.1578C273.255 62.6105 272.702 63.0851 272.274 63.6315C272.237 63.8687 272.206 64.1029 272.181 64.3402C272.043 65.6359 272.012 69.4107 271.725 69.1234C271.725 69.1234 271.918 69.4606 272.696 69.4606L273.554 69.392C273.423 68.8175 273.42 68.193 273.564 67.4936C273.817 66.2729 274.475 65.3955 275.278 64.4745C276.046 63.5909 277.057 62.9789 277.613 61.9049C278.194 60.7871 278.185 59.1636 277.676 58.0146C277.229 57.003 276.352 55.9508 275.312 55.5168L275.318 55.5137ZM288.344 52.8067C288.113 52.6881 287.867 52.5913 287.614 52.5257C287.117 52.3977 286.59 52.4227 286.078 52.3727C285.996 52.3665 285.915 52.354 285.834 52.3415C284.504 52.1354 283.549 51.7233 282.69 50.6774C281.678 49.441 281.56 47.7799 282.297 46.5279L281.722 46.1626C281.391 45.9503 281.01 45.8348 280.626 45.8192C280.23 46.3531 279.98 47.0556 279.889 47.6988C279.661 49.3442 280.305 50.9989 281.488 52.1073C282.702 53.2438 284.092 53.2875 285.562 53.8339C285.7 53.8839 285.84 53.937 285.978 53.9963C286.368 54.1586 286.761 54.3553 287.077 54.6082C287.292 54.78 287.467 54.9829 287.614 55.2046C288.241 54.4209 288.775 53.734 288.81 53.6903L288.341 52.8036L288.344 52.8067ZM282.709 65.6078C282.247 64.3215 282.924 62.6604 283.233 61.3991C283.72 59.4133 284.145 57.1372 282.637 55.4856C281.376 54.1056 279.743 53.172 278.266 52.0386C277.095 51.1394 276.458 49.3254 276.639 47.8736C276.698 47.3865 276.87 46.9432 277.07 46.5123L275.356 46.8839L273.632 47.2554C272.971 47.399 272.371 47.7425 271.912 48.242L271.206 49.0101C271.078 49.1475 270.96 49.2911 270.851 49.4378C271.413 50.0498 272.256 50.5525 272.711 50.8366C274.785 52.1167 277.345 52.6943 279.071 54.5271C280.907 56.4753 281.191 59.2291 280.326 61.6645C279.608 63.6845 278.812 66.7693 279.905 68.8737C281.154 68.8456 282.628 68.8674 284.314 68.9798L284.694 68.8768V67.8215C283.795 67.425 283.108 66.7037 282.712 65.6047L282.709 65.6078Z" fill="#FC4C4C"/>
<path d="M275.865 58.9575C275.909 57.693 274.944 56.7032 273.729 56.594C273.511 56.5752 273.289 56.5846 273.064 56.6221C272.568 56.7064 271.981 56.8937 271.435 57.1279C272.068 57.2559 272.743 57.3558 273.42 57.412C273.277 57.771 273.18 57.9927 273.18 57.9927C273.077 57.9927 272.977 57.9927 272.877 57.9927C272.877 57.9927 272.915 59.9691 272.324 63.3005C272.306 63.4098 272.287 63.519 272.271 63.6283C272.699 63.0819 273.252 62.6074 273.851 62.1546C275.019 61.2742 275.809 60.5092 275.862 58.9575H275.865ZM287.08 54.6113C286.762 54.3584 286.368 54.1586 285.981 53.9994C285.841 53.9401 285.7 53.887 285.566 53.837C284.095 53.2906 282.706 53.2469 281.491 52.1104C280.308 51.0021 279.668 49.3473 279.893 47.7019C279.98 47.0587 280.233 46.3562 280.63 45.8223C280.548 45.8161 280.461 45.8161 280.38 45.8223C280.274 45.8285 280.161 45.8442 280.058 45.866L277.073 46.5123C276.877 46.9432 276.702 47.3865 276.643 47.8736C276.461 49.3254 277.098 51.1363 278.269 52.0386C279.746 53.1751 281.382 54.1055 282.64 55.4856C284.145 57.1372 283.724 59.4133 283.237 61.3991C282.928 62.6604 282.25 64.3214 282.712 65.6078C283.109 66.7068 283.799 67.4281 284.695 67.8246V64.3246C284.695 63.7969 284.742 63.2755 284.835 62.7541L285.497 59.0668L285.647 58.23C285.697 57.9584 285.734 57.6899 285.766 57.4151C286.118 57.0623 286.927 56.0757 287.62 55.2077C287.474 54.986 287.299 54.7862 287.083 54.6113H287.08ZM285.834 52.3384C285.916 52.3509 285.997 52.3602 286.078 52.3696C286.59 52.4195 287.118 52.3946 287.614 52.5226C287.87 52.5913 288.114 52.6849 288.345 52.8036L286.887 50.0529C286.531 49.3847 285.997 48.829 285.338 48.4512L282.297 46.5217C281.56 47.7768 281.679 49.4378 282.69 50.6711C283.549 51.717 284.504 52.1261 285.834 52.3352V52.3384ZM272.712 50.8366C272.256 50.5556 271.413 50.0498 270.851 49.4378C270.529 49.8593 270.261 50.3183 270.055 50.8085L269.18 52.8879C269.811 53.7777 270.895 54.4365 271.831 54.7362C272.587 54.9798 273.402 55.0391 274.182 55.189C274.572 55.2639 274.953 55.3607 275.316 55.5137C276.355 55.9477 277.229 56.9998 277.679 58.0114C278.188 59.1604 278.194 60.784 277.617 61.9017C277.061 62.9758 276.049 63.5877 275.281 64.4713C274.479 65.3924 273.82 66.2697 273.567 67.4905C273.424 68.193 273.424 68.8143 273.558 69.3888L274.288 69.3326C274.42 69.3201 274.544 69.3607 274.644 69.4356C274.719 69.4138 276.496 68.9548 279.905 68.8768C278.812 66.7724 279.609 63.6908 280.327 61.6676C281.192 59.2322 280.907 56.4784 279.072 54.5302C277.345 52.6974 274.785 52.1167 272.712 50.8397V50.8366Z" fill="#FF654B"/>
<path d="M271.435 57.131C269.424 56.7376 267.819 56.1256 267.819 56.1256L267.598 56.6533C267.504 56.8718 267.607 57.1247 267.829 57.2153C267.975 57.2746 268.169 57.3464 268.409 57.4182C268.846 57.5525 269.446 57.6961 270.23 57.8054C270.408 57.8335 270.592 57.8553 270.788 57.8772C271.304 57.9334 271.891 57.974 272.549 57.9896C272.656 57.9896 272.768 57.9927 272.88 57.9958C272.98 57.9958 273.08 57.9958 273.183 57.9958C273.183 57.9958 273.28 57.7742 273.424 57.4151C272.746 57.3589 272.072 57.259 271.438 57.131H271.435Z" fill="#BC1B1B"/>
<path d="M275.135 42.085C275.425 42.0944 275.709 42.0319 275.924 41.8789C276.134 41.7166 276.274 41.4762 276.34 41.2139C276.393 40.961 276.418 40.6644 276.308 40.4302C276.205 40.1898 275.953 40.0275 275.675 39.9494C275.821 39.9494 275.965 39.9869 276.102 40.0493C276.237 40.1149 276.362 40.2242 276.44 40.3616C276.521 40.4958 276.555 40.655 276.565 40.808C276.571 40.883 276.558 40.9579 276.558 41.0359C276.558 41.1109 276.543 41.1921 276.524 41.2639C276.446 41.5574 276.274 41.8415 276.006 42.0038C275.734 42.1631 275.409 42.1693 275.135 42.085Z" fill="#C46627"/>
<path d="M289.291 59.8723C289.11 60.1283 288.941 60.3843 288.766 60.6404C288.607 60.9057 288.429 61.1586 288.267 61.4178C287.945 61.9423 287.658 62.4825 287.393 63.0507C287.511 62.4356 287.78 61.8549 288.101 61.3179C288.27 61.0525 288.457 60.8027 288.645 60.5498C288.841 60.3063 289.054 60.0752 289.288 59.8692L289.291 59.8723Z" fill="#C46627"/>
<path d="M282.072 72.4954C282.138 73.3166 282.088 74.144 281.976 74.9589C281.863 75.7769 281.66 76.5824 281.389 77.363C281.104 78.1404 280.739 78.8897 280.265 79.5704C280.152 79.7421 280.009 79.9013 279.909 80.0668C279.806 80.2385 279.756 80.4227 279.737 80.6319C279.675 81.0378 279.621 81.4437 279.553 81.8496C279.578 81.4406 279.612 81.0316 279.643 80.6194C279.653 80.4165 279.699 80.1948 279.803 80.0075C279.852 79.9107 279.918 79.8264 279.974 79.7421C280.034 79.6578 280.09 79.5735 280.143 79.4892C280.583 78.8054 280.945 78.0686 281.211 77.3005C281.495 76.5356 281.691 75.7425 281.832 74.937C281.904 74.5342 281.96 74.1283 282.001 73.7225C282.044 73.3166 282.069 72.9076 282.075 72.4954H282.072Z" fill="#002F68"/>
<path d="M286.915 68.9829C286.649 68.9267 286.409 68.8393 286.166 68.7613C285.922 68.6801 285.691 68.5989 285.426 68.5458C285.554 68.4927 285.694 68.4865 285.831 68.4959C285.969 68.5052 286.1 68.5396 286.228 68.5802C286.356 68.6239 286.478 68.677 286.593 68.7456C286.709 68.8112 286.821 68.8861 286.918 68.9861L286.915 68.9829Z" fill="#C46627"/>
<path d="M273.958 70.4223C273.814 70.4566 273.671 70.4816 273.53 70.5128C273.383 70.5378 273.249 70.5597 273.121 70.6127C273.059 70.6377 272.996 70.6689 272.937 70.7033L272.746 70.8126L272.362 71.0218C272.231 71.0873 272.109 71.1623 271.96 71.2153C271.813 71.2653 271.657 71.2903 271.504 71.2871C271.348 71.2871 271.204 71.2497 271.063 71.2247C270.92 71.1935 270.776 71.1685 270.636 71.131C270.782 71.1248 270.929 71.131 271.073 71.131C271.22 71.131 271.366 71.1466 271.501 71.1373C271.638 71.1248 271.772 71.0967 271.897 71.0436C272.019 70.9968 272.147 70.9187 272.275 70.85L272.662 70.6502L272.859 70.5534C272.927 70.5191 272.999 70.491 273.074 70.4691C273.221 70.4223 273.38 70.4192 273.521 70.4192C273.667 70.4192 273.811 70.416 273.958 70.4223Z" fill="#C46627"/>
<path d="M280.848 36.0841C280.602 36.0029 280.411 35.8 280.364 35.544C280.049 33.8018 278.507 33.3553 277.864 33.246C277.689 33.2148 277.583 33.2085 277.583 33.2085C276.371 33.0368 275.456 33.1024 274.769 33.2866C273.649 33.5832 273.13 34.192 272.899 34.6042C272.768 34.8477 272.731 35.0163 272.731 35.0163C272.731 35.0163 272.315 36.5025 273.074 36.7054C273.168 36.7273 273.283 36.7335 273.417 36.7117C273.417 36.7117 274.354 36.3214 274.354 36.8241L273.798 38.2603C273.73 38.4351 273.748 38.6318 273.845 38.7911L274.07 39.1595C274.151 39.2906 274.198 39.4405 274.201 39.5966L274.223 40.1773C274.226 40.3085 274.279 40.4302 274.367 40.5208C274.454 40.6145 274.57 40.6738 274.701 40.6863C274.963 40.7144 275.203 40.5426 275.269 40.2897L275.291 40.1961C275.335 40.0275 275.497 39.9182 275.672 39.9432C275.996 39.9963 276.465 40.1805 276.474 40.8361C276.549 40.9548 276.727 41.4387 276.814 41.6823C276.849 41.7759 276.864 41.8758 276.868 41.9757C276.886 42.5908 277.021 43.0997 277.161 43.4713C277.236 43.668 277.345 43.8459 277.489 43.9958C277.736 44.2674 278.076 44.4485 278.454 44.4891C278.588 44.5047 278.716 44.5047 278.841 44.4923C279.153 44.4642 279.425 44.3642 279.64 44.2487C279.687 44.2206 279.737 44.1925 279.781 44.1613C280.03 43.9833 280.211 43.7242 280.289 43.4213C280.396 42.9998 280.62 42.4191 280.792 42.007C280.895 41.7541 281.02 41.5137 281.186 41.2951C281.295 41.1515 281.398 40.9829 281.492 40.8112C281.719 40.3959 281.894 39.9401 281.994 39.6622C282.057 39.4842 282.1 39.2969 282.125 39.1095C282.406 36.9271 281.438 36.2714 280.845 36.0747L280.848 36.0841Z" fill="#103772"/>
<path d="M281.523 40.7737C281.551 39.9307 281.442 39.1158 281.195 38.4008C281.054 37.9887 280.77 37.5797 280.352 37.1894C280.28 37.1207 280.202 37.0614 280.127 37.0052C279.971 36.8865 279.824 36.7741 279.734 36.5899C279.574 36.2746 279.512 35.9311 279.453 35.6002C279.368 35.1381 279.281 34.6635 278.947 34.242C278.666 33.8892 278.276 33.5145 277.92 33.2554L277.81 33.2366C277.81 33.2366 277.835 33.2523 277.851 33.2616C278.285 33.5738 278.681 33.986 278.913 34.2732C279.24 34.6854 279.328 35.1537 279.409 35.6095C279.471 35.9436 279.537 36.2902 279.693 36.6118C279.787 36.8053 279.94 36.9209 280.102 37.0426C280.177 37.102 280.252 37.1582 280.324 37.2237C280.736 37.6109 281.014 38.0136 281.151 38.4164C281.398 39.1345 281.51 39.965 281.476 40.8174C281.476 40.833 281.476 40.8486 281.476 40.8642L281.526 40.7706L281.523 40.7737ZM278.878 44.4954C279.568 43.3932 279.94 41.7884 279.793 40.4958C279.684 39.5123 279.459 38.3946 278.622 37.564C278.557 37.4954 278.494 37.436 278.435 37.383C278.166 37.1269 278.001 36.9739 277.929 36.5587C277.917 36.4838 277.904 36.4119 277.888 36.3401C277.773 35.6657 277.651 34.9695 277.111 34.4949C276.524 33.9766 275.837 33.5988 275.01 33.3303C274.941 33.3053 274.879 33.2866 274.816 33.271L274.722 33.296C274.722 33.296 274.747 33.3022 274.763 33.3053C274.838 33.3209 274.913 33.3459 274.994 33.3709C275.815 33.6332 276.496 34.011 277.077 34.5261C277.604 34.9882 277.723 35.6751 277.838 36.3401C277.851 36.4151 277.863 36.4838 277.879 36.5587C277.954 36.9896 278.126 37.1457 278.4 37.4079C278.46 37.4641 278.519 37.5203 278.588 37.589C279.05 38.048 279.549 38.7536 279.743 40.4927C279.887 41.779 279.515 43.3807 278.822 44.4766C278.822 44.4829 278.813 44.486 278.813 44.4923L278.875 44.486L278.878 44.4954ZM277.514 44.0208C277.514 44.0208 277.514 44.0146 277.514 44.0114C278.251 42.5409 278.288 40.808 277.629 39.1345C277.467 38.7286 277.289 38.407 276.952 38.1541C276.892 38.1104 276.824 38.0761 276.755 38.0417C276.627 37.9793 276.499 37.9137 276.43 37.7888C276.318 37.589 276.337 37.283 276.352 36.9896C276.362 36.7835 276.374 36.5899 276.343 36.4338C276.218 35.8187 275.793 35.0475 275.122 34.7072C274.526 34.4075 273.792 34.3419 273.058 34.5292C273.024 34.5386 272.98 34.5542 272.915 34.5761V34.5854L272.88 34.6448C272.89 34.6385 272.896 34.6354 272.905 34.6354C272.98 34.6073 273.033 34.5917 273.068 34.5792C273.792 34.3981 274.513 34.4574 275.1 34.754C275.759 35.0881 276.174 35.8468 276.296 36.4494C276.324 36.5993 276.315 36.7897 276.305 36.9927C276.287 37.2924 276.271 37.6046 276.39 37.8169C276.465 37.9543 276.602 38.023 276.736 38.0917C276.805 38.126 276.871 38.1573 276.927 38.201C277.258 38.4476 277.426 38.7505 277.589 39.1626C278.244 40.8205 278.204 42.5346 277.479 43.9896L277.517 44.0302L277.514 44.0208Z" fill="#0F55BA"/>
<path d="M285.981 53.9994C285.987 54.6394 285.956 55.2764 285.912 55.9133C285.875 56.5502 285.806 57.1841 285.734 57.8179C285.656 58.4517 285.569 59.0824 285.453 59.7099C285.341 60.3375 285.213 60.9651 285.044 61.5801C285.066 61.2617 285.107 60.9463 285.132 60.6279L285.235 59.6787C285.297 59.0449 285.379 58.4142 285.45 57.7835C285.528 57.1528 285.603 56.5221 285.694 55.8915L285.825 54.9454C285.878 54.6301 285.922 54.3147 285.978 53.9994H285.981Z" fill="#840606"/>
<path d="M273.18 57.9958C273.308 57.3058 273.517 56.6439 273.745 55.9882C273.983 55.3357 274.242 54.6925 274.582 54.0774C274.454 54.7674 274.245 55.4294 274.017 56.085C273.78 56.7376 273.52 57.3807 273.18 57.9958Z" fill="#840606"/>
</g>
<path d="M25.3215 34.7923V23.667H21.8905V22.1383H30.383V23.667H27.003V34.7923H25.3215ZM31.8006 34.7923V21.9345H33.3802V27.4207L33.0915 27.2679C33.318 26.6904 33.6803 26.2431 34.1786 25.926C34.6881 25.5976 35.2826 25.4335 35.962 25.4335C36.6188 25.4335 37.2019 25.5807 37.7115 25.8751C38.2323 26.1695 38.64 26.5771 38.9344 27.098C39.2401 27.6189 39.393 28.2077 39.393 28.8645V34.7923H37.7964V29.374C37.7964 28.8645 37.7001 28.4342 37.5076 28.0831C37.3265 27.7321 37.0717 27.4604 36.7433 27.2679C36.4149 27.064 36.0356 26.9621 35.6053 26.9621C35.1863 26.9621 34.807 27.064 34.4673 27.2679C34.1276 27.4604 33.8615 27.7378 33.669 28.1001C33.4765 28.4512 33.3802 28.8758 33.3802 29.374V34.7923H31.8006ZM41.6534 34.7923V25.6373H43.233V34.7923H41.6534ZM41.6534 24.1766V22.1383H43.233V24.1766H41.6534ZM45.684 34.7923V25.6373H47.2297V27.4207L46.9749 27.2679C47.2014 26.6904 47.5637 26.2431 48.0619 25.926C48.5715 25.5976 49.166 25.4335 49.8454 25.4335C50.5021 25.4335 51.0853 25.5807 51.5948 25.8751C52.1157 26.1695 52.5234 26.5771 52.8178 27.098C53.1235 27.6189 53.2764 28.2077 53.2764 28.8645V34.7923H51.6798V29.374C51.6798 28.8645 51.5892 28.4342 51.408 28.0831C51.2268 27.7321 50.9664 27.4604 50.6267 27.2679C50.2983 27.064 49.919 26.9621 49.4887 26.9621C49.0584 26.9621 48.6734 27.064 48.3337 27.2679C48.0053 27.4604 47.7449 27.7378 47.5524 28.1001C47.3599 28.4512 47.2636 28.8758 47.2636 29.374V34.7923H45.684ZM55.5367 34.7923V21.9345H57.1163V30.7498L56.4709 30.5969L61.3287 25.6373H63.3499L59.834 29.3231L63.5877 34.7923H61.7193L58.2883 29.8326L59.2735 29.7817L56.6068 32.5672L57.1163 31.4122V34.7923H55.5367ZM65.008 34.7923V25.6373H66.5876V34.7923H65.008ZM65.008 24.1766V22.1383H66.5876V24.1766H65.008ZM69.0386 34.7923V25.6373H70.5843V27.4207L70.3295 27.2679C70.556 26.6904 70.9183 26.2431 71.4165 25.926C71.9261 25.5976 72.5206 25.4335 73.2 25.4335C73.8567 25.4335 74.4399 25.5807 74.9494 25.8751C75.4703 26.1695 75.878 26.5771 76.1724 27.098C76.4781 27.6189 76.631 28.2077 76.631 28.8645V34.7923H75.0344V29.374C75.0344 28.8645 74.9438 28.4342 74.7626 28.0831C74.5814 27.7321 74.321 27.4604 73.9813 27.2679C73.6529 27.064 73.2736 26.9621 72.8433 26.9621C72.413 26.9621 72.028 27.064 71.6883 27.2679C71.3599 27.4604 71.0995 27.7378 70.907 28.1001C70.7145 28.4512 70.6182 28.8758 70.6182 29.374V34.7923H69.0386ZM83.2565 38.529C82.6111 38.529 82.0109 38.4271 81.4561 38.2233C80.9126 38.0195 80.4426 37.7364 80.0463 37.374C79.6613 37.023 79.3669 36.6097 79.1631 36.1341L80.6408 35.4547C80.7993 35.885 81.0994 36.2473 81.541 36.5418C81.994 36.8475 82.5601 37.0004 83.2395 37.0004C83.7604 37.0004 84.2303 36.8984 84.6493 36.6946C85.0796 36.5021 85.4193 36.2077 85.6684 35.8114C85.9175 35.4264 86.0421 34.9565 86.0421 34.4016V32.3464L86.3308 32.6522C86.0138 33.2749 85.5552 33.7505 84.955 34.0789C84.3662 34.4073 83.7151 34.5715 83.0017 34.5715C82.1412 34.5715 81.3712 34.3733 80.6918 33.977C80.0123 33.5694 79.4801 33.0202 79.0951 32.3294C78.7102 31.6274 78.5177 30.8517 78.5177 30.0025C78.5177 29.1419 78.7102 28.3662 79.0951 27.6755C79.4801 26.9848 80.0067 26.4412 80.6748 26.0449C81.3542 25.6373 82.1242 25.4335 82.9848 25.4335C83.6981 25.4335 84.3436 25.5976 84.9211 25.926C85.5099 26.2431 85.9798 26.6847 86.3308 27.2509L86.093 27.6755V25.6373H87.6387V34.4016C87.6387 35.1943 87.4518 35.902 87.0782 36.5248C86.7045 37.1476 86.1836 37.6345 85.5155 37.9855C84.8588 38.3478 84.1058 38.529 83.2565 38.529ZM83.1376 33.0428C83.6811 33.0428 84.1681 32.9069 84.5983 32.6352C85.04 32.3634 85.391 32.0011 85.6514 31.5481C85.9119 31.0839 86.0421 30.5686 86.0421 30.0025C86.0421 29.4476 85.9119 28.9381 85.6514 28.4738C85.391 28.0095 85.04 27.6415 84.5983 27.3698C84.1681 27.098 83.6811 26.9621 83.1376 26.9621C82.5828 26.9621 82.0789 27.098 81.6259 27.3698C81.173 27.6415 80.8163 28.0095 80.5559 28.4738C80.3068 28.9267 80.1822 29.4363 80.1822 30.0025C80.1822 30.5686 80.3068 31.0839 80.5559 31.5481C80.8163 32.0011 81.1673 32.3634 81.609 32.6352C82.0619 32.9069 82.5714 33.0428 83.1376 33.0428ZM97.3717 34.9961C96.4885 34.9961 95.6902 34.7923 94.9768 34.3846C94.2634 33.9657 93.6973 33.3938 93.2783 32.6691C92.8593 31.9444 92.6498 31.1235 92.6498 30.2063C92.6498 29.2891 92.8537 28.4738 93.2613 27.7604C93.6803 27.047 94.2464 26.4809 94.9598 26.0619C95.6732 25.6429 96.4772 25.4335 97.3717 25.4335C98.2549 25.4335 99.0532 25.6429 99.7666 26.0619C100.48 26.4696 101.041 27.0301 101.448 27.7434C101.867 28.4568 102.077 29.2778 102.077 30.2063C102.077 31.1348 101.861 31.9614 101.431 32.6861C101.001 33.3995 100.429 33.9657 99.7157 34.3846C99.0136 34.7923 98.2323 34.9961 97.3717 34.9961ZM97.3717 33.4674C97.9379 33.4674 98.4474 33.3259 98.9004 33.0428C99.3646 32.7597 99.727 32.3691 99.9874 31.8708C100.259 31.3726 100.395 30.8178 100.395 30.2063C100.395 29.5835 100.259 29.0343 99.9874 28.5587C99.727 28.0718 99.3646 27.6868 98.9004 27.4037C98.4474 27.1093 97.9379 26.9621 97.3717 26.9621C96.7942 26.9621 96.2733 27.1093 95.8091 27.4037C95.3561 27.6868 94.9938 28.0718 94.722 28.5587C94.4503 29.0343 94.3144 29.5835 94.3144 30.2063C94.3144 30.8178 94.4503 31.3726 94.722 31.8708C94.9938 32.3691 95.3561 32.7597 95.8091 33.0428C96.2733 33.3259 96.7942 33.4674 97.3717 33.4674ZM104.823 34.7923V27.149H103.074V25.6373H104.823V24.9918C104.823 24.3351 104.965 23.7802 105.248 23.3273C105.542 22.8744 105.927 22.529 106.403 22.2912C106.89 22.0534 107.427 21.9345 108.016 21.9345C108.141 21.9345 108.277 21.9458 108.424 21.9685C108.582 21.9798 108.713 21.9968 108.815 22.0194V23.4292C108.724 23.4066 108.616 23.3952 108.492 23.3952C108.367 23.3839 108.271 23.3783 108.203 23.3783C107.682 23.3783 107.252 23.5028 106.912 23.7519C106.584 24.001 106.42 24.4143 106.42 24.9918V25.6373H108.594V27.149H106.42V34.7923H104.823ZM113.44 34.7923V22.1383H121.949V24.4313H116.073V27.3018H121.61V29.5948H116.073V32.4993H121.949V34.7923H113.44ZM126.839 34.7923L122.508 22.1383H125.395L128.656 32.2955H128.079L131.34 22.1383H134.227L129.896 34.7923H126.839ZM135.534 34.7923V22.1383H144.043V24.4313H138.166V27.3018H143.704V29.5948H138.166V32.4993H144.043V34.7923H135.534ZM145.536 34.7923V22.1383H147.557L154.351 31.0895L153.264 31.3443V22.1383H155.897V34.7923H153.859L147.183 25.7732L148.169 25.5184V34.7923H145.536ZM160.418 34.7923V24.4313H157.208V22.1383H166.21V24.4313H163.051V34.7923H160.418ZM172.117 34.9961C171.324 34.9961 170.577 34.8546 169.875 34.5715C169.184 34.2771 168.584 33.8638 168.074 33.3316C167.576 32.7994 167.202 32.1709 166.953 31.4462L169.11 30.4781C169.427 31.1688 169.863 31.7123 170.418 32.1086C170.984 32.5049 171.607 32.7031 172.287 32.7031C172.649 32.7031 172.96 32.6465 173.221 32.5333C173.481 32.42 173.685 32.2672 173.832 32.0747C173.979 31.8708 174.053 31.633 174.053 31.3613C174.053 31.0669 173.962 30.8178 173.781 30.6139C173.6 30.3988 173.317 30.2289 172.932 30.1044L170.452 29.2891C169.444 28.9607 168.686 28.4964 168.176 27.8963C167.667 27.2848 167.412 26.5545 167.412 25.7052C167.412 24.9579 167.593 24.3011 167.955 23.7349C168.329 23.1688 168.844 22.7272 169.501 22.4101C170.169 22.093 170.933 21.9345 171.794 21.9345C172.553 21.9345 173.255 22.0647 173.9 22.3252C174.546 22.5856 175.1 22.9536 175.565 23.4292C176.04 23.9048 176.397 24.4766 176.635 25.1447L174.495 26.1129C174.257 25.524 173.9 25.0654 173.425 24.7371C172.949 24.3974 172.405 24.2275 171.794 24.2275C171.443 24.2275 171.132 24.2841 170.86 24.3974C170.588 24.5106 170.379 24.6748 170.231 24.8899C170.084 25.0938 170.01 25.3315 170.01 25.6033C170.01 25.8977 170.107 26.1582 170.299 26.3846C170.492 26.5998 170.78 26.7696 171.165 26.8942L173.594 27.6755C174.613 28.0039 175.372 28.4625 175.87 29.0513C176.38 29.6401 176.635 30.3592 176.635 31.2084C176.635 31.9444 176.442 32.6012 176.057 33.1787C175.672 33.7449 175.14 34.1921 174.461 34.5205C173.793 34.8376 173.011 34.9961 172.117 34.9961ZM25.4403 61.7923L21.8905 49.1383H23.6399L26.6123 60.2806H26.2047L29.296 49.1383H31.0455L34.1198 60.2806H33.6951L36.6845 49.1383H38.434L34.8841 61.7923H33.0327L29.9414 50.701H30.383L27.2917 61.7923H25.4403ZM43.4274 61.9961C42.5441 61.9961 41.7572 61.7866 41.0664 61.3677C40.3757 60.9487 39.8322 60.3769 39.4359 59.6522C39.0395 58.9161 38.8414 58.0952 38.8414 57.1893C38.8414 56.2721 39.0339 55.4568 39.4189 54.7434C39.8152 54.0301 40.3474 53.4696 41.0155 53.0619C41.6949 52.6429 42.4536 52.4335 43.2915 52.4335C43.9709 52.4335 44.571 52.558 45.0919 52.8071C45.6241 53.0449 46.0714 53.3733 46.4337 53.7923C46.8074 54.1999 47.0905 54.6698 47.283 55.202C47.4868 55.7229 47.5887 56.2664 47.5887 56.8326C47.5887 56.9572 47.5774 57.0987 47.5548 57.2572C47.5434 57.4044 47.5265 57.546 47.5038 57.6819H39.9964V56.3231H46.5866L45.8393 56.9345C45.9412 56.3457 45.8846 55.8192 45.6694 55.3549C45.4543 54.8906 45.1372 54.5226 44.7182 54.2509C44.2993 53.9791 43.8237 53.8432 43.2915 53.8432C42.7593 53.8432 42.2724 53.9791 41.8308 54.2509C41.3892 54.5226 41.0438 54.9133 40.7947 55.4228C40.5569 55.9211 40.4606 56.5156 40.5059 57.2063C40.4606 57.8744 40.5625 58.4632 40.8117 58.9727C41.0721 59.471 41.4344 59.8616 41.8987 60.1447C42.3743 60.4165 42.8895 60.5524 43.4444 60.5524C44.0558 60.5524 44.571 60.4108 44.99 60.1277C45.409 59.8447 45.7487 59.4823 46.0091 59.0407L47.334 59.7201C47.1528 60.1391 46.8697 60.5241 46.4847 60.8751C46.111 61.2148 45.6638 61.4865 45.1429 61.6904C44.6333 61.8942 44.0615 61.9961 43.4274 61.9961ZM52.5842 61.7923V48.9345H54.1639V54.4207L53.8751 54.2679C54.1016 53.6904 54.4639 53.2431 54.9622 52.926C55.4717 52.5976 56.0662 52.4335 56.7456 52.4335C57.4024 52.4335 57.9855 52.5807 58.4951 52.8751C59.0159 53.1695 59.4236 53.5771 59.718 54.098C60.0237 54.6189 60.1766 55.2077 60.1766 55.8645V61.7923H58.58V56.374C58.58 55.8645 58.4837 55.4342 58.2912 55.0831C58.1101 54.7321 57.8553 54.4604 57.5269 54.2679C57.1985 54.064 56.8192 53.9621 56.3889 53.9621C55.9699 53.9621 55.5906 54.064 55.2509 54.2679C54.9112 54.4604 54.6451 54.7378 54.4526 55.1001C54.2601 55.4512 54.1639 55.8758 54.1639 56.374V61.7923H52.5842ZM65.1206 61.9961C64.5205 61.9961 63.9883 61.8885 63.524 61.6734C63.0711 61.4469 62.7144 61.1412 62.4539 60.7562C62.1935 60.3599 62.0633 59.9069 62.0633 59.3974C62.0633 58.9105 62.1652 58.4745 62.369 58.0895C62.5842 57.6932 62.9125 57.3592 63.3542 57.0874C63.8071 56.8156 64.3733 56.6231 65.0527 56.5099L68.4497 55.9494V57.2742L65.4094 57.7838C64.8205 57.8857 64.3902 58.0725 64.1185 58.3443C63.858 58.6161 63.7278 58.9501 63.7278 59.3464C63.7278 59.7201 63.875 60.0315 64.1694 60.2806C64.4752 60.5297 64.8545 60.6543 65.3074 60.6543C65.8849 60.6543 66.3832 60.5354 66.8021 60.2976C67.2324 60.0485 67.5665 59.7144 67.8043 59.2955C68.0534 58.8765 68.1779 58.4122 68.1779 57.9027V55.5757C68.1779 55.0775 67.9911 54.6755 67.6174 54.3698C67.2551 54.0527 66.7738 53.8942 66.1737 53.8942C65.6528 53.8942 65.1885 54.0301 64.7809 54.3018C64.3846 54.5623 64.0902 54.9133 63.8977 55.3549L62.5219 54.6415C62.6917 54.2226 62.9635 53.8489 63.3372 53.5205C63.7108 53.1808 64.1468 52.9147 64.645 52.7222C65.1433 52.5297 65.6641 52.4335 66.2077 52.4335C66.9097 52.4335 67.5268 52.5693 68.059 52.8411C68.5912 53.1015 69.0045 53.4696 69.299 53.9451C69.6047 54.4094 69.7576 54.9529 69.7576 55.5757V61.7923H68.2119V60.0598L68.5007 60.1617C68.3082 60.5241 68.0477 60.8411 67.7193 61.1129C67.391 61.3846 67.006 61.5998 66.5643 61.7583C66.1227 61.9168 65.6415 61.9961 65.1206 61.9961ZM74.5886 61.7923L71.0048 52.6373H72.7712L75.6417 60.3825H75.0303L77.9177 52.6373H79.6842L76.0833 61.7923H74.5886ZM88.3985 65.529C87.7531 65.529 87.1529 65.4271 86.5981 65.2233C86.0546 65.0195 85.5846 64.7364 85.1883 64.374C84.8033 64.023 84.5089 63.6097 84.3051 63.1341L85.7828 62.4547C85.9413 62.885 86.2414 63.2473 86.683 63.5418C87.1359 63.8475 87.7021 64.0004 88.3815 64.0004C88.9024 64.0004 89.3723 63.8984 89.7913 63.6946C90.2216 63.5021 90.5613 63.2077 90.8104 62.8114C91.0595 62.4264 91.1841 61.9565 91.1841 61.4016V59.3464L91.4728 59.6522C91.1558 60.2749 90.6972 60.7505 90.097 61.0789C89.5082 61.4073 88.8571 61.5715 88.1437 61.5715C87.2832 61.5715 86.5132 61.3733 85.8337 60.977C85.1543 60.5694 84.6221 60.0202 84.2371 59.3294C83.8521 58.6274 83.6596 57.8517 83.6596 57.0025C83.6596 56.1419 83.8521 55.3662 84.2371 54.6755C84.6221 53.9848 85.1487 53.4412 85.8168 53.0449C86.4962 52.6373 87.2662 52.4335 88.1267 52.4335C88.8401 52.4335 89.4856 52.5976 90.0631 52.926C90.6519 53.2431 91.1218 53.6847 91.4728 54.2509L91.235 54.6755V52.6373H92.7807V61.4016C92.7807 62.1943 92.5938 62.902 92.2202 63.5248C91.8465 64.1476 91.3256 64.6345 90.6575 64.9855C90.0008 65.3478 89.2478 65.529 88.3985 65.529ZM88.2796 60.0428C88.8231 60.0428 89.31 59.9069 89.7403 59.6352C90.182 59.3634 90.533 59.0011 90.7934 58.5481C91.0539 58.0839 91.1841 57.5686 91.1841 57.0025C91.1841 56.4476 91.0539 55.9381 90.7934 55.4738C90.533 55.0095 90.182 54.6415 89.7403 54.3698C89.31 54.098 88.8231 53.9621 88.2796 53.9621C87.7248 53.9621 87.2209 54.098 86.7679 54.3698C86.315 54.6415 85.9583 55.0095 85.6979 55.4738C85.4488 55.9267 85.3242 56.4363 85.3242 57.0025C85.3242 57.5686 85.4488 58.0839 85.6979 58.5481C85.9583 59.0011 86.3093 59.3634 86.7509 59.6352C87.2039 59.9069 87.7134 60.0428 88.2796 60.0428ZM99.5778 61.9961C98.6946 61.9961 97.8963 61.7923 97.1829 61.3846C96.4695 60.9657 95.9033 60.3938 95.4844 59.6691C95.0654 58.9444 94.8559 58.1235 94.8559 57.2063C94.8559 56.2891 95.0597 55.4738 95.4674 54.7604C95.8864 54.047 96.4525 53.4809 97.1659 53.0619C97.8793 52.6429 98.6832 52.4335 99.5778 52.4335C100.461 52.4335 101.259 52.6429 101.973 53.0619C102.686 53.4696 103.247 54.0301 103.654 54.7434C104.073 55.4568 104.283 56.2778 104.283 57.2063C104.283 58.1348 104.068 58.9614 103.637 59.6861C103.207 60.3995 102.635 60.9657 101.922 61.3846C101.22 61.7923 100.438 61.9961 99.5778 61.9961ZM99.5778 60.4674C100.144 60.4674 100.654 60.3259 101.106 60.0428C101.571 59.7597 101.933 59.3691 102.194 58.8708C102.465 58.3726 102.601 57.8178 102.601 57.2063C102.601 56.5835 102.465 56.0343 102.194 55.5587C101.933 55.0718 101.571 54.6868 101.106 54.4037C100.654 54.1093 100.144 53.9621 99.5778 53.9621C99.0003 53.9621 98.4794 54.1093 98.0152 54.4037C97.5622 54.6868 97.1999 55.0718 96.9281 55.5587C96.6563 56.0343 96.5205 56.5835 96.5205 57.2063C96.5205 57.8178 96.6563 58.3726 96.9281 58.8708C97.1999 59.3691 97.5622 59.7597 98.0152 60.0428C98.4794 60.3259 99.0003 60.4674 99.5778 60.4674ZM109.897 61.8942C109.002 61.8942 108.312 61.6394 107.825 61.1299C107.349 60.6203 107.111 59.9013 107.111 58.9727V54.149H105.447V52.6373H105.786C106.194 52.6373 106.517 52.5127 106.755 52.2636C106.992 52.0145 107.111 51.6861 107.111 51.2785V50.5311H108.691V52.6373H110.746V54.149H108.691V58.9218C108.691 59.2275 108.736 59.4936 108.827 59.7201C108.929 59.9466 109.093 60.1277 109.319 60.2636C109.546 60.3882 109.846 60.4505 110.22 60.4505C110.299 60.4505 110.395 60.4448 110.508 60.4335C110.633 60.4221 110.746 60.4108 110.848 60.3995V61.7923C110.701 61.8263 110.537 61.8489 110.355 61.8602C110.174 61.8829 110.021 61.8942 109.897 61.8942ZM23.4191 86.529C23.2153 86.529 23.0115 86.512 22.8076 86.4781C22.6038 86.4554 22.4113 86.4045 22.2302 86.3252V84.9154C22.3547 84.9268 22.5076 84.9494 22.6888 84.9834C22.8813 85.0173 23.0681 85.0343 23.2493 85.0343C23.7815 85.0343 24.1834 84.9154 24.4552 84.6776C24.7383 84.4398 25.0044 84.0379 25.2535 83.4717L25.831 82.0959L25.797 83.4717L21.8905 73.6373H23.606L26.6463 81.4505H26.1367L29.1601 73.6373H30.9096L26.7822 83.8793C26.5897 84.3662 26.3406 84.8135 26.0348 85.2212C25.7404 85.6288 25.3781 85.9459 24.9478 86.1723C24.5175 86.4101 24.0079 86.529 23.4191 86.529ZM36.4972 82.9961C35.6139 82.9961 34.8156 82.7923 34.1023 82.3846C33.3889 81.9657 32.8227 81.3938 32.4037 80.6691C31.9848 79.9444 31.7753 79.1235 31.7753 78.2063C31.7753 77.2891 31.9791 76.4738 32.3867 75.7604C32.8057 75.047 33.3719 74.4809 34.0853 74.0619C34.7986 73.6429 35.6026 73.4335 36.4972 73.4335C37.3804 73.4335 38.1787 73.6429 38.8921 74.0619C39.6054 74.4696 40.166 75.0301 40.5736 75.7434C40.9926 76.4568 41.202 77.2778 41.202 78.2063C41.202 79.1348 40.9869 79.9614 40.5566 80.6861C40.1263 81.3995 39.5545 81.9657 38.8411 82.3846C38.1391 82.7923 37.3577 82.9961 36.4972 82.9961ZM36.4972 81.4674C37.0633 81.4674 37.5729 81.3259 38.0258 81.0428C38.4901 80.7597 38.8524 80.3691 39.1129 79.8708C39.3846 79.3726 39.5205 78.8178 39.5205 78.2063C39.5205 77.5835 39.3846 77.0343 39.1129 76.5587C38.8524 76.0718 38.4901 75.6868 38.0258 75.4037C37.5729 75.1093 37.0633 74.9621 36.4972 74.9621C35.9197 74.9621 35.3988 75.1093 34.9345 75.4037C34.4816 75.6868 34.1192 76.0718 33.8475 76.5587C33.5757 77.0343 33.4398 77.5835 33.4398 78.2063C33.4398 78.8178 33.5757 79.3726 33.8475 79.8708C34.1192 80.3691 34.4816 80.7597 34.9345 81.0428C35.3988 81.3259 35.9197 81.4674 36.4972 81.4674ZM46.5065 82.9961C45.8497 82.9961 45.2552 82.8432 44.723 82.5375C44.2021 82.2318 43.7945 81.8071 43.5001 81.2636C43.217 80.7088 43.0755 80.0747 43.0755 79.3613V73.6373H44.6551V79.1914C44.6551 79.6444 44.7457 80.0407 44.9268 80.3804C45.1193 80.7201 45.3798 80.9862 45.7082 81.1787C46.0479 81.3712 46.4329 81.4674 46.8632 81.4674C47.2934 81.4674 47.6728 81.3712 48.0012 81.1787C48.3409 80.9862 48.6013 80.7088 48.7825 80.3464C48.975 79.9841 49.0712 79.5538 49.0712 79.0555V73.6373H50.6678V82.7923H49.1222V81.0088L49.377 81.1617C49.1618 81.7392 48.7938 82.1921 48.2729 82.5205C47.7634 82.8376 47.1745 82.9961 46.5065 82.9961ZM60.2972 82.9961C59.4027 82.9961 58.6044 82.7866 57.9023 82.3677C57.2116 81.9487 56.6681 81.3769 56.2717 80.6522C55.8754 79.9275 55.6773 79.1122 55.6773 78.2063C55.6773 77.2891 55.8754 76.4738 56.2717 75.7604C56.6681 75.047 57.2116 74.4809 57.9023 74.0619C58.6044 73.6429 59.4027 73.4335 60.2972 73.4335C60.8974 73.4335 61.4579 73.541 61.9787 73.7562C62.4996 73.9713 62.9582 74.2601 63.3545 74.6224C63.7509 74.9848 64.0396 75.4094 64.2208 75.8963L62.811 76.5757C62.5959 76.1001 62.2675 75.7151 61.8259 75.4207C61.3843 75.115 60.8747 74.9621 60.2972 74.9621C59.7424 74.9621 59.2385 75.1037 58.7855 75.3868C58.3439 75.6698 57.9929 76.0548 57.7325 76.5417C57.472 77.0286 57.3418 77.5892 57.3418 78.2233C57.3418 78.8347 57.472 79.3896 57.7325 79.8878C57.9929 80.3747 58.3439 80.7597 58.7855 81.0428C59.2385 81.3259 59.7424 81.4674 60.2972 81.4674C60.8747 81.4674 61.3843 81.3202 61.8259 81.0258C62.2675 80.7201 62.5959 80.3181 62.811 79.8199L64.2208 80.5333C64.0396 81.0088 63.7509 81.4335 63.3545 81.8071C62.9582 82.1695 62.4996 82.4582 61.9787 82.6734C61.4579 82.8885 60.8974 82.9961 60.2972 82.9961ZM70.6334 82.9961C69.7501 82.9961 68.9518 82.7923 68.2384 82.3846C67.5251 81.9657 66.9589 81.3938 66.5399 80.6691C66.121 79.9444 65.9115 79.1235 65.9115 78.2063C65.9115 77.2891 66.1153 76.4738 66.5229 75.7604C66.9419 75.047 67.5081 74.4809 68.2215 74.0619C68.9348 73.6429 69.7388 73.4335 70.6334 73.4335C71.5166 73.4335 72.3149 73.6429 73.0283 74.0619C73.7416 74.4696 74.3022 75.0301 74.7098 75.7434C75.1288 76.4568 75.3382 77.2778 75.3382 78.2063C75.3382 79.1348 75.1231 79.9614 74.6928 80.6861C74.2625 81.3995 73.6907 81.9657 72.9773 82.3846C72.2753 82.7923 71.4939 82.9961 70.6334 82.9961ZM70.6334 81.4674C71.1995 81.4674 71.7091 81.3259 72.162 81.0428C72.6263 80.7597 72.9886 80.3691 73.2491 79.8708C73.5208 79.3726 73.6567 78.8178 73.6567 78.2063C73.6567 77.5835 73.5208 77.0343 73.2491 76.5587C72.9886 76.0718 72.6263 75.6868 72.162 75.4037C71.7091 75.1093 71.1995 74.9621 70.6334 74.9621C70.0559 74.9621 69.535 75.1093 69.0707 75.4037C68.6178 75.6868 68.2554 76.0718 67.9837 76.5587C67.7119 77.0343 67.576 77.5835 67.576 78.2063C67.576 78.8178 67.7119 79.3726 67.9837 79.8708C68.2554 80.3691 68.6178 80.7597 69.0707 81.0428C69.535 81.3259 70.0559 81.4674 70.6334 81.4674ZM79.7804 82.7923L76.1965 73.6373H77.963L80.8335 81.3825H80.222L83.1095 73.6373H84.8759L81.2751 82.7923H79.7804ZM90.3356 82.9961C89.4524 82.9961 88.6654 82.7866 87.9747 82.3677C87.2839 81.9487 86.7404 81.3769 86.3441 80.6522C85.9478 79.9161 85.7496 79.0952 85.7496 78.1893C85.7496 77.2721 85.9421 76.4568 86.3271 75.7434C86.7234 75.0301 87.2556 74.4696 87.9237 74.0619C88.6031 73.6429 89.3618 73.4335 90.1997 73.4335C90.8791 73.4335 91.4793 73.558 92.0002 73.8071C92.5324 74.0449 92.9796 74.3733 93.342 74.7923C93.7157 75.1999 93.9987 75.6698 94.1912 76.202C94.3951 76.7229 94.497 77.2664 94.497 77.8326C94.497 77.9572 94.4857 78.0987 94.463 78.2572C94.4517 78.4044 94.4347 78.546 94.4121 78.6819H86.9046V77.3231H93.4949L92.7475 77.9345C92.8494 77.3457 92.7928 76.8192 92.5777 76.3549C92.3625 75.8906 92.0455 75.5226 91.6265 75.2509C91.2075 74.9791 90.7319 74.8432 90.1997 74.8432C89.6675 74.8432 89.1806 74.9791 88.739 75.2509C88.2974 75.5226 87.952 75.9133 87.7029 76.4228C87.4651 76.9211 87.3689 77.5156 87.4142 78.2063C87.3689 78.8744 87.4708 79.4632 87.7199 79.9727C87.9803 80.471 88.3427 80.8616 88.8069 81.1447C89.2825 81.4165 89.7977 81.5524 90.3526 81.5524C90.9641 81.5524 91.4793 81.4108 91.8982 81.1277C92.3172 80.8447 92.6569 80.4823 92.9174 80.0407L94.2422 80.7201C94.061 81.1391 93.7779 81.5241 93.3929 81.8751C93.0193 82.2148 92.572 82.4865 92.0511 82.6904C91.5416 82.8942 90.9697 82.9961 90.3356 82.9961ZM96.5566 82.7923V73.6373H98.1022V75.3188L97.9324 75.081C98.1475 74.5601 98.4759 74.1751 98.9175 73.926C99.3591 73.6656 99.897 73.5354 100.531 73.5354H101.092V75.0301H100.293C99.6479 75.0301 99.127 75.2339 98.7307 75.6415C98.3343 76.0378 98.1362 76.604 98.1362 77.34V82.7923H96.5566ZM106.707 82.9961C105.824 82.9961 105.037 82.7866 104.346 82.3677C103.655 81.9487 103.112 81.3769 102.716 80.6522C102.319 79.9161 102.121 79.0952 102.121 78.1893C102.121 77.2721 102.314 76.4568 102.699 75.7434C103.095 75.0301 103.627 74.4696 104.295 74.0619C104.975 73.6429 105.733 73.4335 106.571 73.4335C107.251 73.4335 107.851 73.558 108.372 73.8071C108.904 74.0449 109.351 74.3733 109.713 74.7923C110.087 75.1999 110.37 75.6698 110.563 76.202C110.767 76.7229 110.868 77.2664 110.868 77.8326C110.868 77.9572 110.857 78.0987 110.834 78.2572C110.823 78.4044 110.806 78.546 110.783 78.6819H103.276V77.3231H109.866L109.119 77.9345C109.221 77.3457 109.164 76.8192 108.949 76.3549C108.734 75.8906 108.417 75.5226 107.998 75.2509C107.579 74.9791 107.103 74.8432 106.571 74.8432C106.039 74.8432 105.552 74.9791 105.11 75.2509C104.669 75.5226 104.323 75.9133 104.074 76.4228C103.837 76.9211 103.74 77.5156 103.786 78.2063C103.74 78.8744 103.842 79.4632 104.091 79.9727C104.352 80.471 104.714 80.8616 105.178 81.1447C105.654 81.4165 106.169 81.5524 106.724 81.5524C107.336 81.5524 107.851 81.4108 108.27 81.1277C108.689 80.8447 109.028 80.4823 109.289 80.0407L110.614 80.7201C110.432 81.1391 110.149 81.5241 109.764 81.8751C109.391 82.2148 108.943 82.4865 108.423 82.6904C107.913 82.8942 107.341 82.9961 106.707 82.9961ZM117.089 82.9961C116.229 82.9961 115.453 82.7866 114.762 82.3677C114.083 81.9487 113.545 81.3769 113.149 80.6522C112.752 79.9275 112.554 79.1178 112.554 78.2233C112.554 77.3061 112.752 76.4908 113.149 75.7774C113.545 75.0527 114.083 74.4809 114.762 74.0619C115.453 73.6429 116.229 73.4335 117.089 73.4335C117.848 73.4335 118.522 73.5976 119.111 73.926C119.699 74.2431 120.164 74.6734 120.503 75.2169L120.249 75.6076V69.9345H121.845V82.7923H120.3V80.839L120.503 81.1108C120.186 81.7109 119.722 82.1752 119.111 82.5035C118.51 82.8319 117.837 82.9961 117.089 82.9961ZM117.225 81.4674C117.803 81.4674 118.318 81.3259 118.771 81.0428C119.224 80.7597 119.581 80.3747 119.841 79.8878C120.113 79.3896 120.249 78.8347 120.249 78.2233C120.249 77.6005 120.113 77.0456 119.841 76.5587C119.581 76.0605 119.224 75.6698 118.771 75.3868C118.318 75.1037 117.803 74.9621 117.225 74.9621C116.659 74.9621 116.144 75.1093 115.68 75.4037C115.227 75.6868 114.87 76.0718 114.61 76.5587C114.349 77.0343 114.219 77.5892 114.219 78.2233C114.219 78.8347 114.349 79.3896 114.61 79.8878C114.87 80.3747 115.227 80.7597 115.68 81.0428C116.133 81.3259 116.648 81.4674 117.225 81.4674Z" fill="black"/>
<defs>
<clipPath id="clip0_347_12105">
<rect width="135.095" height="124.558" fill="white" transform="translate(180.231 3.63797)"/>
</clipPath>
</defs>
</svg>
