<svg width="35" height="35" viewBox="0 0 35 35" fill="none" xmlns="http://www.w3.org/2000/svg">
            <rect x="0.389893" y="0.694916" width="34.0271" height="34.0271" rx="9.72203" fill="#8C684D" />
            <path d="M26.8217 13.2323H21.1708C20.7759 13.2323 20.4619 12.9183 20.4619 12.5234C20.4619 12.1284 20.7759 11.8145 21.1708 11.8145H26.8217C27.2167 11.8145 27.5306 12.1284 27.5306 12.5234C27.5306 12.9183 27.2167 13.2323 26.8217 13.2323Z" fill="white" />
            <path d="M11.7526 13.2323H7.98527C7.59031 13.2323 7.27637 12.9183 7.27637 12.5234C7.27637 12.1284 7.59031 11.8145 7.98527 11.8145H11.7526C12.1475 11.8145 12.4614 12.1284 12.4614 12.5234C12.4614 12.9183 12.1374 13.2323 11.7526 13.2323Z" fill="white" />
            <path d="M15.5197 16.5236C17.729 16.5236 19.52 14.7326 19.52 12.5233C19.52 10.3141 17.729 8.52313 15.5197 8.52313C13.3105 8.52313 11.5195 10.3141 11.5195 12.5233C11.5195 14.7326 13.3105 16.5236 15.5197 16.5236Z" fill="white" />
            <path d="M26.8216 23.5923H23.0544C22.6594 23.5923 22.3455 23.2783 22.3455 22.8834C22.3455 22.4884 22.6594 22.1745 23.0544 22.1745H26.8216C27.2166 22.1745 27.5305 22.4884 27.5305 22.8834C27.5305 23.2783 27.2166 23.5923 26.8216 23.5923Z" fill="white" />
            <path d="M13.6362 23.5923H7.98527C7.59031 23.5923 7.27637 23.2783 7.27637 22.8834C7.27637 22.4884 7.59031 22.1745 7.98527 22.1745H13.6362C14.0312 22.1745 14.3451 22.4884 14.3451 22.8834C14.3451 23.2783 14.021 23.5923 13.6362 23.5923Z" fill="white" />
            <path d="M19.2871 26.8937C21.4963 26.8937 23.2873 25.1027 23.2873 22.8935C23.2873 20.6842 21.4963 18.8933 19.2871 18.8933C17.0778 18.8933 15.2869 20.6842 15.2869 22.8935C15.2869 25.1027 17.0778 26.8937 19.2871 26.8937Z" fill="white" />
        </svg>