<svg width="20" height="21" viewBox="0 0 20 21" fill="none" xmlns="http://www.w3.org/2000/svg">
<path d="M15.065 16.4244C16.8275 14.7807 17.6087 12.0494 17.14 9.43066H10.1462V12.3244H14.1275C14.0502 12.7783 13.8784 13.211 13.6232 13.5943C13.368 13.9775 13.0352 14.303 12.6462 14.5494L15.065 16.4244Z" fill="#4285F4"/>
<path d="M3.50244 14.1186C4.01616 15.1309 4.75301 16.0135 5.65743 16.6997C6.56185 17.3859 7.61025 17.8578 8.72358 18.0798C9.83691 18.3019 10.9861 18.2683 12.0846 17.9816C13.1831 17.6949 14.2021 17.1626 15.0649 16.4248L12.6462 14.5498C12.0726 14.9217 11.4214 15.1573 10.7426 15.2384C10.0638 15.3195 9.37543 15.244 8.73034 15.0177C8.08525 14.7914 7.50058 14.4203 7.02121 13.9329C6.54184 13.4455 6.1805 12.8548 5.96494 12.2061L3.50244 14.1186Z" fill="#34A853"/>
<path d="M5.965 12.2063C5.6525 11.2313 5.6525 10.3312 5.965 9.35625L3.5025 7.4375C2.98886 8.47732 2.72168 9.62149 2.72168 10.7813C2.72168 11.941 2.98886 13.0852 3.5025 14.125L5.965 12.2063Z" fill="#FBBC02"/>
<path d="M5.96494 9.35576C6.82744 6.65576 10.4962 5.09326 12.9587 7.39951L15.1087 5.29326C14.2668 4.51684 13.2556 3.94717 12.1552 3.6294C11.0549 3.31163 9.89568 3.25449 8.76943 3.46252C7.64319 3.67054 6.58087 4.13801 5.66666 4.82788C4.75245 5.51775 4.01147 6.41105 3.50244 7.43701L5.96494 9.35576Z" fill="#EA4335"/>
</svg>
