<svg width="168" height="56" viewBox="0 0 168 56" fill="none" xmlns="http://www.w3.org/2000/svg">
<path d="M0.685059 42.2762C0.685059 38.1634 4.01916 34.8293 8.13197 34.8293C12.2448 34.8293 15.5789 38.1634 15.5789 42.2762V55.0423H0.685059V42.2762Z" fill="#E7E7E7"/>
<path d="M15.5789 8.23316C15.5789 4.12035 18.913 0.786255 23.0258 0.786255C27.1386 0.786255 30.4727 4.12035 30.4727 8.23317V55.0423H15.5789V8.23316Z" fill="#E7E7E7"/>
<path d="M30.4727 22.595C30.4727 18.1884 34.0449 14.6162 38.4515 14.6162C42.8581 14.6162 46.4303 18.1885 46.4303 22.595V55.0423H30.4727V22.595Z" fill="#E7E7E7"/>
<path d="M91.1118 22.595C91.1118 18.1884 94.6841 14.6162 99.0907 14.6162C103.497 14.6162 107.069 18.1885 107.069 22.595V55.0423H91.1118V22.595Z" fill="#E7E7E7"/>
<path d="M46.4302 31.6378C46.4302 27.525 49.7643 24.1909 53.8771 24.1909C57.9899 24.1909 61.324 27.525 61.324 31.6378V55.0424H46.4302V31.6378Z" fill="#E7E7E7"/>
<path d="M76.218 31.6378C76.218 27.525 79.5521 24.1909 83.6649 24.1909C87.7777 24.1909 91.1118 27.525 91.1118 31.6378V55.0424H76.218V31.6378Z" fill="#E7E7E7"/>
<path d="M61.3242 35.8931C61.3242 31.7803 64.6583 28.4462 68.7711 28.4462C72.8839 28.4462 76.218 31.7803 76.218 35.8931V55.0423H61.3242V35.8931Z" fill="#E7E7E7"/>
<path d="M151.751 22.595C151.751 18.1884 155.323 14.6162 159.73 14.6162C164.136 14.6162 167.709 18.1885 167.709 22.595V55.0423H151.751V22.595Z" fill="#E7E7E7"/>
<path d="M107.069 31.6378C107.069 27.525 110.403 24.1909 114.516 24.1909C118.629 24.1909 121.963 27.525 121.963 31.6378V55.0424H107.069V31.6378Z" fill="#E7E7E7"/>
<path d="M136.857 31.6378C136.857 27.525 140.191 24.1909 144.304 24.1909C148.417 24.1909 151.751 27.525 151.751 31.6378V55.0424H136.857V31.6378Z" fill="#E7E7E7"/>
<path d="M121.963 35.8931C121.963 31.7803 125.297 28.4462 129.41 28.4462C133.523 28.4462 136.857 31.7803 136.857 35.8931V55.0423H121.963V35.8931Z" fill="#E7E7E7"/>
</svg>
