<svg width="20" height="20" viewBox="0 0 20 20" fill="none" xmlns="http://www.w3.org/2000/svg">
<path fill-rule="evenodd" clip-rule="evenodd" d="M13.2082 2.0839C13.734 2.0839 14.259 2.15807 14.7582 2.32557C17.834 3.32557 18.9424 6.70057 18.0165 9.65057C17.4915 11.1581 16.6332 12.5339 15.509 13.6581C13.8999 15.2164 12.134 16.5997 10.2332 17.7914L10.0249 17.9172L9.80818 17.7831C7.90068 16.5997 6.12485 15.2164 4.50068 13.6497C3.38402 12.5256 2.52485 11.1581 1.99152 9.65057C1.04985 6.70057 2.15818 3.32557 5.26735 2.30807C5.50902 2.22474 5.75818 2.1664 6.00818 2.1339H6.10818C6.34235 2.09974 6.57485 2.0839 6.80818 2.0839H6.89985C7.42485 2.09974 7.93318 2.1914 8.42568 2.3589H8.47485C8.50818 2.37474 8.53318 2.39224 8.54985 2.40807C8.73402 2.46724 8.90818 2.5339 9.07485 2.62557L9.39152 2.76724C9.46804 2.80805 9.55392 2.8704 9.62815 2.92429C9.67518 2.95844 9.71753 2.98919 9.74985 3.0089C9.76345 3.01693 9.77728 3.025 9.79121 3.03313C9.86266 3.07484 9.93709 3.11829 9.99985 3.1664C10.9257 2.4589 12.0499 2.07557 13.2082 2.0839ZM15.4249 8.0839C15.7665 8.07474 16.0582 7.80057 16.0832 7.44974V7.35057C16.1082 6.18307 15.4007 5.12557 14.3249 4.71724C13.9832 4.59974 13.6082 4.7839 13.4832 5.1339C13.3665 5.4839 13.5499 5.86724 13.8999 5.9914C14.434 6.1914 14.7915 6.71724 14.7915 7.29974V7.32557C14.7757 7.5164 14.8332 7.70057 14.9499 7.84224C15.0665 7.9839 15.2415 8.0664 15.4249 8.0839Z" fill="#E74C3C"/>
</svg>
