<svg width="30" height="30" viewBox="0 0 30 30" fill="none" xmlns="http://www.w3.org/2000/svg">
<path d="M15.8933 9.15793C13.8897 8.6391 11.845 9.84265 11.3262 11.8462C11.2226 12.2475 11.464 12.6567 11.8652 12.7603C12.2665 12.8638 12.6758 12.6225 12.7793 12.2212C12.9694 11.4814 13.522 10.8885 14.2466 10.6469C15.4253 10.254 16.6992 10.891 17.0921 12.0696C17.485 13.2482 16.8481 14.5222 15.6694 14.915C14.764 15.2515 14.1725 16.1262 14.1973 17.0918V18.0345C14.1974 18.4485 14.5333 18.784 14.9473 18.7837C15.3613 18.7834 15.6975 18.4477 15.6973 18.0337V17.0918C15.6769 16.7695 15.8584 16.4684 16.1528 16.3359C17.3512 15.9313 18.2645 14.9494 18.5815 13.7249C19.1004 11.7215 17.8967 9.67676 15.8933 9.15793ZM14.947 20.0961C14.4292 20.0961 14.0095 20.5159 14.0095 21.0336C14.0095 21.5513 14.4292 21.9711 14.947 21.9711C15.4647 21.9711 15.8845 21.5513 15.8845 21.0336C15.8845 20.5159 15.4647 20.0961 14.947 20.0961ZM15 0C6.71576 0 0 6.71576 0 15C0 23.2842 6.71576 30 15 30C23.2802 29.9903 29.9903 23.2802 30 15C30 6.71576 23.2842 0 15 0ZM15 28.5C7.54413 28.5 1.5 22.4559 1.5 15C1.5 7.54413 7.54413 1.5 15 1.5C22.4525 1.50815 28.4919 7.54752 28.5 15C28.5 22.4559 22.4559 28.5 15 28.5Z" fill="black"/>
</svg>
