<svg width="41" height="39" viewBox="0 0 41 39" fill="none" xmlns="http://www.w3.org/2000/svg">
<path d="M28.6375 3.57486C30.8286 3.58116 32.9282 4.42215 34.4776 5.91416C36.0269 7.40616 36.9003 9.42795 36.9068 11.538V27.4624C36.9003 29.5724 36.0269 31.5942 34.4776 33.0862C32.9282 34.5782 30.8286 35.4192 28.6375 35.4255H12.1005C9.90934 35.4192 7.8098 34.5782 6.26041 33.0862C4.71102 31.5942 3.83768 29.5724 3.83114 27.4624V11.538C3.83768 9.42795 4.71102 7.40616 6.26041 5.91416C7.8098 4.42215 9.90934 3.58116 12.1005 3.57486H28.6375ZM28.6375 0.390137H12.1005C5.73325 0.390137 0.523926 5.40653 0.523926 11.538V27.4624C0.523926 33.5938 5.73325 38.6102 12.1005 38.6102H28.6375C35.0047 38.6102 40.214 33.5938 40.214 27.4624V11.538C40.214 5.40653 35.0047 0.390137 28.6375 0.390137Z" fill="white"/>
<path d="M31.1191 11.5383C30.6285 11.5383 30.1489 11.3982 29.741 11.1357C29.333 10.8732 29.0151 10.5001 28.8273 10.0636C28.6396 9.62715 28.5905 9.14685 28.6862 8.68348C28.7819 8.2201 29.0182 7.79447 29.3651 7.46039C29.712 7.12632 30.154 6.89881 30.6352 6.80664C31.1164 6.71447 31.6152 6.76178 32.0684 6.94258C32.5217 7.12338 32.9091 7.42955 33.1817 7.82238C33.4543 8.21521 33.5998 8.67705 33.5998 9.1495C33.6005 9.46339 33.5368 9.77431 33.4124 10.0644C33.288 10.3546 33.1053 10.6182 32.8748 10.8401C32.6443 11.0621 32.3705 11.238 32.0693 11.3578C31.768 11.4776 31.4451 11.5389 31.1191 11.5383ZM20.37 13.1302C21.6784 13.1302 22.9574 13.5038 24.0453 14.2038C25.1332 14.9038 25.9811 15.8987 26.4818 17.0627C26.9825 18.2267 27.1135 19.5076 26.8582 20.7433C26.603 21.979 25.9729 23.1141 25.0478 24.005C24.1226 24.8959 22.9439 25.5026 21.6606 25.7484C20.3774 25.9942 19.0473 25.868 17.8385 25.3859C16.6297 24.9037 15.5965 24.0872 14.8696 23.0396C14.1427 21.9921 13.7547 20.7604 13.7547 19.5005C13.7566 17.8115 14.4542 16.1923 15.6944 14.998C16.9346 13.8037 18.6161 13.132 20.37 13.1302ZM20.37 9.94547C18.4075 9.94547 16.4891 10.5059 14.8574 11.5558C13.2256 12.6057 11.9538 14.098 11.2028 15.8439C10.4518 17.5899 10.2553 19.5111 10.6382 21.3646C11.021 23.2181 11.9661 24.9206 13.3538 26.2569C14.7414 27.5932 16.5095 28.5032 18.4342 28.8719C20.359 29.2406 22.3541 29.0514 24.1672 28.3282C25.9803 27.605 27.53 26.3803 28.6203 24.809C29.7106 23.2377 30.2926 21.3903 30.2926 19.5005C30.2926 16.9663 29.2472 14.536 27.3863 12.7441C25.5255 10.9522 23.0017 9.94547 20.37 9.94547Z" fill="white"/>
</svg>
