<svg width="71" height="40" viewBox="0 0 71 40" fill="none" xmlns="http://www.w3.org/2000/svg">
<g clip-path="url(#clip0_255_1463)">
<path d="M0.213735 17.8923C0.0708389 17.8923 0 17.8121 0 17.6516V0.481426C0 0.320777 0.0708389 0.24054 0.213735 0.24054H3.26277C3.42324 0.24054 3.50348 0.320777 3.50348 0.481426V17.6516C3.50348 17.8121 3.42324 17.8923 3.26277 17.8923H0.213735ZM1.60475 16.2609C1.60475 16.3859 1.65366 16.4482 1.75183 16.4482C1.84999 16.4482 1.8989 16.3859 1.8989 16.2609V1.84547C1.8989 1.75653 1.84964 1.71162 1.75183 1.71162C1.65401 1.71162 1.60475 1.75635 1.60475 1.84547V16.2609Z" fill="#8C684D"/>
<path d="M17.3303 0.481426C17.3303 0.320777 17.4106 0.24054 17.571 0.24054H20.6467C20.8072 0.24054 20.8874 0.320777 20.8874 0.481426V17.6516C20.8874 17.8121 20.8072 17.8923 20.6467 17.8923H17.6779C17.5533 17.8923 17.4727 17.8481 17.4372 17.7584L13.5325 8.95946V17.6516C13.5325 17.8121 13.4523 17.8923 13.2918 17.8923H10.2428C10.0999 17.8923 10.0291 17.8121 10.0291 17.6516V0.481426C10.0291 0.320777 10.0999 0.24054 10.2428 0.24054H13.399C13.4699 0.24054 13.5325 0.285271 13.586 0.374385L17.3305 9.0129V0.481426H17.3303ZM19.256 1.84529C19.256 1.75635 19.1979 1.70274 19.0822 1.68482C18.9657 1.66724 18.9083 1.72067 18.9083 1.84529V15.5922L11.9276 1.79186C11.8917 1.73842 11.834 1.71162 11.7537 1.71162C11.6735 1.71162 11.6336 1.75635 11.6336 1.84547V16.2609C11.6336 16.3859 11.6871 16.4482 11.7941 16.4482C11.9011 16.4482 11.9546 16.3859 11.9546 16.2609V2.5408L18.9083 16.3145C18.9617 16.4038 19.0325 16.444 19.122 16.4348C19.2111 16.4261 19.256 16.3772 19.256 16.2875V1.84547V1.84529Z" fill="#8C684D"/>
<path d="M33.5373 7.06057C34.0361 7.31051 34.5623 7.59125 35.1152 7.90298C35.6678 8.21505 36.1761 8.58509 36.6397 9.01273C37.1031 9.44072 37.4822 9.92215 37.7763 10.457C38.0706 10.9919 38.2177 11.607 38.2177 12.3025C38.2177 12.499 38.2043 12.7395 38.1773 13.0244C38.1509 13.3099 38.1016 13.6174 38.0302 13.9471C37.9591 14.2773 37.8564 14.6158 37.7229 14.9634C37.5888 15.3111 37.4155 15.6455 37.2012 15.9663C36.2203 17.4285 34.6603 18.1595 32.5208 18.1595C31.9499 18.1595 31.3709 18.0879 30.7824 17.9456C30.1939 17.803 29.6366 17.5844 29.1108 17.2903C28.5847 16.9961 28.1165 16.6263 27.7067 16.1805C27.2963 15.7349 26.9844 15.2001 26.7705 14.5758C26.7347 14.4868 26.7611 14.4153 26.8508 14.3618L29.3111 12.249C29.4537 12.1422 29.5698 12.1601 29.6589 12.3026C29.6948 12.3742 29.7346 12.4589 29.7793 12.5568C29.8237 12.6549 29.8815 12.7752 29.9532 12.9177C30.149 13.3282 30.47 13.7067 30.9159 14.0545C31.3615 14.4022 31.8521 14.5759 32.3872 14.5759C32.6009 14.5759 32.8191 14.5451 33.0423 14.4825C33.2651 14.4202 33.4743 14.3218 33.6706 14.1883C33.8669 14.0545 34.0272 13.8766 34.1524 13.6533C34.2766 13.4307 34.3393 13.1585 34.3393 12.8377C34.3393 12.5347 34.2457 12.2584 34.0587 12.0087C33.8715 11.7593 33.6393 11.5406 33.3632 11.3534C33.0868 11.1663 32.7923 11.0058 32.4808 10.8721C32.1685 10.7383 31.8789 10.618 31.6114 10.5111C31.005 10.2615 30.4033 9.9808 29.8063 9.66873C29.2086 9.357 28.6515 8.96922 28.1347 8.50537C27.0467 7.48909 26.5032 6.33008 26.5032 5.02852C26.5032 4.19064 26.6771 3.4598 27.0248 2.8353C27.3726 2.2115 27.8312 1.68987 28.4019 1.27076C28.9724 0.85199 29.6142 0.535217 30.3276 0.321134C31.0407 0.107399 31.7627 0.000183105 32.4938 0.000183105C34.7941 0.000183105 36.5055 1.19487 37.6291 3.5839C37.6825 3.70887 37.6559 3.80721 37.5488 3.87804L35.1683 5.5364C35.0792 5.58984 34.9899 5.56303 34.9011 5.45617C34.437 4.79669 33.9916 4.31074 33.5639 3.99849C33.1359 3.68676 32.6543 3.53064 32.1196 3.53064C31.9767 3.53064 31.7987 3.54857 31.5846 3.58407C31.3709 3.6201 31.1657 3.68241 30.9697 3.77135C30.773 3.86064 30.604 3.98108 30.4614 4.13233C30.3186 4.28393 30.2474 4.48479 30.2474 4.7342C30.2474 5.03757 30.3678 5.30509 30.6085 5.53658C30.8492 5.76841 31.1436 5.9778 31.491 6.16508C31.8387 6.35218 32.1999 6.51736 32.5741 6.65991C32.9486 6.8028 33.2696 6.93665 33.5371 7.06092L33.5373 7.06057ZM28.6696 14.4423C28.8301 14.781 29.0617 15.08 29.3651 15.3381C29.6681 15.5969 30.0023 15.8153 30.368 15.9932C30.7333 16.1718 31.1167 16.31 31.5179 16.408C31.919 16.5062 32.3071 16.5551 32.6813 16.5551C33.1625 16.5551 33.6215 16.4748 34.0589 16.3144C34.4954 16.1539 34.8787 15.9266 35.2089 15.6322C35.5387 15.3381 35.8107 14.9862 36.0245 14.5758C36.2386 14.1659 36.3722 13.7025 36.4255 13.1851C36.4967 12.5611 36.4389 12.0216 36.2516 11.5669C36.0647 11.1123 35.7972 10.7111 35.4494 10.3634C35.1017 10.0156 34.6961 9.70824 34.2326 9.44072C33.7684 9.17338 33.2964 8.91509 32.8151 8.66515L31.9592 8.29076C31.4596 8.07686 31.0007 7.86277 30.5815 7.64886C30.1626 7.43496 29.8014 7.20329 29.4984 6.95353C29.195 6.70394 28.9589 6.41432 28.7899 6.08432C28.6202 5.75449 28.5357 5.35783 28.5357 4.89416C28.5357 4.39515 28.6424 3.95793 28.8567 3.58355C29.0704 3.20917 29.3515 2.89744 29.6991 2.64768C30.0469 2.39826 30.4435 2.21568 30.8893 2.09941C31.3348 1.9835 31.7893 1.92554 32.253 1.92554C32.6809 1.92554 33.0555 1.97915 33.3765 2.08601C33.6974 2.19305 33.9783 2.32673 34.2189 2.48738C34.4596 2.64785 34.6688 2.82173 34.8472 3.00883C35.0252 3.19611 35.1681 3.36999 35.2752 3.53046C35.3643 3.63733 35.4532 3.65996 35.5427 3.5973C35.6315 3.53499 35.6315 3.45023 35.5427 3.34319C35.4357 3.20064 35.2886 3.03146 35.1013 2.83496C34.914 2.63915 34.6867 2.44734 34.4192 2.26006C34.152 2.07296 33.8398 1.91701 33.4835 1.79204C33.1263 1.66759 32.7165 1.60494 32.253 1.60494C31.7183 1.60494 31.21 1.67177 30.7288 1.80544C30.247 1.93929 29.8192 2.13979 29.445 2.40731C29.0704 2.67465 28.7719 3.01806 28.5491 3.437C28.326 3.85611 28.2148 4.34224 28.2148 4.8945C28.2148 5.39386 28.3081 5.82637 28.4954 6.19171C28.6826 6.55739 28.9409 6.87817 29.2711 7.15456C29.6009 7.4313 29.9842 7.68524 30.4211 7.9169C30.8579 8.14874 31.3348 8.38075 31.8519 8.61224L32.6809 9.01325C34.0182 9.63757 34.945 10.2702 35.4625 10.9122C35.9792 11.5541 36.1844 12.303 36.0777 13.1586C35.9707 13.8366 35.7789 14.3801 35.5023 14.79C35.2259 15.2004 34.9139 15.5121 34.5666 15.7262C34.2189 15.9401 33.8753 16.0785 33.5368 16.1408C33.1981 16.2035 32.9126 16.2345 32.6808 16.2345C32.1816 16.2345 31.7223 16.1675 31.3037 16.0338C30.8842 15.9003 30.5187 15.7355 30.2072 15.539C29.8949 15.3431 29.6323 15.1338 29.418 14.9105C29.2043 14.6877 29.0438 14.4785 28.9368 14.282C28.8651 14.2111 28.7939 14.1977 28.723 14.2419C28.6513 14.2867 28.6336 14.3535 28.6692 14.4426L28.6696 14.4423Z" fill="#8C684D"/>
<path d="M42.7903 3.58372C42.6298 3.58372 42.5496 3.50348 42.5496 3.343V0.481426C42.5496 0.320777 42.6298 0.24054 42.7903 0.24054H53.9431C54.1036 0.24054 54.1838 0.320777 54.1838 0.481426V3.343C54.1838 3.50348 54.1036 3.58372 53.9431 3.58372H50.1452V17.6516C50.1452 17.8121 50.0649 17.8923 49.9044 17.8923H46.8288C46.6683 17.8923 46.5881 17.8121 46.5881 17.6516V3.58372H42.7901H42.7903ZM44.2346 1.71162C44.1451 1.71162 44.1011 1.76975 44.1011 1.8855C44.1011 2.00124 44.1451 2.05937 44.2346 2.05937H48.193V16.2341C48.193 16.3234 48.2504 16.3676 48.3669 16.3676C48.4833 16.3676 48.5408 16.3234 48.5408 16.2341V2.05937H52.3114C52.4539 2.05937 52.5211 2.00176 52.5121 1.8855C52.5027 1.76975 52.436 1.71162 52.3114 1.71162H44.2346Z" fill="#8C684D"/>
<path d="M61.8061 0.401372C61.8416 0.29433 61.9039 0.240723 61.9933 0.240723H65.3095C65.3986 0.240723 65.4606 0.29433 65.4968 0.401372L70.1234 17.5982C70.1593 17.7947 70.0791 17.8923 69.8827 17.8923H66.834C66.727 17.8923 66.6643 17.8387 66.6468 17.7318L65.6035 13.9875H61.6988L60.6826 17.7318C60.6467 17.8387 60.5844 17.8923 60.4956 17.8923H57.4196C57.2233 17.8923 57.1432 17.7945 57.1789 17.5982L61.8061 0.401372ZM67.9039 16.2609C67.9394 16.3502 68.0018 16.3859 68.0912 16.3678C68.18 16.3502 68.207 16.2876 68.1715 16.1807L63.8922 1.95234C63.8564 1.77429 63.7539 1.68065 63.5849 1.6716C63.4152 1.6629 63.3128 1.75653 63.277 1.95234L59.1316 16.1807C59.0957 16.27 59.1271 16.3323 59.2252 16.3678C59.323 16.4038 59.3897 16.3772 59.4256 16.2875L60.6023 12.2492H66.6736L67.9038 16.2609H67.9039ZM63.5977 2.05938L66.5665 11.9015H60.6826L63.5977 2.05938ZM64.7745 10.6445L63.6245 6.60612L62.5548 10.6445H64.7745Z" fill="#8C684D"/>
<path d="M0.213735 39.2882C0.0708389 39.2882 0 39.208 0 39.0475V21.8774C0 21.7167 0.0708389 21.6365 0.213735 21.6365H9.30722C9.46769 21.6365 9.54793 21.7167 9.54793 21.8774V24.7389C9.54793 24.8994 9.46769 24.9796 9.30722 24.9796H3.53046V28.617H8.02359C8.16614 28.617 8.23732 28.6972 8.23732 28.8579V31.773C8.23732 31.9335 8.16614 32.0138 8.02359 32.0138H3.53046V39.0477C3.53046 39.2082 3.45022 39.2884 3.28974 39.2884H0.213735V39.2882ZM1.60475 37.6568C1.60475 37.7461 1.65819 37.7997 1.76523 37.8173C1.87227 37.8354 1.9257 37.7818 1.9257 37.6568V30.4624H6.84665C6.9892 30.4624 7.06039 30.4001 7.06039 30.2753C7.06039 30.1505 6.9892 30.0881 6.84665 30.0881H1.9257V23.4553H7.91637C8.00549 23.4553 8.05892 23.3977 8.07685 23.2814C8.09443 23.1657 8.04099 23.1076 7.91637 23.1076H1.76523C1.65819 23.1076 1.60475 23.1523 1.60475 23.2414V37.6568Z" fill="#5DC5CD"/>
<path d="M15.5656 21.7971C15.6011 21.6901 15.6634 21.6365 15.7529 21.6365H19.0691C19.1582 21.6365 19.2201 21.6901 19.2563 21.7971L23.883 38.9939C23.9188 39.1904 23.8386 39.2881 23.6422 39.2881H20.5936C20.4865 39.2881 20.4239 39.2344 20.4063 39.1276L19.363 35.3832H15.4584L14.4421 39.1276C14.4062 39.2344 14.3439 39.2881 14.2551 39.2881H11.1791C10.9828 39.2881 10.9027 39.1902 10.9384 38.9939L15.5654 21.7971H15.5656ZM21.6635 37.6567C21.699 37.746 21.7613 37.7816 21.8507 37.7635C21.9395 37.746 21.9665 37.6833 21.931 37.5764L17.6518 23.3481C17.6159 23.17 17.5134 23.0764 17.3444 23.0673C17.1747 23.0586 17.0723 23.1523 17.0365 23.3481L12.8911 37.5764C12.8552 37.6657 12.8866 37.728 12.9847 37.7635C13.0826 37.7996 13.1492 37.7729 13.1851 37.6833L14.3618 33.645H20.4331L21.6633 37.6567H21.6635ZM17.3573 23.4551L20.326 33.2972H14.4421L17.3573 23.4551ZM18.534 32.0402L17.3841 28.0019L16.3143 32.0402H18.534Z" fill="#5DC5CD"/>
<path d="M36.587 32.3079C36.1945 33.1103 35.6415 33.6812 34.9288 34.0195L37.1753 38.9675C37.2108 39.0568 37.2108 39.1325 37.1753 39.1948C37.1394 39.2574 37.0771 39.2884 36.988 39.2884H33.6982C33.6091 39.2884 33.5468 39.2442 33.5113 39.1546L31.4253 34.608H30.0613V39.0477C30.0613 39.2082 29.981 39.2884 29.8206 39.2884H26.7449C26.6199 39.2884 26.5576 39.2082 26.5576 39.0477V21.8775C26.5576 21.7169 26.6199 21.6367 26.7449 21.6367H32.3077C33.8055 21.6367 34.9728 22.0471 35.8112 22.867C36.6493 23.6873 37.0682 24.882 37.0682 26.4507V29.8207C37.0682 30.2846 37.0284 30.73 36.9481 31.158C36.8679 31.5858 36.7474 31.9696 36.587 32.3079ZM28.5101 33.0835H32.361L34.6078 37.7105C34.6433 37.782 34.71 37.8041 34.8082 37.7773C34.906 37.7507 34.9373 37.675 34.9018 37.55L32.6553 33.0032C33.7071 32.8609 34.4381 32.5131 34.8485 31.9602C35.2583 31.4077 35.4635 30.6323 35.4635 29.6334V26.2903C35.4635 25.5593 35.3206 24.9797 35.0355 24.5518C34.7504 24.1238 34.4113 23.8031 34.0195 23.589C33.6271 23.3751 33.2394 23.2412 32.8562 23.1876C32.4722 23.1342 32.1741 23.1074 31.96 23.1074H28.3493C28.3134 23.1074 28.2781 23.1255 28.2426 23.161C28.2064 23.197 28.1888 23.2325 28.1888 23.2679V37.6567C28.1888 37.746 28.2426 37.7905 28.3493 37.7905C28.456 37.7905 28.5101 37.7461 28.5101 37.6567V33.0833V33.0835ZM35.1427 29.6334C35.1427 30.3112 35.0445 30.8549 34.8487 31.2648C34.652 31.6752 34.3939 31.987 34.073 32.201C33.752 32.4148 33.3865 32.5579 32.9765 32.6289C32.566 32.7004 32.1474 32.7359 31.7195 32.7359H28.5103V23.4555H31.9602C32.6733 23.4555 33.244 23.5624 33.672 23.7764C34.1 23.9904 34.4207 24.2445 34.6346 24.5388C34.8487 24.8329 34.9866 25.1452 35.0492 25.475C35.1115 25.805 35.1429 26.0767 35.1429 26.2906V29.6338L35.1427 29.6334ZM33.5647 27.2531C33.5647 26.7898 33.5155 26.4198 33.4177 26.1434C33.3195 25.8671 33.1636 25.6578 32.9495 25.5149C32.7357 25.3723 32.4546 25.2834 32.1074 25.2473C31.7597 25.2118 31.3358 25.1937 30.837 25.1937H30.0613V31.1045H30.837C31.265 31.1045 31.6434 31.0911 31.9736 31.0645C32.3034 31.0377 32.584 30.9574 32.816 30.8238C33.0476 30.6899 33.226 30.4807 33.351 30.1953C33.4753 29.9102 33.5468 29.5092 33.5647 28.9915V27.2531Z" fill="#5DC5CD"/>
<path d="M56.0299 21.6365C56.1903 21.6365 56.2706 21.7167 56.2706 21.8774V39.0475C56.2706 39.208 56.1903 39.2882 56.0299 39.2882H53.1147C53.0785 39.2882 53.0344 39.266 52.9807 39.2214C52.9272 39.177 52.9004 39.1191 52.9004 39.0475V29.152L49.9588 39.1278C49.905 39.2346 49.8338 39.2882 49.7447 39.2882H47.6317C47.5068 39.2882 47.4354 39.2346 47.418 39.1278L44.6633 28.9647V39.0475C44.6633 39.208 44.583 39.2882 44.4226 39.2882H41.4538C41.3288 39.2882 41.2668 39.208 41.2668 39.0475V21.8774C41.2668 21.7167 41.3288 21.6365 41.4538 21.6365H45.198C45.3226 21.6365 45.4028 21.6901 45.439 21.7971L48.675 32.6287L52.2319 21.7971C52.2319 21.6901 52.2942 21.6365 52.4192 21.6365H56.0299ZM54.3717 37.6567C54.3717 37.746 54.4291 37.7996 54.5456 37.8171C54.6613 37.8353 54.7194 37.7816 54.7194 37.6567V23.2412C54.7194 23.1523 54.6657 23.1074 54.5586 23.1074H53.302C53.2482 23.1074 53.2125 23.1208 53.1949 23.1474C53.177 23.1742 53.1502 23.2055 53.1147 23.2411L48.675 36.4797L44.2621 23.2144C44.2621 23.1434 44.2174 23.1074 44.1281 23.1074H42.8176C42.7106 23.1074 42.6572 23.161 42.6572 23.2679V37.6567C42.6572 37.746 42.7146 37.7996 42.831 37.8171C42.9468 37.8353 43.0049 37.7816 43.0049 37.6567V23.4551H43.9944L48.5143 37.0416C48.5678 37.1309 48.6165 37.1711 48.6614 37.1618C48.7058 37.1531 48.7636 37.1129 48.8353 37.0416L53.382 23.4551H54.3715V37.6567H54.3717Z" fill="#5DC5CD"/>
<path d="M65.7114 28.4565C66.2102 28.7064 66.7363 28.9872 67.2893 29.2989C67.8419 29.611 68.3501 29.981 68.8138 30.4087C69.2771 30.8367 69.6562 31.3181 69.9504 31.8529C70.2447 32.3878 70.3918 33.0029 70.3918 33.6984C70.3918 33.8949 70.3784 34.1354 70.3514 34.4204C70.3249 34.7058 70.2757 35.0134 70.2043 35.343C70.1331 35.6732 70.0304 36.0117 69.8969 36.3593C69.7629 36.7071 69.5896 37.0414 69.3753 37.3622C68.3944 38.8244 66.8343 39.5554 64.6949 39.5554C64.124 39.5554 63.5449 39.4839 62.9565 39.3415C62.368 39.1989 61.8107 38.9803 61.2849 38.6862C60.7587 38.392 60.2905 38.0222 59.8808 37.5764C59.4704 37.1309 59.1585 36.596 58.9446 35.9717C58.9087 35.8828 58.9352 35.8112 59.0248 35.7578L61.4852 33.645C61.6278 33.5381 61.7439 33.556 61.833 33.6986C61.8688 33.7701 61.9087 33.8549 61.9534 33.9527C61.9978 34.0509 62.0556 34.1711 62.1273 34.3137C62.3231 34.7241 62.644 35.1027 63.09 35.4504C63.5355 35.7982 64.0262 35.9719 64.5612 35.9719C64.775 35.9719 64.9932 35.9411 65.2163 35.8784C65.4391 35.8161 65.6483 35.7177 65.8447 35.5843C66.041 35.4504 66.2013 35.2725 66.3264 35.0492C66.4507 34.8266 66.5134 34.5544 66.5134 34.2336C66.5134 33.9306 66.4197 33.6544 66.2328 33.4046C66.0455 33.1552 65.8133 32.9366 65.5373 32.7493C65.2609 32.5622 64.9664 32.4017 64.6549 32.2681C64.3426 32.1342 64.053 32.0139 63.7855 31.9071C63.1791 31.6575 62.5774 31.3767 61.9804 31.0647C61.3827 30.7529 60.8256 30.3652 60.3088 29.9013C59.2208 28.885 58.6772 27.726 58.6772 26.4245C58.6772 25.5866 58.8511 24.8557 59.1989 24.2312C59.5466 23.6074 60.0053 23.0858 60.576 22.6667C61.1465 22.2479 61.7882 21.9312 62.5017 21.7171C63.2148 21.5033 63.9367 21.3961 64.6679 21.3961C66.9682 21.3961 68.6796 22.5908 69.8031 24.9798C69.8566 25.1048 69.8299 25.2031 69.7229 25.274L67.3424 26.9323C67.2533 26.9858 67.164 26.959 67.0752 26.8521C66.611 26.1926 66.1656 25.7067 65.738 25.3944C65.31 25.0827 64.8284 24.9266 64.2937 24.9266C64.1508 24.9266 63.9728 24.9445 63.7587 24.98C63.5449 25.016 63.3397 25.0783 63.1437 25.1673C62.9471 25.2566 62.7781 25.377 62.6355 25.5283C62.4926 25.6799 62.4214 25.8807 62.4214 26.1301C62.4214 26.4335 62.5419 26.701 62.7826 26.9325C63.0233 27.1644 63.3176 27.3737 63.665 27.561C64.0128 27.7481 64.3739 27.9133 64.7482 28.0558C65.1227 28.1987 65.4437 28.3326 65.7112 28.4569L65.7114 28.4565ZM60.8437 35.8382C61.0041 36.1769 61.2358 36.4759 61.5392 36.734C61.8422 36.9928 62.1764 37.2113 62.5421 37.3892C62.9074 37.5677 63.2908 37.7059 63.692 37.8039C64.093 37.9021 64.4812 37.951 64.8554 37.951C65.3366 37.951 65.7956 37.8708 66.233 37.7103C66.6695 37.5498 67.0528 37.3225 67.3829 37.0282C67.7128 36.734 67.9848 36.3821 68.1985 35.9717C68.4126 35.5618 68.5463 35.0985 68.5996 34.581C68.6707 33.957 68.613 33.4175 68.4257 32.9629C68.2388 32.5082 67.9712 32.1071 67.6235 31.7593C67.2757 31.4115 66.8702 31.1042 66.4067 30.8367C65.9425 30.5693 65.4705 30.311 64.9892 30.0611L64.1332 29.6867C63.6337 29.4728 63.1747 29.2587 62.7556 29.0448C62.3367 28.8309 61.9755 28.5992 61.6725 28.3495C61.3691 28.0999 61.1329 27.8103 60.9639 27.4803C60.7942 27.1504 60.7098 26.7538 60.7098 26.2901C60.7098 25.7911 60.8165 25.3539 61.0308 24.9795C61.2445 24.6051 61.5256 24.2934 61.8732 24.0436C62.2209 23.7942 62.6176 23.6116 63.0633 23.4953C63.5089 23.3794 63.9634 23.3215 64.427 23.3215C64.855 23.3215 65.2296 23.3751 65.5505 23.4819C65.8715 23.589 66.1524 23.7227 66.3929 23.8833C66.6337 24.0438 66.8429 24.2177 67.0213 24.4048C67.1993 24.592 67.3422 24.7659 67.4493 24.9264C67.5384 25.0333 67.6273 25.0559 67.7168 24.9932C67.8055 24.9309 67.8055 24.8462 67.7168 24.7391C67.6097 24.5966 67.4627 24.4274 67.2754 24.2309C67.0881 24.0351 66.8608 23.8433 66.5933 23.656C66.3261 23.4689 66.0139 23.3129 65.6576 23.188C65.3004 23.0635 64.8905 23.0009 64.427 23.0009C63.8923 23.0009 63.3841 23.0677 62.9029 23.2014C62.4211 23.3352 61.9933 23.5357 61.6191 23.8032C61.2445 24.0706 60.946 24.414 60.7232 24.8329C60.5001 25.252 60.3889 25.7382 60.3889 26.2904C60.3889 26.7898 60.4822 27.2223 60.6694 27.5876C60.8567 27.9533 61.115 28.2741 61.4452 28.5505C61.775 28.8272 62.1583 29.0812 62.5951 29.3128C63.032 29.5447 63.5089 29.7767 64.026 30.0082L64.855 30.4092C66.1923 31.0335 67.1191 31.6662 67.6365 32.3081C68.1533 32.95 68.3585 33.6989 68.2518 34.5546C68.1448 35.2325 67.953 35.7761 67.6764 36.1859C67.4 36.5964 67.0879 36.9081 66.7407 37.1222C66.3929 37.3361 66.0494 37.4744 65.7108 37.5368C65.3721 37.5994 65.0867 37.6304 64.8548 37.6304C64.3557 37.6304 63.8963 37.5634 63.4778 37.4297C63.0583 37.2962 62.6928 37.1314 62.3812 36.9349C62.069 36.7391 61.8063 36.5297 61.5921 36.3064C61.3783 36.0836 61.2179 35.8744 61.1108 35.6779C61.0391 35.6071 60.9679 35.5937 60.8971 35.6379C60.8254 35.6826 60.8076 35.7494 60.8433 35.8385L60.8437 35.8382Z" fill="#5DC5CD"/>
</g>
<defs>
<clipPath id="clip0_255_1463">
<rect width="70.3919" height="39.5558" fill="white"/>
</clipPath>
</defs>
</svg>
