<svg width="24" height="24" viewBox="0 0 24 24" fill="none" xmlns="http://www.w3.org/2000/svg">
<g clip-path="url(#clip0_346_9347)">
<path d="M8.25011 4.5V1.5C8.25011 1.30109 8.32912 1.11032 8.46978 0.96967C8.61043 0.829018 8.80119 0.75 9.00011 0.75C9.19902 0.75 9.38978 0.829018 9.53044 0.96967C9.67109 1.11032 9.75011 1.30109 9.75011 1.5V4.5C9.75011 4.69891 9.67109 4.88968 9.53044 5.03033C9.38978 5.17098 9.19902 5.25 9.00011 5.25C8.80119 5.25 8.61043 5.17098 8.46978 5.03033C8.32912 4.88968 8.25011 4.69891 8.25011 4.5ZM12.0001 5.25C12.199 5.24999 12.3898 5.17097 12.5304 5.03032C12.6711 4.88967 12.7501 4.69891 12.7501 4.5V1.5C12.7501 1.30109 12.6711 1.11032 12.5304 0.96967C12.3898 0.829018 12.199 0.75 12.0001 0.75C11.8012 0.75 11.6104 0.829018 11.4698 0.96967C11.3291 1.11032 11.2501 1.30109 11.2501 1.5V4.5C11.2501 4.69891 11.3291 4.88967 11.4698 5.03032C11.6104 5.17097 11.8012 5.24999 12.0001 5.25ZM15.0001 5.25C15.199 5.24999 15.3898 5.17097 15.5304 5.03032C15.6711 4.88967 15.7501 4.69891 15.7501 4.5V1.5C15.7501 1.30109 15.6711 1.11032 15.5304 0.96967C15.3898 0.829018 15.199 0.75 15.0001 0.75C14.8012 0.75 14.6104 0.829018 14.4698 0.96967C14.3291 1.11032 14.2501 1.30109 14.2501 1.5V4.5C14.2501 4.69891 14.3291 4.88967 14.4698 5.03032C14.6104 5.17097 14.8012 5.24999 15.0001 5.25ZM23.8501 8.55002C23.791 8.47122 23.717 8.40483 23.6322 8.35464C23.5475 8.30445 23.4537 8.27145 23.3562 8.25752C23.2587 8.24359 23.1594 8.249 23.064 8.27345C22.9686 8.2979 22.8789 8.34091 22.8001 8.40001L21.0001 9.75V8.25C20.9997 7.85231 20.8415 7.47105 20.5603 7.18984C20.2791 6.90864 19.8978 6.75045 19.5001 6.75H4.50011C4.10242 6.75045 3.72115 6.90864 3.43995 7.18984C3.15874 7.47105 3.00056 7.85231 3.00011 8.25V9.75L1.20009 8.40001C1.04096 8.28067 0.840942 8.22943 0.644034 8.25756C0.447126 8.28569 0.269458 8.39089 0.150116 8.55002C0.0307733 8.70915 -0.0204681 8.90916 0.00766415 9.10607C0.0357964 9.30298 0.140998 9.48065 0.300125 9.59999L3.00011 11.625V17.25C3.00102 18.0454 3.31738 18.8079 3.87979 19.3703C4.4422 19.9327 5.20474 20.2491 6.00011 20.25H18.0001C18.7955 20.2491 19.558 19.9327 20.1204 19.3703C20.6828 18.8079 20.9992 18.0454 21.0001 17.25V11.625L23.7001 9.59999C23.7789 9.5409 23.8453 9.46687 23.8955 9.38212C23.9456 9.29738 23.9786 9.20358 23.9926 9.10608C24.0065 9.00857 24.0011 8.90928 23.9766 8.81388C23.9522 8.71847 23.9092 8.62881 23.8501 8.55002Z" fill="#7D7F88"/>
</g>
<defs>
<clipPath id="clip0_346_9347">
<rect width="24" height="24" fill="white"/>
</clipPath>
</defs>
</svg>
