<svg width="40" height="39" viewBox="0 0 40 39" fill="none" xmlns="http://www.w3.org/2000/svg">
<path d="M33.8966 33.2355H28.1285V24.1841C28.1285 22.0258 28.0834 19.252 25.1122 19.252C22.1044 19.252 21.6462 21.5931 21.6462 24.0245V33.2343H15.8707V14.6233H21.4183V17.1619H21.4926C22.2677 15.6958 24.153 14.1541 26.9658 14.1541C32.8169 14.1541 33.9027 18.0065 33.9027 23.0154V33.2343L33.8966 33.2355ZM9.3457 12.0799C7.48472 12.0799 5.99302 10.5748 5.99302 8.7211C5.99302 6.87354 7.49082 5.37086 9.3457 5.37086C11.2006 5.37086 12.7032 6.87354 12.7032 8.7211C12.7032 10.5748 11.2006 12.0799 9.3457 12.0799ZM12.2389 33.2355H6.45125V14.6245H12.2389V33.2355ZM36.7923 0H3.55072C1.96274 0 0.674561 1.25649 0.674561 2.81157V36.1884C0.674561 37.7435 1.96274 39 3.55072 39H36.7862C38.3718 39 39.6733 37.7435 39.6733 36.1884V2.81157C39.6733 1.25649 38.3718 0 36.7862 0L36.7923 0Z" fill="white"/>
</svg>
