<svg width="20" height="17" viewBox="0 0 20 17" fill="none" xmlns="http://www.w3.org/2000/svg">
<path d="M18.8688 2.07441C18.6141 1.54092 18.2151 1.08948 17.7168 0.771318C17.2186 0.453156 16.6412 0.28101 16.05 0.274414H3.55005C2.95893 0.28101 2.3815 0.453156 1.88326 0.771318C1.38503 1.08948 0.985949 1.54092 0.731299 2.07441C0.532006 2.48783 0.427385 2.94048 0.425049 3.39941V13.3994C0.425049 14.2282 0.754289 15.0231 1.34034 15.6091C1.63052 15.8993 1.97502 16.1295 2.35416 16.2865C2.73331 16.4436 3.13967 16.5244 3.55005 16.5244H16.05C16.8789 16.5244 17.6737 16.1952 18.2598 15.6091C18.8458 15.0231 19.175 14.2282 19.175 13.3994V3.39941C19.1727 2.94048 19.0681 2.48783 18.8688 2.07441ZM3.55005 1.52441H16.05C16.4495 1.52711 16.8375 1.65863 17.1563 1.89941L11.0188 7.14941C10.6803 7.44232 10.2477 7.60353 9.80005 7.60353C9.35243 7.60353 8.91978 7.44232 8.5813 7.14941L2.4438 1.89941C2.76259 1.65863 3.15055 1.52711 3.55005 1.52441ZM17.925 13.3994C17.925 13.8967 17.7275 14.3736 17.3759 14.7252C17.0242 15.0769 16.5473 15.2744 16.05 15.2744H3.55005C3.05277 15.2744 2.57585 15.0769 2.22422 14.7252C1.87259 14.3736 1.67505 13.8967 1.67505 13.3994V3.39941C1.67634 3.24323 1.69734 3.08784 1.73755 2.93691L7.7688 8.10566C8.33313 8.59343 9.05414 8.86185 9.80005 8.86185C10.546 8.86185 11.267 8.59343 11.8313 8.10566L17.8625 2.93691C17.9028 3.08784 17.9238 3.24323 17.925 3.39941V13.3994Z" fill="#222222"/>
</svg>
