<svg width="44" height="35" viewBox="0 0 44 35" fill="none" xmlns="http://www.w3.org/2000/svg">
<path d="M43.1303 4.52079C41.5352 5.2139 39.8474 5.67054 38.1203 5.87628C39.9353 4.81348 41.3003 3.12505 41.9591 1.12764C40.2431 2.13105 38.3689 2.83508 36.4167 3.2096C35.5946 2.34805 34.6059 1.66266 33.5107 1.1951C32.4155 0.727534 31.2367 0.48756 30.0459 0.489761C25.2246 0.489761 21.3229 4.33474 21.3229 9.07452C21.3195 9.7338 21.3951 10.3911 21.548 11.0324C18.0907 10.8704 14.7054 9.98844 11.6086 8.44307C8.51174 6.8977 5.77157 4.72292 3.56338 2.05787C2.78869 3.36386 2.37899 4.85394 2.3771 6.3724C2.3771 9.34916 3.93016 11.9804 6.27524 13.5219C4.88584 13.489 3.52492 13.1212 2.308 12.4499V12.5563C2.308 16.7202 5.3202 20.1842 9.30693 20.9727C8.55723 21.1725 7.78468 21.2738 7.0088 21.2739C6.45826 21.2749 5.90896 21.2215 5.36892 21.1144C6.47723 24.5253 9.70294 27.0059 13.524 27.0768C10.4191 29.4697 6.60713 30.763 2.68718 30.7535C1.99138 30.7524 1.29623 30.711 0.605225 30.6294C4.593 33.1758 9.22847 34.5227 13.9599 34.5098C30.0273 34.5098 38.8052 21.4245 38.8052 10.0756C38.8052 9.70353 38.7954 9.33144 38.7777 8.9682C40.4815 7.75629 41.9554 6.25024 43.1303 4.52079Z" fill="white"/>
</svg>
