<svg width="31" height="23" viewBox="0 0 31 23" fill="none" xmlns="http://www.w3.org/2000/svg">
<path fill-rule="evenodd" clip-rule="evenodd" d="M6.66134 14.4739H14.9409C15.046 14.4739 15.1313 14.3887 15.1313 14.2835C15.1313 14.1781 15.046 14.0929 14.9409 14.0929H6.66134V14.4739Z" fill="black"/>
<path fill-rule="evenodd" clip-rule="evenodd" d="M26.8403 8.08945C26.9455 8.08929 27.0308 8.00401 27.0308 7.89883V2.06961C27.0308 1.96443 26.9454 1.879 26.8402 1.879H19.0793C18.9741 1.879 18.8887 1.96443 18.8887 2.06961V7.90414C18.8887 7.95474 18.9089 8.00318 18.9446 8.03885C18.9805 8.07469 19.0288 8.09476 19.0795 8.09476L26.8403 8.08945ZM26.6496 7.70838L19.2699 7.71336V2.26023H26.6496V7.70838Z" fill="black"/>
<path fill-rule="evenodd" clip-rule="evenodd" d="M20.0564 2.26023C20.1616 2.26023 20.2471 2.17479 20.2471 2.06961V0.190634C20.2471 0.0852881 20.1616 1.52588e-05 20.0564 1.52588e-05H5.68465C5.57943 1.52588e-05 5.494 0.0852881 5.494 0.190634V2.06961C5.494 2.17479 5.57943 2.26023 5.68465 2.26023H20.0564ZM19.866 1.879H5.8753V0.381086H19.866V1.879Z" fill="black"/>
<path fill-rule="evenodd" clip-rule="evenodd" d="M27.9744 2.26023C28.0796 2.26023 28.165 2.17479 28.165 2.06961V0.190634C28.165 0.0852881 28.0796 1.52588e-05 27.9744 1.52588e-05H20.0549C19.9497 1.52588e-05 19.8643 0.0852881 19.8643 0.190634V2.06961C19.8643 2.17479 19.9497 2.26023 20.0549 2.26023H27.9744ZM27.7838 1.879H20.2455V0.381086H27.7838V1.879Z" fill="black"/>
<path fill-rule="evenodd" clip-rule="evenodd" d="M6.80677 15.693V17.337C6.80677 17.4421 6.89198 17.5276 6.9972 17.5276C7.10242 17.5276 7.18799 17.4421 7.18799 17.337V15.693C7.18799 15.5875 7.10242 15.5023 6.9972 15.5023C6.89198 15.5023 6.80677 15.5875 6.80677 15.693Z" fill="black"/>
<path fill-rule="evenodd" clip-rule="evenodd" d="M6.80677 18.2768V21.3303C6.80677 21.4354 6.89198 21.5203 6.9972 21.5203C7.10242 21.5203 7.18799 21.4354 7.18799 21.3303V18.2768C7.18799 18.1716 7.10242 18.0861 6.9972 18.0861C6.89198 18.0861 6.80677 18.1716 6.80677 18.2768Z" fill="black"/>
<path fill-rule="evenodd" clip-rule="evenodd" d="M2.57874 15.693V17.337C2.57874 17.4421 2.66395 17.5276 2.76917 17.5276C2.87439 17.5276 2.95996 17.4421 2.95996 17.337V15.693C2.95996 15.5875 2.87439 15.5023 2.76917 15.5023C2.66395 15.5023 2.57874 15.5875 2.57874 15.693Z" fill="black"/>
<path fill-rule="evenodd" clip-rule="evenodd" d="M2.57874 18.2768V21.3303C2.57874 21.4354 2.66395 21.5203 2.76917 21.5203C2.87439 21.5203 2.95996 21.4354 2.95996 21.3303V18.2768C2.95996 18.1716 2.87439 18.0861 2.76917 18.0861C2.66395 18.0861 2.57874 18.1716 2.57874 18.2768Z" fill="black"/>
<path fill-rule="evenodd" clip-rule="evenodd" d="M8.21595 15.693V17.337C8.21595 17.4421 8.30116 17.5276 8.40638 17.5276C8.5116 17.5276 8.59717 17.4421 8.59717 17.337V15.693C8.59717 15.5875 8.5116 15.5023 8.40638 15.5023C8.30116 15.5023 8.21595 15.5875 8.21595 15.693Z" fill="black"/>
<path fill-rule="evenodd" clip-rule="evenodd" d="M8.21595 18.2768V21.3303C8.21595 21.4354 8.30116 21.5203 8.40638 21.5203C8.5116 21.5203 8.59717 21.4354 8.59717 21.3303V18.2768C8.59717 18.1716 8.5116 18.0861 8.40638 18.0861C8.30116 18.0861 8.21595 18.1716 8.21595 18.2768Z" fill="black"/>
<path fill-rule="evenodd" clip-rule="evenodd" d="M8.8263 3.00917V9.58438C8.8263 9.68976 8.91151 9.77509 9.01673 9.77509C9.12195 9.77509 9.20752 9.68976 9.20752 9.58438V3.00917C9.20752 2.90379 9.12195 2.81849 9.01673 2.81849C8.91151 2.81849 8.8263 2.90379 8.8263 3.00917Z" fill="black"/>
<path fill-rule="evenodd" clip-rule="evenodd" d="M15.7716 13.3444V14.7537C15.7716 14.8587 15.8568 14.9441 15.962 14.9441C16.0673 14.9441 16.1528 14.8587 16.1528 14.7537V13.3444C16.1528 13.2391 16.0673 13.1537 15.962 13.1537C15.8568 13.1537 15.7716 13.2391 15.7716 13.3444Z" fill="black"/>
<path fill-rule="evenodd" clip-rule="evenodd" d="M24.3004 13.3439V14.0754C24.3004 14.1804 24.3856 14.2659 24.4909 14.2659C24.5961 14.2659 24.6816 14.1804 24.6816 14.0754V13.3439C24.6816 13.2387 24.5961 13.1532 24.4909 13.1532C24.3856 13.1532 24.3004 13.2387 24.3004 13.3439Z" fill="black"/>
<path fill-rule="evenodd" clip-rule="evenodd" d="M3.98841 15.693V17.337C3.98841 17.4421 4.07362 17.5276 4.17884 17.5276C4.28406 17.5276 4.36963 17.4421 4.36963 17.337V15.693C4.36963 15.5875 4.28406 15.5023 4.17884 15.5023C4.07362 15.5023 3.98841 15.5875 3.98841 15.693Z" fill="black"/>
<path fill-rule="evenodd" clip-rule="evenodd" d="M3.98841 18.2768V21.3303C3.98841 21.4354 4.07362 21.5203 4.17884 21.5203C4.28406 21.5203 4.36963 21.4354 4.36963 21.3303V18.2768C4.36963 18.1716 4.28406 18.0861 4.17884 18.0861C4.07362 18.0861 3.98841 18.1716 3.98841 18.2768Z" fill="black"/>
<path fill-rule="evenodd" clip-rule="evenodd" d="M9.62513 15.693V17.337C9.62513 17.4421 9.71034 17.5276 9.81556 17.5276C9.92078 17.5276 10.0063 17.4421 10.0063 17.337V15.693C10.0063 15.5875 9.92078 15.5023 9.81556 15.5023C9.71034 15.5023 9.62513 15.5875 9.62513 15.693Z" fill="black"/>
<path fill-rule="evenodd" clip-rule="evenodd" d="M9.62513 18.2768V21.3303C9.62513 21.4354 9.71034 21.5203 9.81556 21.5203C9.92078 21.5203 10.0063 21.4354 10.0063 21.3303V18.2768C10.0063 18.1716 9.92078 18.0861 9.81556 18.0861C9.71034 18.0861 9.62513 18.1716 9.62513 18.2768Z" fill="black"/>
<path fill-rule="evenodd" clip-rule="evenodd" d="M10.2355 3.00917V9.58438C10.2355 9.68976 10.3207 9.77509 10.4259 9.77509C10.5311 9.77509 10.6167 9.68976 10.6167 9.58438V3.00917C10.6167 2.90379 10.5311 2.81849 10.4259 2.81849C10.3207 2.81849 10.2355 2.90379 10.2355 3.00917Z" fill="black"/>
<path fill-rule="evenodd" clip-rule="evenodd" d="M17.1808 15.6935V22.27C17.1808 22.3752 17.266 22.4606 17.3712 22.4606C17.4764 22.4606 17.562 22.3752 17.562 22.27V15.6935C17.562 15.5882 17.4764 15.5028 17.3712 15.5028C17.266 15.5028 17.1808 15.5882 17.1808 15.6935Z" fill="black"/>
<path fill-rule="evenodd" clip-rule="evenodd" d="M25.9445 14.5633V17.977C25.9445 18.0821 26.0297 18.1677 26.1349 18.1677C26.2401 18.1677 26.3257 18.0821 26.3257 17.977V14.5633C26.3257 14.4576 26.2401 14.3726 26.1349 14.3726C26.0297 14.3726 25.9445 14.4576 25.9445 14.5633Z" fill="black"/>
<path fill-rule="evenodd" clip-rule="evenodd" d="M17.1808 13.344V15.6928C17.1808 15.7976 17.266 15.8834 17.3712 15.8834C17.4764 15.8834 17.562 15.7976 17.562 15.6928V13.344C17.562 13.2388 17.4764 13.1535 17.3712 13.1535C17.266 13.1535 17.1808 13.2388 17.1808 13.344Z" fill="black"/>
<path fill-rule="evenodd" clip-rule="evenodd" d="M25.9445 13.3437V14.563C25.9445 14.668 26.0297 14.7535 26.1349 14.7535C26.2401 14.7535 26.3257 14.668 26.3257 14.563V13.3437C26.3257 13.2385 26.2401 13.153 26.1349 13.153C26.0297 13.153 25.9445 13.2385 25.9445 13.3437Z" fill="black"/>
<path fill-rule="evenodd" clip-rule="evenodd" d="M15.8722 3.00964V6.49954C15.8722 6.60426 15.9574 6.68935 16.0626 6.68935C16.1678 6.68935 16.2534 6.60426 16.2534 6.49954V3.00964C16.2534 2.90492 16.1678 2.81853 16.0626 2.81853C15.9574 2.81853 15.8722 2.90492 15.8722 3.00964Z" fill="black"/>
<path fill-rule="evenodd" clip-rule="evenodd" d="M5.39759 15.693V17.337C5.39759 17.4421 5.4828 17.5276 5.58802 17.5276C5.69324 17.5276 5.77881 17.4421 5.77881 17.337V15.693C5.77881 15.5875 5.69324 15.5023 5.58802 15.5023C5.4828 15.5023 5.39759 15.5875 5.39759 15.693Z" fill="black"/>
<path fill-rule="evenodd" clip-rule="evenodd" d="M5.39759 18.2768V21.3303C5.39759 21.4354 5.4828 21.5203 5.58802 21.5203C5.69324 21.5203 5.77881 21.4354 5.77881 21.3303V18.2768C5.77881 18.1716 5.69324 18.0861 5.58802 18.0861C5.4828 18.0861 5.39759 18.1716 5.39759 18.2768Z" fill="black"/>
<path fill-rule="evenodd" clip-rule="evenodd" d="M11.0348 15.693V17.337C11.0348 17.4421 11.12 17.5276 11.2252 17.5276C11.3304 17.5276 11.416 17.4421 11.416 17.337V15.693C11.416 15.5875 11.3304 15.5023 11.2252 15.5023C11.12 15.5023 11.0348 15.5875 11.0348 15.693Z" fill="black"/>
<path fill-rule="evenodd" clip-rule="evenodd" d="M11.0348 18.2768V21.3303C11.0348 21.4354 11.12 21.5203 11.2252 21.5203C11.3304 21.5203 11.416 21.4354 11.416 21.3303V18.2768C11.416 18.1716 11.3304 18.0861 11.2252 18.0861C11.12 18.0861 11.0348 18.1716 11.0348 18.2768Z" fill="black"/>
<path fill-rule="evenodd" clip-rule="evenodd" d="M11.6447 3.00917V9.58438C11.6447 9.68976 11.7299 9.77509 11.8351 9.77509C11.9403 9.77509 12.0259 9.68976 12.0259 9.58438V3.00917C12.0259 2.90379 11.9403 2.81849 11.8351 2.81849C11.7299 2.81849 11.6447 2.90379 11.6447 3.00917Z" fill="black"/>
<path fill-rule="evenodd" clip-rule="evenodd" d="M18.8248 15.6935V22.27C18.8248 22.3752 18.91 22.4606 19.0153 22.4606C19.1205 22.4606 19.2061 22.3752 19.2061 22.27V15.6935C19.2061 15.5882 19.1205 15.5028 19.0153 15.5028C18.91 15.5028 18.8248 15.5882 18.8248 15.6935Z" fill="black"/>
<path fill-rule="evenodd" clip-rule="evenodd" d="M27.589 14.5633V17.977C27.589 18.0821 27.6742 18.1677 27.7794 18.1677C27.8846 18.1677 27.9702 18.0821 27.9702 17.977V14.5633C27.9702 14.4576 27.8846 14.3726 27.7794 14.3726C27.6742 14.3726 27.589 14.4576 27.589 14.5633Z" fill="black"/>
<path fill-rule="evenodd" clip-rule="evenodd" d="M18.8248 13.344V15.6928C18.8248 15.7976 18.91 15.8834 19.0153 15.8834C19.1205 15.8834 19.2061 15.7976 19.2061 15.6928V13.344C19.2061 13.2388 19.1205 13.1535 19.0153 13.1535C18.91 13.1535 18.8248 13.2388 18.8248 13.344Z" fill="black"/>
<path fill-rule="evenodd" clip-rule="evenodd" d="M27.589 13.3437V14.563C27.589 14.668 27.6742 14.7535 27.7794 14.7535C27.8846 14.7535 27.9702 14.668 27.9702 14.563V13.3437C27.9702 13.2385 27.8846 13.153 27.7794 13.153C27.6742 13.153 27.589 13.2385 27.589 13.3437Z" fill="black"/>
<path fill-rule="evenodd" clip-rule="evenodd" d="M20.7042 13.3444V14.7537C20.7042 14.8587 20.7894 14.9441 20.8947 14.9441C20.9999 14.9441 21.0854 14.8587 21.0854 14.7537V13.3444C21.0854 13.2391 20.9999 13.1537 20.8947 13.1537C20.7894 13.1537 20.7042 13.2391 20.7042 13.3444Z" fill="black"/>
<path fill-rule="evenodd" clip-rule="evenodd" d="M29.233 13.3439V14.0754C29.233 14.1804 29.3182 14.2659 29.4235 14.2659C29.5287 14.2659 29.6143 14.1804 29.6143 14.0754V13.3439C29.6143 13.2387 29.5287 13.1532 29.4235 13.1532C29.3182 13.1532 29.233 13.2387 29.233 13.3439Z" fill="black"/>
<path fill-rule="evenodd" clip-rule="evenodd" d="M14.9398 9.11198C14.8345 9.11198 14.7492 9.19729 14.7492 9.30258V22.2694C14.7492 22.3747 14.8345 22.46 14.9398 22.46H22.8744C22.9796 22.46 23.0649 22.3747 23.0649 22.2694V9.30258C23.0649 9.19729 22.9796 9.11198 22.8744 9.11198H14.9398ZM15.1304 9.49309H22.6838V22.0789H15.1304V9.49309Z" fill="black"/>
<path fill-rule="evenodd" clip-rule="evenodd" d="M22.8743 9.11198C22.7691 9.11198 22.6838 9.19729 22.6838 9.30258V22.2694C22.6838 22.3747 22.7691 22.46 22.8743 22.46H30.8089C30.9142 22.46 30.9995 22.3747 30.9995 22.2694V9.30258C30.9995 9.19729 30.9142 9.11198 30.8089 9.11198H22.8743ZM23.0649 9.49309H30.6183V22.0789H23.0649V9.49309Z" fill="black"/>
<path fill-rule="evenodd" clip-rule="evenodd" d="M0.795134 14.0933C0.689921 14.0933 0.604414 14.1786 0.604414 14.2838V22.2699C0.604414 22.3751 0.689921 22.4605 0.795134 22.4605H14.9394C15.0446 22.4605 15.1299 22.3751 15.1299 22.2699V14.2838C15.1299 14.1786 15.0446 14.0933 14.9394 14.0933H0.795134ZM0.9856 14.4744H14.7489V22.0793H0.9856V14.4744Z" fill="black"/>
<path fill-rule="evenodd" clip-rule="evenodd" d="M1.82946 15.5021C1.72412 15.5021 1.63881 15.5874 1.63881 15.6926V17.3366C1.63881 17.4418 1.72412 17.5271 1.82946 17.5271H13.1038C13.2089 17.5271 13.2944 17.4418 13.2944 17.3366V15.6926C13.2944 15.5874 13.2089 15.5021 13.1038 15.5021H1.82946ZM2.01991 15.8831H12.9131V17.1461H2.01991V15.8831Z" fill="black"/>
<path fill-rule="evenodd" clip-rule="evenodd" d="M7.84376 2.81902C7.73852 2.81902 7.65322 2.90433 7.65322 3.0096V9.58642C7.65322 9.69163 7.73852 9.77695 7.84376 9.77695H13.4808C13.5861 9.77695 13.6714 9.69163 13.6714 9.58642V3.0096C13.6714 2.90433 13.5861 2.81902 13.4808 2.81902H7.84376ZM8.03432 3.20013H13.2903V9.39583H8.03432V3.20013Z" fill="black"/>
<path fill-rule="evenodd" clip-rule="evenodd" d="M14.8894 2.81878C14.7841 2.81878 14.6988 2.90409 14.6988 3.00934V6.53249C14.6988 6.63771 14.7841 6.72305 14.8894 6.72305H17.7079C17.8131 6.72305 17.8984 6.63771 17.8984 6.53249V3.00934C17.8984 2.90409 17.8131 2.81878 17.7079 2.81878H14.8894ZM15.0799 3.19988H17.5173V6.34193H15.0799V3.19988Z" fill="black"/>
<path fill-rule="evenodd" clip-rule="evenodd" d="M1.82946 18.0857C1.72412 18.0857 1.63881 18.171 1.63881 18.2763V21.3295C1.63881 21.4347 1.72412 21.5201 1.82946 21.5201H13.1038C13.2089 21.5201 13.2944 21.4347 13.2944 21.3295V18.2763C13.2944 18.171 13.2089 18.0857 13.1038 18.0857H1.82946ZM2.01991 18.4668H12.9131V21.139H2.01991V18.4668Z" fill="black"/>
<path fill-rule="evenodd" clip-rule="evenodd" d="M15.9639 15.502C15.8586 15.502 15.7733 15.5874 15.7733 15.6926V22.2691C15.7733 22.3744 15.8586 22.4597 15.9639 22.4597H20.8963C21.0016 22.4597 21.0869 22.3744 21.0869 22.2691V15.6926C21.0869 15.5874 21.0016 15.502 20.8963 15.502H15.9639ZM16.1544 15.8831H20.7057V22.0786H16.1544V15.8831Z" fill="black"/>
<path fill-rule="evenodd" clip-rule="evenodd" d="M24.4927 14.373C24.3874 14.373 24.3021 14.4583 24.3021 14.5636V17.9777C24.3021 18.0829 24.3874 18.1682 24.4927 18.1682H29.4251C29.5304 18.1682 29.6157 18.0829 29.6157 17.9777V14.5636C29.6157 14.4583 29.5304 14.373 29.4251 14.373H24.4927ZM24.6832 14.7542H29.2345V17.7871H24.6832V14.7542Z" fill="black"/>
<path fill-rule="evenodd" clip-rule="evenodd" d="M15.9639 13.1532C15.8586 13.1532 15.7733 13.2385 15.7733 13.3438V15.6924C15.7733 15.7976 15.8586 15.8829 15.9639 15.8829H20.8963C21.0016 15.8829 21.0869 15.7976 21.0869 15.6924V13.3438C21.0869 13.2385 21.0016 13.1532 20.8963 13.1532H15.9639ZM16.1544 13.5343H20.7057V15.5018L16.1544 15.5018V13.5343Z" fill="black"/>
<path fill-rule="evenodd" clip-rule="evenodd" d="M24.4927 13.1535C24.3874 13.1535 24.3021 13.2389 24.3021 13.3441V14.5634C24.3021 14.6687 24.3874 14.754 24.4927 14.754H29.4251C29.5304 14.754 29.6157 14.6687 29.6157 14.5634V13.3441C29.6157 13.2389 29.5304 13.1535 29.4251 13.1535H24.4927ZM24.6832 13.5347H29.2345V14.3728H24.6832V13.5347Z" fill="black"/>
<path fill-rule="evenodd" clip-rule="evenodd" d="M15.9639 10.0998C15.8586 10.0998 15.7733 10.1852 15.7733 10.2904V12.4043C15.7733 12.5095 15.8586 12.5949 15.9639 12.5949H20.8963C21.0016 12.5949 21.0869 12.5095 21.0869 12.4043V10.2904C21.0869 10.1852 21.0016 10.0998 20.8963 10.0998H15.9639ZM16.1544 10.481H20.7057V12.2137H16.1544V10.481Z" fill="black"/>
<path fill-rule="evenodd" clip-rule="evenodd" d="M1.73448 13.1536C1.62924 13.1536 1.54385 13.2389 1.54385 13.3441V14.2835C1.54385 14.3887 1.62924 14.474 1.73448 14.474H14.9392C15.0445 14.474 15.1299 14.3887 15.1299 14.2835V13.3441C15.1299 13.2389 15.0445 13.1536 14.9392 13.1536H1.73448ZM1.92488 13.5346H14.7486V14.0929H1.92488V13.5346Z" fill="black"/>
<path fill-rule="evenodd" clip-rule="evenodd" d="M11.445 10.8213C11.3948 10.7987 11.3374 10.7987 11.2872 10.8213L8.70346 11.9958C8.62179 12.0328 8.57707 12.122 8.59619 12.2096C8.61498 12.2973 8.69277 12.3599 8.78222 12.3599H13.9496C14.0394 12.3599 14.1169 12.2973 14.136 12.2096C14.1551 12.122 14.1104 12.0328 14.0287 11.9958L11.445 10.8213ZM11.3659 11.2042L13.07 11.9787H9.66214L11.3659 11.2042Z" fill="black"/>
<path fill-rule="evenodd" clip-rule="evenodd" d="M5.33758 10.8213C5.28734 10.7987 5.22998 10.7987 5.17974 10.8213L2.59604 11.9958C2.51437 12.0328 2.46964 12.122 2.48877 12.2096C2.50756 12.2973 2.58535 12.3599 2.6748 12.3599H7.8422C7.93197 12.3599 8.00943 12.2973 8.02855 12.2096C8.04767 12.122 8.00295 12.0328 7.92128 11.9958L5.33758 10.8213ZM5.2585 11.2042L6.9626 11.9787H3.55472L5.2585 11.2042Z" fill="black"/>
<path fill-rule="evenodd" clip-rule="evenodd" d="M5.06836 12.1696V14.2835C5.06836 14.3884 5.15362 14.4738 5.25885 14.4738C5.36407 14.4738 5.44934 14.3884 5.44934 14.2835V12.1696C5.44934 12.0643 5.36407 11.9789 5.25885 11.9789C5.15362 11.9789 5.06836 12.0643 5.06836 12.1696Z" fill="black"/>
<path fill-rule="evenodd" clip-rule="evenodd" d="M3.21338 9.53167V14.284C3.21338 14.3885 3.29864 14.4741 3.40387 14.4741C3.50909 14.4741 3.59435 14.3885 3.59435 14.284V9.53167C3.59435 9.42617 3.50909 9.34062 3.40387 9.34062C3.29864 9.34062 3.21338 9.42617 3.21338 9.53167Z" fill="black"/>
<path fill-rule="evenodd" clip-rule="evenodd" d="M11.1753 12.1696V14.2835C11.1753 14.3884 11.2606 14.4738 11.3658 14.4738C11.471 14.4738 11.5563 14.3884 11.5563 14.2835V12.1696C11.5563 12.0643 11.471 11.9789 11.3658 11.9789C11.2606 11.9789 11.1753 12.0643 11.1753 12.1696Z" fill="black"/>
<path fill-rule="evenodd" clip-rule="evenodd" d="M7.84283 1.32096H17.7078C17.813 1.32096 17.8983 1.23546 17.8983 1.13047C17.8983 1.02524 17.813 0.939743 17.7078 0.939743H7.84283C7.73761 0.939743 7.65234 1.02524 7.65234 1.13047C7.65234 1.23546 7.73761 1.32096 7.84283 1.32096Z" fill="black"/>
<path fill-rule="evenodd" clip-rule="evenodd" d="M1.92368 8.17083C1.92352 8.17136 1.92319 8.17171 1.92303 8.17206C1.77484 8.44249 1.68945 8.75769 1.68945 9.09423C1.68945 10.1058 2.45888 10.9204 3.3976 10.9204C4.33632 10.9204 5.10574 10.1058 5.10574 9.09423C5.10574 8.75716 5.02019 8.44178 4.8702 8.17189L4.87004 8.17153C4.72659 7.91468 4.66705 7.61922 4.69993 7.32676V7.32623C4.70582 7.27246 4.70892 7.21799 4.70892 7.16263C4.70892 6.38696 4.1173 5.76414 3.3976 5.76414C2.67806 5.76414 2.08643 6.38696 2.08643 7.16263C2.08643 7.21534 2.08921 7.26735 2.09265 7.31865C2.09281 7.32147 2.09314 7.32412 2.09347 7.32694C2.12618 7.61905 2.06697 7.91415 1.92368 8.17083ZM2.2572 8.35558C2.43827 8.03015 2.51351 7.65659 2.47245 7.28657C2.46984 7.24743 2.46755 7.2053 2.46755 7.16263C2.46755 6.60486 2.88023 6.14527 3.3976 6.14527C3.91513 6.14527 4.32781 6.60486 4.32781 7.16263C4.32781 7.20389 4.32552 7.24461 4.3211 7.28463C4.27956 7.65571 4.35513 8.03103 4.53734 8.35734C4.65691 8.57259 4.72463 8.82503 4.72463 9.09423C4.72463 9.88788 4.13414 10.5393 3.3976 10.5393C2.66105 10.5393 2.07057 9.88788 2.07057 9.09423C2.07057 8.82468 2.13845 8.57206 2.2572 8.35558Z" fill="black"/>
<path fill-rule="evenodd" clip-rule="evenodd" d="M26.8549 7.70931C26.8509 7.70884 26.8467 7.70884 26.8424 7.70884H19.0804V7.70955C19.0301 7.70861 18.9798 7.70861 18.9296 7.70908C17.5724 7.72387 16.2061 8.21501 14.8337 9.14539C14.7644 9.19236 14.7339 9.27903 14.7583 9.35889C14.783 9.43899 14.8567 9.49348 14.9406 9.49348H30.8096C30.892 9.49348 30.9648 9.44087 30.9906 9.36265C31.0163 9.28444 30.989 9.1987 30.9228 9.14961C29.5788 8.15747 28.2249 7.69428 26.864 7.70908L26.8549 7.70931ZM26.8417 8.08982L26.8424 8.09053L26.8683 8.09029C27.9837 8.07808 29.0926 8.41114 30.196 9.1125H15.5969C16.7149 8.45342 17.8266 8.10227 18.9336 8.09029L19.0804 8.09053L19.0813 8.08982H26.8417ZM26.8417 8.08982C26.83 8.08865 26.6517 8.06704 26.6517 7.89933C26.6517 7.85588 26.8302 8.07549 26.8417 8.08982Z" fill="black"/>
<path fill-rule="evenodd" clip-rule="evenodd" d="M15.1307 9.40427C16.4056 8.55699 17.6726 8.10345 18.9334 8.08987C18.9812 8.08916 19.0291 8.0894 19.077 8.09011C19.128 8.09107 19.1773 8.07129 19.2137 8.03533C19.2502 7.9996 19.2707 7.95076 19.2707 7.89955V2.0698C19.2707 1.96451 19.1851 1.87923 19.0801 1.87923H6.66078C6.55549 1.87923 6.47021 1.96451 6.47021 2.0698V11.6324C6.47021 11.7072 6.51381 11.7751 6.58193 11.8058L6.96281 11.979H6.66078C6.55549 11.979 6.47021 12.0643 6.47021 12.1696V14.2836C6.47021 14.3889 6.55549 14.4742 6.66078 14.4742H14.9402C15.0454 14.4742 15.1307 14.3889 15.1307 14.2836V9.40427ZM18.8895 7.70923C17.5454 7.73305 16.1924 8.22374 14.8332 9.14487L14.9402 9.49312L14.7496 9.30256V14.093H6.85134V12.3601H7.84249C7.93205 12.3601 8.00971 12.2977 8.02876 12.2101C8.04758 12.1224 8.00304 12.0333 7.92133 11.9961L6.85134 11.5097V2.26036H18.8895V7.70923Z" fill="black"/>
<path fill-rule="evenodd" clip-rule="evenodd" d="M14.833 9.14478L14.94 9.49308H22.8745L22.9878 9.14921C20.303 7.16707 17.5828 7.28104 14.833 9.14478ZM22.8648 9.49288H22.8658L22.8625 9.49269L22.8648 9.49288ZM22.8551 9.4921L22.8573 9.49229L22.8532 9.4919L22.8551 9.4921ZM22.8362 9.48924C22.8392 9.48983 22.8424 9.49032 22.8455 9.49092L22.8369 9.48934L22.8362 9.48924ZM22.8269 9.48707L22.8293 9.48766L22.8227 9.48589L22.8269 9.48707ZM22.7879 9.4723C22.7987 9.47781 22.81 9.48225 22.8218 9.4856C22.8102 9.48225 22.7988 9.47781 22.7879 9.4723ZM22.7837 9.47013L22.7866 9.47161L22.7812 9.46865L22.7837 9.47013ZM22.7757 9.4655L22.7792 9.46757L22.7742 9.46461L22.7757 9.4655ZM22.768 9.46058L22.7721 9.46314L22.7676 9.46028L22.7649 9.45841L22.768 9.46058ZM22.2602 9.11198C20.0628 7.717 17.8404 7.79108 15.5968 9.11198H22.2602Z" fill="black"/>
</svg>
