<svg width="23" height="24" viewBox="0 0 23 24" fill="none" xmlns="http://www.w3.org/2000/svg">
<path d="M18.3803 12.6614C18.2313 12.6614 18.0824 12.6148 17.952 12.5124C14.1996 9.61664 9.34854 9.61664 5.59616 12.5124C5.28889 12.7452 4.85127 12.6893 4.61849 12.3914C4.38571 12.0841 4.44158 11.6465 4.73954 11.4137C9.01334 8.10824 14.5348 8.10824 18.7993 11.4137C19.1066 11.6465 19.1624 12.0841 18.9204 12.3914C18.7993 12.5683 18.5945 12.6614 18.3803 12.6614Z" fill="#101010"/>
<path d="M21.0898 9.4211C20.9409 9.4211 20.7919 9.37455 20.6615 9.27213C15.2611 5.10075 8.28706 5.10075 2.89593 9.27213C2.58866 9.5049 2.15104 9.44904 1.91826 9.15108C1.67617 8.85313 1.73204 8.40619 2.0393 8.17342C7.95186 3.60166 15.5963 3.60166 21.5181 8.17342C21.8254 8.40619 21.8813 8.84382 21.6392 9.15108C21.5088 9.32799 21.2947 9.4211 21.0898 9.4211Z" fill="#101010"/>
<path d="M16.6299 16.0599C16.4809 16.0599 16.3319 16.0134 16.2015 15.9109C13.5199 13.8346 10.0469 13.8346 7.35599 15.9109C7.04872 16.1437 6.6111 16.0878 6.37832 15.7899C6.14554 15.4826 6.20141 15.045 6.49936 14.8122C9.70239 12.3355 13.8458 12.3355 17.0489 14.8122C17.3561 15.045 17.412 15.4826 17.1699 15.7899C17.0395 15.9668 16.8347 16.0599 16.6299 16.0599Z" fill="#101010"/>
<path d="M14.1997 19.4678C14.0507 19.4678 13.9017 19.4212 13.7714 19.3188C12.5609 18.3784 10.9873 18.3784 9.77688 19.3188C9.46962 19.5516 9.03199 19.4957 8.79922 19.1978C8.56644 18.8905 8.62231 18.4529 8.92026 18.2201C10.6521 16.8793 12.8868 16.8793 14.6187 18.2201C14.9259 18.4529 14.9818 18.8905 14.7397 19.1978C14.6187 19.3654 14.4138 19.4678 14.1997 19.4678Z" fill="#101010"/>
</svg>
