<svg width="49" height="35" viewBox="0 0 49 35" fill="none" xmlns="http://www.w3.org/2000/svg">
<path d="M47.8063 5.72135C47.2272 3.66567 45.6241 2.05342 43.5593 1.4835C39.7572 0.46709 24.473 0.46709 24.473 0.46709C24.473 0.46709 9.21762 0.442708 5.37598 1.4835C3.32182 2.05495 1.7111 3.66567 1.13813 5.72135C0.417346 9.61785 0.0592393 13.5616 0.0760017 17.5236C0.0683825 21.4597 0.424965 25.3974 1.13813 29.2695C1.7111 31.3252 3.32182 32.9374 5.37598 33.5165C9.178 34.5329 24.473 34.5329 24.473 34.5329C24.473 34.5329 39.7191 34.5329 43.5593 33.5165C45.6241 32.9374 47.2272 31.3267 47.8063 29.2695C48.5057 25.3974 48.847 21.4597 48.8227 17.5236C48.847 13.5616 48.5133 9.61785 47.8063 5.72135ZM19.5905 24.8183V10.1969L32.3132 17.5236L19.5905 24.8183Z" fill="white"/>
</svg>
